<svg width="271" height="202" viewBox="0 0 271 202" fill="none" xmlns="http://www.w3.org/2000/svg">
<g clip-path="url(#clip0_1516_1162)">
<path d="M270.256 176.988H0V177.123H270.256V176.988Z" fill="#EBEBEB"/>
<path d="M232.264 180.67H179.512V180.805H232.264V180.67Z" fill="#EBEBEB"/>
<path d="M181.431 183.793H156.207V183.928H181.431V183.793Z" fill="#EBEBEB"/>
<path d="M243.178 185.689H232.805V185.824H243.178V185.689Z" fill="#EBEBEB"/>
<path d="M118.371 183.859H68.3594V183.994H118.371V183.859Z" fill="#EBEBEB"/>
<path d="M63.5469 183.859H52.7891V183.994H63.5469V183.859Z" fill="#EBEBEB"/>
<path d="M49.0006 181.578H31.2383V181.713H49.0006V181.578Z" fill="#EBEBEB"/>
<path d="M128.11 152.883H23.7376C22.0366 152.883 20.6523 151.499 20.6523 149.798V3.08525C20.6523 1.38425 22.0366 0 23.7376 0H128.11C129.811 0 131.195 1.38425 131.195 3.08525V149.798C131.195 151.499 129.811 152.883 128.11 152.883ZM23.7376 0.135668C22.1106 0.135668 20.7875 1.45884 20.7875 3.08579V149.798C20.7875 151.425 22.1106 152.748 23.7376 152.748H128.11C129.736 152.748 131.06 151.425 131.06 149.798V3.08525C131.06 1.45884 129.736 0.135128 128.11 0.135128L23.7376 0.135668Z" fill="#EBEBEB"/>
<path d="M245.02 152.883H140.647C138.946 152.883 137.562 151.499 137.562 149.798V3.08525C137.562 1.38425 138.947 0 140.647 0H245.02C246.722 0 248.104 1.38425 248.104 3.08525V149.798C248.105 151.499 246.722 152.883 245.02 152.883ZM140.647 0.135668C139.021 0.135668 137.699 1.45884 137.699 3.08579V149.798C137.699 151.425 139.021 152.748 140.647 152.748H245.02C246.646 152.748 247.969 151.425 247.969 149.798V3.08525C247.969 1.45884 246.646 0.135128 245.02 0.135128L140.647 0.135668Z" fill="#EBEBEB"/>
<path d="M211.382 172.014H48.1257L38.3906 61.2715H201.647L211.382 172.014Z" fill="#F0F0F0"/>
<path d="M45.2381 175.542L48.1228 172.014L38.3876 61.2715L35.5078 64.8535L45.2381 175.542Z" fill="#E0E0E0"/>
<path d="M50.2834 167.811L41.3158 65.7987C41.2212 64.7237 42.0682 63.7988 43.1476 63.7988H197.658C198.611 63.7988 199.406 64.5269 199.49 65.4766L208.458 167.489C208.552 168.564 207.705 169.488 206.626 169.488H52.1152C51.1623 169.488 50.3672 168.76 50.2834 167.811Z" fill="#FAFAFA"/>
<path d="M71.0709 172.014H46.4737L44.7344 176.989H69.3315L71.0709 172.014Z" fill="#E0E0E0"/>
<path d="M71.0713 172.014H232.805L231.065 176.989H69.332L71.0713 172.014Z" fill="#F5F5F5"/>
<path d="M137.669 172.014H168.672L168.339 175.272H137.336L137.669 172.014Z" fill="#E0E0E0"/>
<path d="M184.648 54.0039H223.818C227.064 75.4925 212.053 93.1748 190.564 93.1748C183.689 93.1748 176.661 91.3646 170.188 87.927L184.648 54.0039Z" fill="#E0E0E0"/>
<path d="M184.648 54.0045L205.294 23.998C210.231 27.6745 214.449 32.2667 217.648 37.4503C220.849 42.6338 222.955 48.2848 223.819 54.0045H184.648Z" fill="#EBEBEB"/>
<path d="M184.647 54.0029L178.73 14.832C183.3 14.832 187.955 15.6314 192.484 17.194C197.014 18.7566 201.349 21.0587 205.293 23.9958L184.647 54.0029Z" fill="#E6E6E6"/>
<path d="M184.648 54.0029L170.186 87.9255C157.026 80.9372 147.588 67.9795 145.477 54.0029C142.231 32.5143 157.242 14.832 178.731 14.832L184.648 54.0029Z" fill="#F0F0F0"/>
<path d="M136.293 123.906H171.04C171.499 126.943 171.557 129.966 171.214 132.899C170.872 135.832 170.13 138.65 169.009 141.279L136.293 123.906Z" fill="#EBEBEB"/>
<path d="M136.293 123.906L137.158 89.6875C145.415 91.1058 153.342 95.3153 159.537 101.572C165.731 107.828 169.806 115.739 171.04 123.907L136.293 123.906Z" fill="#E0E0E0"/>
<path d="M136.295 123.907L105.438 135.791C103.477 131.982 102.16 127.96 101.548 123.907C98.6685 104.845 111.985 89.1602 131.046 89.1602C133.069 89.1602 135.115 89.3369 137.16 89.6883L136.295 123.907Z" fill="#F0F0F0"/>
<path d="M136.292 123.906L169.008 141.28C164.431 152.017 153.94 158.653 141.542 158.653C126.969 158.653 112.49 149.485 105.438 135.79L136.292 123.906Z" fill="white"/>
<path d="M135.128 201.399C193.007 201.399 239.927 198.659 239.927 195.279C239.927 191.899 193.007 189.158 135.128 189.158C77.2485 189.158 30.3281 191.899 30.3281 195.279C30.3281 198.659 77.2485 201.399 135.128 201.399Z" fill="#F5F5F5"/>
<path d="M130.042 99.6896H81.3553C78.2658 99.6896 75.5318 97.1616 75.28 94.072L72.8428 64.1352C72.5915 61.0456 74.9135 58.5176 78.0031 58.5176H126.69C129.779 58.5176 132.513 61.0456 132.765 64.1352L135.202 94.072C135.454 97.1616 133.132 99.6896 130.042 99.6896Z" fill="white"/>
<path d="M130.038 99.9233H81.351C78.1344 99.9233 75.3043 97.3072 75.0427 94.0911L72.6055 64.1543C72.4785 62.59 72.9736 61.1161 74.0001 60.0021C75.0222 58.8935 76.4426 58.2832 77.9993 58.2832H126.686C129.902 58.2832 132.732 60.8999 132.994 64.1159L135.431 94.0527C135.558 95.6165 135.063 97.0904 134.037 98.2044C133.015 99.313 131.595 99.9233 130.038 99.9233ZM77.9993 58.7519C76.5745 58.7519 75.2762 59.3091 74.3444 60.3199C73.4077 61.3366 72.9558 62.6846 73.072 64.1164L75.5092 94.0533C75.7519 97.0321 78.3723 99.4557 81.351 99.4557H130.038C131.462 99.4557 132.761 98.8984 133.693 97.8877C134.629 96.871 135.081 95.5229 134.965 94.0917L132.528 64.1548C132.285 61.1755 129.665 58.7519 126.686 58.7519H77.9993Z" fill="#FFCA20"/>
<path d="M116.83 90.9483C114.92 93.0271 112.453 94.52 109.673 95.2832L108.867 92.9752C114.861 91.3369 118.92 85.7469 118.379 79.104C118.056 75.1388 116.158 71.5482 113.348 68.9499L114.9 67.2598C121.928 73.7583 122.798 84.4508 116.83 90.9483Z" fill="#E0E0E0"/>
<path d="M114.899 67.2617L113.347 68.9519C110.537 66.3537 106.816 64.7478 102.85 64.7478C98.8851 64.7478 95.4258 66.358 93.0437 68.9562L91.2109 67.2617C94.0967 64.1203 98.2175 62.3555 102.656 62.3555C107.098 62.3555 111.502 64.1203 114.899 67.2617Z" fill="#263238"/>
<path d="M109.673 95.2827C104.026 96.8275 97.7117 95.1703 93.1406 90.9478C86.1183 84.4498 85.248 73.7579 91.212 67.2598L93.045 68.9543C90.6581 71.5526 89.3445 75.1383 89.6672 79.1036C90.3126 87.0291 97.2631 93.4569 105.189 93.4569C106.472 93.4569 107.708 93.2882 108.867 92.9747L109.673 95.2827Z" fill="#FFCA20"/>
<path d="M63.72 10.127H59.8164V10.5945H63.72V10.127Z" fill="#FFCA20"/>
<path d="M56.0327 10.127H47.1445V10.5945H56.0327V10.127Z" fill="#FFCA20"/>
<path d="M97.3702 53.1543H48.6835C45.5939 53.1543 42.86 50.6263 42.6081 47.5367L40.171 17.5999C39.9196 14.5103 42.2417 11.9824 45.3312 11.9824H94.0179C97.1075 11.9824 99.8414 14.5103 100.093 17.5999L102.53 47.5367C102.782 50.6263 100.46 53.1543 97.3702 53.1543Z" fill="white"/>
<path d="M97.3738 53.3886H48.6866C45.47 53.3886 42.6399 50.772 42.3783 47.5559L39.9416 17.6191C39.8141 16.0554 40.3092 14.5809 41.3361 13.4674C42.3583 12.3583 43.7787 11.748 45.3354 11.748H94.0221C97.2387 11.748 100.069 14.3647 100.33 17.5807L102.768 47.5176C102.895 49.0818 102.399 50.5558 101.373 51.6698C100.351 52.7784 98.9305 53.3886 97.3738 53.3886ZM45.3349 12.2161C43.9101 12.2161 42.6123 12.7734 41.6799 13.7847C40.7432 14.8009 40.2913 16.1489 40.4081 17.5807L42.8453 47.5176C43.0879 50.4969 45.7084 52.9205 48.6871 52.9205H97.3743C98.7986 52.9205 100.097 52.3638 101.029 51.3525C101.966 50.3358 102.418 48.9877 102.301 47.5554L99.8639 17.6185C99.6213 14.6392 97.0003 12.2156 94.0221 12.2156L45.3349 12.2161Z" fill="#FFCA20"/>
<path d="M44.5747 20.5719H70.3745L70.1669 18.0234H44.3672L44.5747 20.5719Z" fill="#E0E0E0"/>
<path d="M96.1753 20.5719H70.3756L70.168 18.0234H95.9677L96.1753 20.5719Z" fill="#FFCA20"/>
<path d="M45.1138 27.2092H52.4739L52.2664 24.6602H44.9062L45.1138 27.2092Z" fill="#E0E0E0"/>
<path d="M96.7164 27.2092H52.477L52.2695 24.6602H96.5088L96.7164 27.2092Z" fill="#FFCA20"/>
<path d="M45.6567 33.8434H68.622L68.4145 31.2949H45.4492L45.6567 33.8434Z" fill="#E0E0E0"/>
<path d="M97.2564 33.8434H68.6216L68.4141 31.2949H97.0488L97.2564 33.8434Z" fill="#FFCA20"/>
<path d="M46.1959 40.4788H85.3895L85.182 37.9297H45.9883L46.1959 40.4788Z" fill="#E0E0E0"/>
<path d="M97.7931 40.4788H85.3872L85.1797 37.9297H97.5855L97.7931 40.4788Z" fill="#FFCA20"/>
<path d="M46.7349 47.1129H64.8626L64.6551 44.5645H46.5273L46.7349 47.1129Z" fill="#E0E0E0"/>
<path d="M98.3356 47.1129H64.8638L64.6562 44.5645H98.1281L98.3356 47.1129Z" fill="#FFCA20"/>
<path d="M163.928 53.1544H115.242C112.152 53.1544 109.418 50.6264 109.167 47.5368L106.73 17.6C106.478 14.5104 108.8 11.9824 111.89 11.9824H160.577C163.666 11.9824 166.4 14.5104 166.652 17.6L169.089 47.5368C169.34 50.6264 167.018 53.1544 163.928 53.1544Z" fill="white"/>
<path d="M163.928 53.3886H115.242C112.025 53.3886 109.195 50.772 108.933 47.5559L106.496 17.6191C106.369 16.0554 106.864 14.5809 107.891 13.4669C108.913 12.3583 110.333 11.748 111.889 11.748H160.577C163.793 11.748 166.623 14.3647 166.885 17.5807L169.322 47.5176C169.45 49.0813 168.955 50.5558 167.928 51.6692C166.906 52.7784 165.486 53.3886 163.928 53.3886ZM111.889 12.2161C110.465 12.2161 109.167 12.7728 108.234 13.7841C107.298 14.8009 106.846 16.1489 106.962 17.5807L109.399 47.5176C109.642 50.4969 112.263 52.9205 115.241 52.9205H163.928C165.353 52.9205 166.65 52.3633 167.583 51.352C168.519 50.3358 168.971 48.9878 168.855 47.5559L166.417 17.6191C166.175 14.6398 163.554 12.2161 160.576 12.2161H111.889Z" fill="#FFCA20"/>
<path d="M139.521 47.1122H138.661L136.293 18.0234H137.152L139.521 47.1122Z" fill="#E0E0E0"/>
<path d="M140.82 35.0256H135.398L134.473 23.6602H139.895L140.82 35.0256Z" fill="#FFCA20"/>
<path d="M128.848 47.1122H127.989L125.621 18.0234H126.481L128.848 47.1122Z" fill="#E0E0E0"/>
<path d="M130.351 37.5501H124.928L124.117 27.5879H129.54L130.351 37.5501Z" fill="#FFCA20"/>
<path d="M118.177 47.1122H117.317L114.949 18.0234H115.808L118.177 47.1122Z" fill="#E0E0E0"/>
<path d="M119.014 29.3534H113.592L113.035 22.5137H118.458L119.014 29.3534Z" fill="#263238"/>
<path d="M150.192 47.1122H149.333L146.965 18.0234H147.824L150.192 47.1122Z" fill="#E0E0E0"/>
<path d="M152.013 41.4771H146.591L145.141 23.6602H150.562L152.013 41.4771Z" fill="#263238"/>
<path d="M160.864 47.1122H160.005L157.637 18.0234H158.496L160.864 47.1122Z" fill="#E0E0E0"/>
<path d="M162.861 43.6128H157.439L156.277 29.3438H161.7L162.861 43.6128Z" fill="#FFCA20"/>
<path d="M111.827 145.842H63.14C60.0504 145.842 57.3165 143.314 57.0652 140.225L54.628 110.288C54.3767 107.198 56.6987 104.67 59.7883 104.67H108.475C111.565 104.67 114.298 107.198 114.55 110.288L116.987 140.225C117.239 143.314 114.916 145.842 111.827 145.842Z" fill="white"/>
<path d="M111.827 146.076H63.14C59.9234 146.076 57.0932 143.46 56.8316 140.243L54.3945 110.307C54.2675 108.743 54.7626 107.268 55.789 106.154C56.8111 105.046 58.2316 104.436 59.7882 104.436H108.475C111.692 104.436 114.521 107.052 114.783 110.268L117.221 140.205C117.348 141.768 116.853 143.243 115.827 144.357C114.804 145.465 113.384 146.076 111.827 146.076ZM59.7882 104.904C58.3635 104.904 57.0651 105.461 56.1333 106.472C55.1966 107.488 54.7447 108.836 54.8609 110.268L57.2981 140.205C57.5408 143.184 60.1617 145.608 63.14 145.608H111.827C113.252 145.608 114.55 145.05 115.482 144.039C116.418 143.023 116.87 141.675 116.754 140.243L114.316 110.307C114.074 107.327 111.453 104.904 108.474 104.904H59.7882Z" fill="#FFCA20"/>
<path d="M66.3751 124.542L76.8686 136.665L88.902 118.104L96.3438 127.695L98.1594 124.895L110.323 139.473L63.6055 139.455L66.3751 124.542Z" fill="#FFCA20"/>
<path d="M101.405 125.292L96.5276 135.735L80.9722 111.037L73.6472 126.722L71.3003 122.995L63.6055 139.471L110.32 139.448L101.405 125.292Z" fill="#E0E0E0"/>
<path d="M181.538 90.4012L180.062 89.1465L178.13 89.3034L147.62 91.7823L142.957 92.1611L143.336 96.824L147.91 153.119L148.289 157.782L152.952 157.403L195.354 153.958L200.017 153.579L199.638 148.916L196.031 104.514L195.874 102.582L194.397 101.327L181.538 90.4012Z" fill="#FEF4D4" stroke="white" stroke-width="9.35653"/>
<path d="M179.478 105.86L191.37 104.893L178.512 93.9668L179.478 105.86Z" fill="#FFCA20"/>
<path d="M179.478 105.86L191.37 104.893L178.512 93.9668L179.478 105.86Z" fill="white" fill-opacity="0.6"/>
<path d="M164.707 117.195C164.699 117.125 164.682 117.056 164.665 116.987C164.655 116.868 164.641 116.748 164.632 116.628C164.6 116.263 164.416 115.898 164.136 115.66C163.87 115.434 163.452 115.282 163.1 115.326C162.735 115.372 162.364 115.524 162.132 115.823C161.901 116.119 161.764 116.476 161.798 116.859C161.806 116.953 161.811 117.047 161.818 117.141C161.806 117.236 161.805 117.332 161.816 117.43C161.844 118.041 161.882 118.645 161.949 119.253C161.962 119.38 161.996 119.504 162.04 119.624C162.045 119.656 162.046 119.688 162.051 119.72C162.113 120.093 162.244 120.422 162.541 120.675C162.803 120.898 163.215 121.048 163.562 121.004C163.922 120.959 164.287 120.809 164.517 120.514C164.734 120.235 164.906 119.857 164.845 119.493C164.846 119.468 164.843 119.444 164.842 119.419C164.871 119.288 164.887 119.154 164.872 119.016C164.837 118.405 164.777 117.802 164.707 117.195Z" fill="#263238"/>
<path d="M179.477 115.994C179.469 115.924 179.452 115.855 179.435 115.786C179.425 115.667 179.411 115.547 179.403 115.427C179.37 115.062 179.186 114.697 178.906 114.459C178.64 114.233 178.222 114.081 177.87 114.125C177.505 114.171 177.134 114.323 176.902 114.622C176.671 114.918 176.534 115.275 176.568 115.658C176.576 115.752 176.581 115.846 176.588 115.94C176.576 116.035 176.575 116.131 176.586 116.229C176.615 116.84 176.653 117.444 176.719 118.052C176.732 118.179 176.767 118.303 176.811 118.423C176.815 118.455 176.816 118.487 176.822 118.519C176.883 118.892 177.014 119.222 177.311 119.474C177.573 119.697 177.986 119.847 178.332 119.803C178.692 119.758 179.057 119.608 179.287 119.313C179.504 119.034 179.676 118.656 179.616 118.292C179.616 118.268 179.613 118.243 179.612 118.218C179.641 118.087 179.657 117.953 179.642 117.815C179.607 117.204 179.547 116.601 179.477 115.994Z" fill="#263238"/>
<path d="M177.8 127.486C177.654 126.823 176.89 126.417 176.348 126.099C175.833 125.797 175.283 125.573 174.715 125.392C173.525 125.015 172.227 124.908 170.999 125.152C169.82 125.387 168.702 125.875 167.744 126.606C166.961 127.204 165.708 128.244 165.797 129.343C165.815 129.571 166.062 129.742 166.281 129.653C166.7 129.483 167.029 129.102 167.332 128.777C167.675 128.408 168.06 128.085 168.479 127.804C169.294 127.257 170.238 126.886 171.215 126.771C172.183 126.656 173.182 126.743 174.106 127.06C174.572 127.22 175.031 127.439 175.448 127.701C175.918 127.994 176.321 128.484 176.897 128.548C177.556 128.622 177.933 128.097 177.8 127.486Z" fill="#263238"/>
<path d="M173.041 106.571C172.669 106.254 172.296 105.937 171.923 105.621C171.921 105.619 171.92 105.617 171.917 105.615C171.574 105.323 171.231 105.032 170.888 104.74C171.18 104.397 171.471 104.054 171.763 103.711C171.765 103.709 171.766 103.706 171.767 103.704C172.084 103.331 172.4 102.959 172.717 102.586C172.99 102.264 172.949 101.759 172.627 101.486C172.305 101.212 171.802 101.253 171.528 101.575C171.211 101.948 170.894 102.32 170.578 102.693C170.576 102.695 170.574 102.696 170.572 102.699C170.28 103.042 169.989 103.385 169.697 103.728C169.672 103.706 169.646 103.684 169.62 103.662C169.432 103.481 169.218 103.321 169.019 103.152C169.017 103.15 169.016 103.15 169.014 103.148C168.665 102.852 168.317 102.555 167.968 102.26C167.965 102.257 167.962 102.256 167.959 102.254C167.82 102.135 167.681 102.017 167.541 101.898C167.221 101.626 166.715 101.667 166.443 101.988C166.169 102.309 166.21 102.813 166.532 103.086C166.671 103.205 166.811 103.323 166.95 103.442C166.952 103.444 166.955 103.447 166.957 103.449C167.305 103.745 167.654 104.042 168.003 104.338C168.005 104.339 168.005 104.341 168.007 104.342C168.205 104.511 168.398 104.696 168.608 104.852C168.634 104.873 168.66 104.896 168.685 104.918C168.663 104.943 168.641 104.969 168.62 104.995H168.619C168.438 105.183 168.278 105.397 168.109 105.596C168.107 105.598 168.107 105.599 168.105 105.601C167.809 105.949 167.513 106.298 167.217 106.646C167.214 106.649 167.213 106.652 167.211 106.655C167.093 106.794 166.974 106.934 166.856 107.073C166.583 107.394 166.624 107.9 166.945 108.172C167.267 108.445 167.77 108.405 168.044 108.083C168.162 107.943 168.281 107.804 168.399 107.665C168.402 107.662 168.404 107.66 168.407 107.657C168.703 107.309 168.999 106.96 169.295 106.612C169.297 106.61 169.298 106.609 169.299 106.607C169.468 106.408 169.653 106.216 169.81 106.007C169.832 105.982 169.854 105.955 169.875 105.93C170.218 106.221 170.562 106.513 170.905 106.804C170.907 106.806 170.909 106.807 170.912 106.808C171.284 107.125 171.657 107.441 172.03 107.758C172.351 108.031 172.857 107.99 173.13 107.668C173.404 107.348 173.364 106.844 173.041 106.571Z" fill="#263238"/>
<path d="M144.022 143.781C144.107 143.086 144.404 142.538 144.915 142.139C145.428 141.713 146.033 141.543 146.729 141.628C147.825 141.762 148.835 141.722 149.757 141.509C150.683 141.269 151.445 140.806 152.045 140.119C152.672 139.435 153.06 138.478 153.211 137.247C153.322 136.337 153.192 135.507 152.823 134.756C152.48 134.008 151.945 133.386 151.218 132.89C150.518 132.397 149.686 132.092 148.723 131.974C147.974 131.882 147.248 131.929 146.547 132.115C145.872 132.304 145.239 132.594 144.649 132.983C144.175 133.305 143.619 133.522 142.981 133.634C142.372 133.723 141.788 133.502 141.229 132.972C140.645 132.412 140.368 131.795 140.396 131.119C140.424 130.444 140.754 129.86 141.384 129.366C142.468 128.494 143.685 127.869 145.035 127.491C146.414 127.089 147.84 126.978 149.311 127.158C151.157 127.384 152.764 128.014 154.131 129.05C155.528 130.063 156.581 131.332 157.29 132.858C158 134.384 158.245 136.043 158.026 137.835C157.863 139.173 157.517 140.339 156.988 141.334C156.462 142.301 155.779 143.114 154.939 143.771C154.128 144.405 153.2 144.889 152.154 145.223C151.139 145.534 150.045 145.712 148.871 145.759C148.814 145.779 148.758 145.799 148.701 145.82C148.671 145.843 148.653 145.882 148.646 145.935L148.465 147.42C148.38 148.115 148.08 148.676 147.567 149.102C147.056 149.502 146.453 149.659 145.758 149.574C145.062 149.489 144.515 149.191 144.115 148.681C143.719 148.143 143.564 147.527 143.649 146.831L144.022 143.781ZM144.679 156.733C143.903 156.638 143.326 156.364 142.947 155.91C142.598 155.433 142.471 154.806 142.565 154.031L142.649 153.348C142.744 152.572 143.016 152.008 143.467 151.656C143.947 151.28 144.575 151.14 145.351 151.235L145.873 151.298C146.649 151.393 147.211 151.679 147.56 152.156C147.939 152.61 148.081 153.225 147.986 154.001L147.903 154.683C147.808 155.459 147.521 156.034 147.04 156.41C146.59 156.762 145.977 156.891 145.201 156.796L144.679 156.733Z" fill="#FFCA20"/>
</g>
<defs>
<clipPath id="clip0_1516_1162">
<rect width="271" height="202" fill="white"/>
</clipPath>
</defs>
</svg>
