<svg width="244" height="45" viewBox="0 0 244 45" fill="none" xmlns="http://www.w3.org/2000/svg">
<path d="M144.285 44.6024C140.02 44.6024 136.344 43.6884 133.257 41.8604C130.169 39.9918 127.793 37.4124 126.127 34.122C124.462 30.7911 123.629 26.9727 123.629 22.6668C123.629 18.2797 124.462 14.4409 126.127 11.1506C127.793 7.81963 130.169 5.21986 133.257 3.35127C136.344 1.44206 140.02 0.48746 144.285 0.48746C149.566 0.48746 153.872 1.80766 157.203 4.44805C160.574 7.08845 162.666 10.8053 163.479 15.5986H153.486C152.999 13.4457 151.963 11.7802 150.378 10.6022C148.794 9.38356 146.743 8.77424 144.224 8.77424C141.828 8.77424 139.776 9.34294 138.07 10.4803C136.405 11.6177 135.125 13.2223 134.231 15.294C133.378 17.3251 132.952 19.7827 132.952 22.6668C132.952 25.4697 133.378 27.9069 134.231 29.9786C135.125 32.0097 136.405 33.594 138.07 34.7314C139.776 35.8281 141.828 36.3765 144.224 36.3765C146.743 36.3765 148.774 35.8484 150.318 34.7923C151.902 33.6955 152.958 32.1316 153.486 30.1005H163.479C162.666 34.6095 160.574 38.1639 157.203 40.7636C153.872 43.3228 149.566 44.6024 144.285 44.6024ZM180.67 44.6024C178.111 44.6024 175.979 44.1962 174.272 43.3837C172.607 42.5713 171.368 41.4745 170.556 40.0934C169.784 38.6716 169.398 37.1077 169.398 35.4016C169.398 33.5736 169.845 31.9691 170.738 30.588C171.673 29.1662 173.115 28.0491 175.065 27.2367C177.014 26.3836 179.472 25.9571 182.437 25.9571H189.871C189.871 24.576 189.688 23.4386 189.323 22.5449C188.998 21.6512 188.449 20.981 187.678 20.5342C186.906 20.0873 185.85 19.8639 184.509 19.8639C183.087 19.8639 181.889 20.1482 180.914 20.7169C179.939 21.2856 179.33 22.1793 179.086 23.398H170.312C170.515 21.2044 171.226 19.2952 172.444 17.6703C173.704 16.0455 175.369 14.7659 177.441 13.8316C179.513 12.8973 181.889 12.4302 184.57 12.4302C187.495 12.4302 190.034 12.9176 192.187 13.8925C194.339 14.8268 196.005 16.208 197.183 18.0359C198.402 19.8639 199.011 22.1387 199.011 24.8603V43.8712H191.394L190.298 39.4231C189.851 40.1949 189.323 40.9058 188.713 41.5558C188.104 42.1651 187.393 42.7135 186.581 43.2009C185.768 43.6478 184.875 43.993 183.9 44.2368C182.925 44.4805 181.848 44.6024 180.67 44.6024ZM182.925 37.6561C183.9 37.6561 184.753 37.4936 185.484 37.1686C186.215 36.8437 186.845 36.3968 187.373 35.8281C187.901 35.2594 188.327 34.6095 188.652 33.8783C189.018 33.1065 189.282 32.2738 189.445 31.3801V31.3191H183.534C182.519 31.3191 181.666 31.4613 180.975 31.7457C180.325 31.9894 179.838 32.355 179.513 32.8425C179.188 33.3299 179.025 33.8986 179.025 34.5486C179.025 35.2391 179.188 35.8281 179.513 36.3156C179.878 36.7624 180.345 37.1077 180.914 37.3514C181.523 37.5545 182.194 37.6561 182.925 37.6561ZM225.313 44.6024C223.81 44.6024 222.449 44.4196 221.23 44.054C220.052 43.6884 218.996 43.1806 218.062 42.5307C217.168 41.8401 216.396 41.0683 215.746 40.2153L214.71 43.8712H206.607V1.49206e-06H215.746V17.1829C216.721 15.8018 217.981 14.6643 219.524 13.7707C221.068 12.877 222.977 12.4302 225.252 12.4302C228.055 12.4302 230.553 13.141 232.746 14.5628C234.981 15.9439 236.748 17.8531 238.048 20.2904C239.347 22.6871 239.997 25.4493 239.997 28.5772C239.997 31.6238 239.347 34.3658 238.048 36.803C236.748 39.2403 235.001 41.1495 232.807 42.5307C230.614 43.9118 228.116 44.6024 225.313 44.6024ZM223.058 36.6203C224.521 36.6203 225.82 36.275 226.958 35.5844C228.136 34.8938 229.05 33.9595 229.7 32.7815C230.35 31.5629 230.675 30.1614 230.675 28.5772C230.675 26.993 230.35 25.5915 229.7 24.3729C229.05 23.1136 228.136 22.1387 226.958 21.4481C225.82 20.7576 224.521 20.4123 223.058 20.4123C221.555 20.4123 220.215 20.7779 219.037 21.5091C217.899 22.1996 217.006 23.1542 216.356 24.3729C215.706 25.5509 215.381 26.9523 215.381 28.5772C215.381 30.1208 215.706 31.5019 216.356 32.7206C217.006 33.9392 217.899 34.8938 219.037 35.5844C220.215 36.275 221.555 36.6203 223.058 36.6203Z" fill="#FFCA20"/>
<g clip-path="url(#clip0_1915_5772)">
<path d="M62.6681 27.2445C61.4724 27.2445 60.4665 27.2445 59.4605 27.2445C56.9715 27.2445 54.4767 27.2502 51.9877 27.2445C50.5046 27.2388 50.0505 26.6179 50.6139 25.2613C51.4301 23.3012 52.3441 21.3927 53.2926 19.49C53.8042 18.4668 54.5515 18.1162 55.6609 18.1219C61.2253 18.1564 66.7954 18.1162 72.3598 18.1564C73.2392 18.1622 73.6129 17.8747 73.952 17.0527C77.6655 8.1026 84.1955 2.57846 93.847 0.968931C97.9628 0.279133 102.038 0.319371 106.045 1.74495C113.213 4.29721 118.013 10.9365 118.628 18.3346C119.709 31.2741 109.816 40.6496 100.406 43.3053C95.0311 44.8229 89.7139 44.9033 84.5117 42.6845C79.3842 40.5001 75.6708 36.8729 73.7049 31.5787C73.6071 31.3201 73.5094 31.0671 73.3829 30.728C72.9748 31.0154 72.8771 31.4465 72.6702 31.7914C68.4107 38.7067 62.4496 43.1329 54.2698 44.1158C45.8887 45.1275 39.0137 42.3683 34.2771 35.2404C31.2535 30.6877 30.7592 25.5258 31.8456 20.243C33.8747 10.3502 42.7099 2.02087 52.7292 0.382603C57.4371 -0.387672 61.984 -0.117501 66.278 2.16458C70.1352 4.21673 72.9518 7.24035 74.7108 11.2469C75.0097 11.9252 74.866 12.3046 74.1705 12.4886C70.8077 13.3681 67.4449 14.2418 64.0879 15.127C63.4096 15.3052 63.0417 14.8741 62.6911 14.4487C61.2712 12.7357 59.4433 11.7585 57.2877 11.3504C54.0916 10.7468 51.3496 11.839 48.8376 13.69C44.9748 16.5354 43.4227 20.4442 43.8481 25.1349C44.3252 30.3543 49.3032 33.9068 54.6894 33.0101C58.2074 32.4352 60.6619 30.3658 62.6681 27.2445ZM84.7646 23.784C84.7704 28.8885 88.8344 33.0905 93.9332 33.263C99.7505 33.4584 105.154 29.2334 106.568 23.4966C108.201 16.8688 103.24 10.4767 95.9854 11.3446C89.8346 12.0804 84.7589 17.5816 84.7646 23.784Z" fill="white"/>
<path d="M14.8938 16.6389C19.0728 16.6389 23.2519 16.6331 27.4309 16.6503C27.8045 16.6503 28.3564 16.3917 28.4943 17.0355C28.615 17.5988 27.9827 18.645 27.4999 18.7312C27.2929 18.7715 27.0687 18.76 26.8561 18.76C19.7914 18.806 12.7267 18.8577 5.662 18.8979C3.96624 18.9094 2.27624 18.8635 0.586231 18.8635C-0.126561 18.8635 -0.115064 18.6105 0.21259 18.0932C0.867899 17.0585 1.66692 16.5641 2.99478 16.5986C6.96112 16.7078 10.9275 16.6389 14.8938 16.6389Z" fill="#FFCA20"/>
<path d="M19.4924 13.5692C16.2332 13.5692 12.9796 13.575 9.72031 13.5635C9.3984 13.5635 8.97302 13.6957 8.79483 13.3393C8.61663 12.9772 9.042 12.7587 9.19146 12.4771C9.69156 11.5228 10.4733 11.2642 11.5425 11.2699C17.7794 11.3159 24.0164 11.2929 30.2533 11.2987C30.6097 11.2987 31.0753 11.1377 31.288 11.4826C31.5467 11.8965 31.0811 12.1954 30.9201 12.5403C30.5292 13.3623 29.9027 13.621 28.9887 13.6095C25.8271 13.5578 22.6598 13.5922 19.4982 13.5922C19.4924 13.5807 19.4924 13.575 19.4924 13.5692Z" fill="#FFCA20"/>
<path d="M21.1422 21.8526C22.861 21.8526 24.5797 21.8526 26.2985 21.8526C26.8675 21.8526 27.4136 21.9388 27.3274 22.6803C27.2469 23.3241 27.4424 24.2726 26.3674 24.2554C22.4701 24.1921 18.5785 24.3876 14.6811 24.1462C13.8246 24.0944 13.9108 23.7668 14.1983 23.1574C14.6581 22.1802 15.3364 21.7664 16.4458 21.8296C18.0094 21.9158 19.5787 21.8526 21.1422 21.8526Z" fill="#FFCA20"/>
</g>
<defs>
<clipPath id="clip0_1915_5772">
<rect width="118.697" height="44.4" fill="white" transform="translate(0 0.00893474)"/>
</clipPath>
</defs>
</svg>
