<svg width="271" height="202" viewBox="0 0 271 202" fill="none" xmlns="http://www.w3.org/2000/svg">
<g clip-path="url(#clip0_1516_603)">
<path d="M270.491 177.564H0.234375V177.699H270.491V177.564Z" fill="#EBEBEB"/>
<path d="M232.499 181.244H179.746V181.379H232.499V181.244Z" fill="#EBEBEB"/>
<path d="M181.665 184.367H156.441V184.502H181.665V184.367Z" fill="#EBEBEB"/>
<path d="M243.413 186.264H233.039V186.399H243.413V186.264Z" fill="#EBEBEB"/>
<path d="M118.606 184.436H68.5938V184.571H118.606V184.436Z" fill="#EBEBEB"/>
<path d="M63.7851 184.436H53.0273V184.571H63.7851V184.436Z" fill="#EBEBEB"/>
<path d="M49.235 182.152H31.4727V182.287H49.235V182.152Z" fill="#EBEBEB"/>
<path d="M128.344 153.457H23.9719C22.2709 153.457 20.8867 152.073 20.8867 150.372V3.65946C20.8867 1.95847 22.2709 0.574219 23.9719 0.574219H128.344C130.045 0.574219 131.429 1.95847 131.429 3.65946V150.372C131.429 152.073 130.045 153.457 128.344 153.457ZM23.9719 0.709888C22.345 0.709888 21.0218 2.03306 21.0218 3.66V150.372C21.0218 151.999 22.345 153.323 23.9719 153.323H128.344C129.971 153.323 131.294 151.999 131.294 150.372V3.65946C131.294 2.03306 129.971 0.709347 128.344 0.709347L23.9719 0.709888Z" fill="#EBEBEB"/>
<path d="M245.257 153.457H140.886C139.185 153.457 137.801 152.073 137.801 150.372V3.65946C137.801 1.95847 139.185 0.574219 140.886 0.574219H245.257C246.959 0.574219 248.343 1.95847 248.343 3.65946V150.372C248.343 152.073 246.959 153.457 245.257 153.457ZM140.886 0.709888C139.259 0.709888 137.936 2.03306 137.936 3.66V150.372C137.936 151.999 139.259 153.323 140.886 153.323H245.257C246.884 153.323 248.208 151.999 248.208 150.372V3.65946C248.208 2.03306 246.884 0.709347 245.257 0.709347L140.886 0.709888Z" fill="#EBEBEB"/>
<path d="M211.616 172.591H48.3602L38.625 61.8477H201.881L211.616 172.591Z" fill="#F0F0F0"/>
<path d="M45.4726 176.118L48.3573 172.591L38.6221 61.8477L35.7422 65.4297L45.4726 176.118Z" fill="#E0E0E0"/>
<path d="M50.5179 168.385L41.5502 66.3729C41.4556 65.2979 42.3026 64.373 43.382 64.373H197.892C198.845 64.373 199.64 65.1011 199.724 66.0508L208.692 168.063C208.786 169.138 207.94 170.063 206.86 170.063H52.3497C51.3967 170.063 50.6016 169.334 50.5179 168.385Z" fill="#FAFAFA"/>
<path d="M71.3052 172.59H46.7081L44.9688 177.564H69.5659L71.3052 172.59Z" fill="#E0E0E0"/>
<path d="M71.3058 172.59H233.04L231.3 177.564H69.5664L71.3058 172.59Z" fill="#F5F5F5"/>
<path d="M137.904 172.59H168.907L168.573 175.847H137.57L137.904 172.59Z" fill="#E0E0E0"/>
<path d="M184.883 54.5781H224.054C227.299 76.0667 212.288 93.749 190.8 93.749C183.924 93.749 176.895 91.9388 170.422 88.5012L184.883 54.5781Z" fill="#E0E0E0"/>
<path d="M184.883 54.5788L205.529 24.5723C210.466 28.2488 214.683 32.841 217.883 38.0245C221.083 43.2081 223.189 48.8591 224.053 54.5788H184.883Z" fill="#EBEBEB"/>
<path d="M184.886 54.5791L178.969 15.4082C183.538 15.4082 188.193 16.2076 192.723 17.7702C197.253 19.3328 201.588 21.6349 205.531 24.572L184.886 54.5791Z" fill="#E6E6E6"/>
<path d="M184.886 54.5791L170.424 88.5017C157.265 81.5134 147.826 68.5557 145.715 54.5791C142.469 33.0905 157.48 15.4082 178.969 15.4082L184.886 54.5791Z" fill="#F0F0F0"/>
<path d="M136.527 124.48H171.274C171.733 127.517 171.791 130.54 171.449 133.473C171.106 136.406 170.364 139.224 169.243 141.853L136.527 124.48Z" fill="#EBEBEB"/>
<path d="M136.527 124.48L137.392 90.2617C145.65 91.68 153.576 95.8895 159.771 102.146C165.966 108.402 170.04 116.314 171.274 124.481L136.527 124.48Z" fill="#E0E0E0"/>
<path d="M136.529 124.481L105.673 136.365C103.711 132.557 102.395 128.535 101.782 124.481C98.9031 105.42 112.219 89.7344 131.281 89.7344C133.303 89.7344 135.349 89.9111 137.394 90.2625L136.529 124.481Z" fill="#F0F0F0"/>
<path d="M136.528 124.48L169.244 141.854C164.666 152.591 154.175 159.227 141.776 159.227C127.203 159.227 112.724 150.059 105.672 136.364L136.528 124.48Z" fill="white"/>
<path d="M135.362 201.975C193.241 201.975 240.161 199.235 240.161 195.855C240.161 192.475 193.241 189.734 135.362 189.734C77.4828 189.734 30.5625 192.475 30.5625 195.855C30.5625 199.235 77.4828 201.975 135.362 201.975Z" fill="#F5F5F5"/>
<path d="M130.276 100.263H81.5898C78.5002 100.263 75.7663 97.7358 75.5144 94.6462L73.0772 64.7094C72.8259 61.6198 75.1479 59.0918 78.2375 59.0918H126.924C130.014 59.0918 132.748 61.6198 132.999 64.7094L135.436 94.6462C135.689 97.7358 133.366 100.263 130.276 100.263Z" fill="white"/>
<path d="M130.276 100.497H81.5893C78.3727 100.497 75.5426 97.8814 75.281 94.6653L72.8438 64.7285C72.7168 63.1642 73.2119 61.6903 74.2383 60.5763C75.2604 59.4677 76.6809 58.8574 78.2376 58.8574H126.924C130.141 58.8574 132.97 61.4741 133.233 64.6901L135.67 94.6269C135.797 96.1906 135.302 97.6646 134.275 98.7786C133.253 99.8872 131.833 100.497 130.276 100.497ZM78.2376 59.3261C76.8128 59.3261 75.5145 59.8833 74.5826 60.8941C73.6459 61.9108 73.194 63.2588 73.3102 64.6906L75.7474 94.6275C75.9901 97.6063 78.6105 100.03 81.5893 100.03H130.276C131.701 100.03 132.999 99.4726 133.931 98.4619C134.868 97.4452 135.32 96.0971 135.203 94.6659L132.766 64.729C132.523 61.7497 129.903 59.3261 126.924 59.3261H78.2376Z" fill="#FFCA20"/>
<path d="M117.064 91.5245C115.155 93.6033 112.687 95.0962 109.907 95.8594L109.102 93.5514C115.096 91.9131 119.154 86.3231 118.613 79.6802C118.29 75.715 116.392 72.1244 113.582 69.5261L115.135 67.8359C122.163 74.3345 123.033 85.027 117.064 91.5245Z" fill="#E0E0E0"/>
<path d="M115.133 67.8359L113.581 69.5261C110.771 66.9279 107.05 65.322 103.085 65.322C99.1195 65.322 95.6602 66.9322 93.2782 69.5304L91.4453 67.8359C94.3311 64.6945 98.452 62.9297 102.89 62.9297C107.333 62.9297 111.737 64.6945 115.133 67.8359Z" fill="#263238"/>
<path d="M109.907 95.8588C104.26 97.4036 97.9461 95.7464 93.375 91.5239C86.3526 85.0259 85.4824 74.334 91.4464 67.8359L93.2793 69.5304C90.8924 72.1287 89.579 75.7144 89.9016 79.6796C90.547 87.6052 97.4975 94.033 105.424 94.033C106.706 94.033 107.942 93.8643 109.101 93.5508L109.907 95.8588Z" fill="#FFCA20"/>
<path d="M63.9543 10.7012H60.0508V11.1688H63.9543V10.7012Z" fill="#FFCA20"/>
<path d="M56.2671 10.7012H47.3789V11.1688H56.2671V10.7012Z" fill="#FFCA20"/>
<path d="M97.6045 53.7306H48.9179C45.8283 53.7306 43.0944 51.2026 42.8425 48.113L40.4053 18.1762C40.154 15.0866 42.476 12.5586 45.5656 12.5586H94.2523C97.3419 12.5586 100.076 15.0866 100.327 18.1762L102.764 48.113C103.016 51.2026 100.694 53.7306 97.6045 53.7306Z" fill="white"/>
<path d="M97.6082 53.9648H48.9209C45.7043 53.9648 42.8742 51.3482 42.6126 48.1321L40.176 18.1953C40.0484 16.6316 40.5435 15.1571 41.5705 14.0436C42.5926 12.9345 44.0131 12.3242 45.5697 12.3242H94.2564C97.473 12.3242 100.303 14.9408 100.565 18.1569L103.002 48.0938C103.129 49.658 102.634 51.132 101.607 52.246C100.585 53.3546 99.1648 53.9648 97.6082 53.9648ZM45.5692 12.7923C44.1444 12.7923 42.8466 13.3496 41.9143 14.3609C40.9776 15.377 40.5257 16.7251 40.6424 18.1569L43.0796 48.0938C43.3223 51.0731 45.9427 53.4967 48.9215 53.4967H97.6087C99.0329 53.4967 100.331 52.94 101.264 51.9287C102.2 50.912 102.652 49.5639 102.535 48.1316L100.098 18.1947C99.8556 15.2154 97.2347 12.7918 94.2564 12.7918L45.5692 12.7923Z" fill="#FFCA20"/>
<path d="M44.8092 21.1481H70.609L70.4014 18.5996H44.6016L44.8092 21.1481Z" fill="#E0E0E0"/>
<path d="M96.4097 21.1481H70.6099L70.4023 18.5996H96.2021L96.4097 21.1481Z" fill="#FFCA20"/>
<path d="M45.352 27.7834H52.7122L52.5046 25.2344H45.1445L45.352 27.7834Z" fill="#E0E0E0"/>
<path d="M96.9508 27.7834H52.7115L52.5039 25.2344H96.7433L96.9508 27.7834Z" fill="#FFCA20"/>
<path d="M45.8912 34.4176H68.8565L68.6489 31.8691H45.6836L45.8912 34.4176Z" fill="#E0E0E0"/>
<path d="M97.4907 34.4176H68.856L68.6484 31.8691H97.2832L97.4907 34.4176Z" fill="#FFCA20"/>
<path d="M46.4302 41.053H85.6239L85.4163 38.5039H46.2227L46.4302 41.053Z" fill="#E0E0E0"/>
<path d="M98.0275 41.053H85.6217L85.4141 38.5039H97.82L98.0275 41.053Z" fill="#FFCA20"/>
<path d="M46.9692 47.6891H65.097L64.8894 45.1406H46.7617L46.9692 47.6891Z" fill="#E0E0E0"/>
<path d="M98.57 47.6891H65.0982L64.8906 45.1406H98.3624L98.57 47.6891Z" fill="#FFCA20"/>
<path d="M164.163 53.7306H115.476C112.386 53.7306 109.652 51.2026 109.401 48.113L106.964 18.1762C106.713 15.0866 109.035 12.5586 112.124 12.5586H160.811C163.9 12.5586 166.634 15.0866 166.886 18.1762L169.323 48.113C169.575 51.2026 167.252 53.7306 164.163 53.7306Z" fill="white"/>
<path d="M164.163 53.9648H115.476C112.259 53.9648 109.429 51.3482 109.168 48.1321L106.73 18.1953C106.603 16.6316 107.099 15.1571 108.125 14.0431C109.147 12.9345 110.567 12.3242 112.124 12.3242H160.811C164.028 12.3242 166.857 14.9408 167.119 18.1569L169.556 48.0938C169.684 49.6575 169.189 51.132 168.162 52.2454C167.14 53.3546 165.72 53.9648 164.163 53.9648ZM112.124 12.7923C110.699 12.7923 109.401 13.349 108.469 14.3603C107.532 15.377 107.08 16.7251 107.196 18.1569L109.634 48.0938C109.876 51.0731 112.497 53.4967 115.475 53.4967H164.162C165.587 53.4967 166.885 52.9394 167.817 51.9281C168.754 50.912 169.206 49.5639 169.089 48.1321L166.652 18.1953C166.409 15.216 163.789 12.7923 160.81 12.7923H112.124Z" fill="#FFCA20"/>
<path d="M139.755 47.6884H138.896L136.527 18.5996H137.387L139.755 47.6884Z" fill="#E0E0E0"/>
<path d="M141.055 35.6017H135.632L134.707 24.2363H140.129L141.055 35.6017Z" fill="#FFCA20"/>
<path d="M129.083 47.6884H128.223L125.855 18.5996H126.715L129.083 47.6884Z" fill="#E0E0E0"/>
<path d="M130.588 38.1243H125.166L124.355 28.1621H129.777L130.588 38.1243Z" fill="#FFCA20"/>
<path d="M118.415 47.6884H117.556L115.188 18.5996H116.046L118.415 47.6884Z" fill="#E0E0E0"/>
<path d="M119.249 29.9295H113.826L113.27 23.0898H118.692L119.249 29.9295Z" fill="#263238"/>
<path d="M150.427 47.6884H149.567L147.199 18.5996H148.059L150.427 47.6884Z" fill="#E0E0E0"/>
<path d="M152.252 42.0532H146.829L145.379 24.2363H150.801L152.252 42.0532Z" fill="#263238"/>
<path d="M161.098 47.6884H160.239L157.871 18.5996H158.731L161.098 47.6884Z" fill="#E0E0E0"/>
<path d="M163.096 44.187H157.673L156.512 29.918H161.934L163.096 44.187Z" fill="#FFCA20"/>
<path d="M112.061 146.415H63.3743C60.2848 146.415 57.5509 143.887 57.2995 140.798L54.8624 110.861C54.611 107.771 56.9331 105.244 60.0226 105.244H108.709C111.799 105.244 114.533 107.771 114.784 110.861L117.221 140.798C117.473 143.887 115.151 146.415 112.061 146.415Z" fill="white"/>
<path d="M112.061 146.65H63.3744C60.1578 146.65 57.3277 144.034 57.0661 140.818L54.6289 110.881C54.5019 109.317 54.997 107.843 56.0234 106.729C57.0456 105.62 58.466 105.01 60.0227 105.01H108.709C111.926 105.01 114.756 107.627 115.018 110.843L117.455 140.779C117.582 142.343 117.087 143.817 116.061 144.931C115.039 146.04 113.618 146.65 112.061 146.65ZM60.0227 105.478C58.5979 105.478 57.2996 106.035 56.3678 107.046C55.431 108.063 54.9792 109.411 55.0954 110.843L57.5326 140.779C57.7752 143.758 60.3962 146.182 63.3744 146.182H112.061C113.486 146.182 114.784 145.625 115.716 144.613C116.653 143.597 117.105 142.249 116.988 140.818L114.551 110.881C114.308 107.902 111.688 105.478 108.709 105.478H60.0227Z" fill="#FFCA20"/>
<path d="M66.6094 125.116L77.1029 137.24L89.1364 118.678L96.5781 128.27L98.3937 125.469L110.557 140.048L63.8398 140.03L66.6094 125.116Z" fill="#FFCA20"/>
<path d="M101.643 125.868L96.7659 136.311L81.2105 111.613L73.8853 127.298L71.5384 123.571L63.8438 140.047L110.559 140.024L101.643 125.868Z" fill="#E0E0E0"/>
<path d="M201.784 56.8465C203.086 59.2902 204.205 61.7052 205.259 64.2207C206.286 66.7373 207.235 69.294 207.977 71.9955C208.167 72.6657 208.331 73.357 208.488 74.0516C208.55 74.2872 208.703 75.0396 208.702 75.5174C208.727 76.0482 208.685 76.5266 208.62 76.9838C208.327 78.781 207.697 80.1583 207.012 81.4598C205.612 84.0365 203.923 86.1715 201.959 88.1881C201.37 88.793 200.402 88.8059 199.797 88.2168C199.303 87.7357 199.204 87.0023 199.505 86.4201L199.544 86.3472C200.703 84.11 201.85 81.7495 202.625 79.5097C202.998 78.4 203.294 77.2644 203.293 76.4282C203.286 76.2287 203.28 76.045 203.25 75.9174C203.238 75.8509 203.225 75.7909 203.204 75.758L203.104 75.4401C202.924 74.858 202.739 74.2753 202.523 73.6883C201.704 71.3414 200.692 68.9848 199.641 66.6471C198.593 64.3164 197.467 61.9462 196.353 59.6934L196.33 59.6474C195.58 58.1297 196.202 56.2909 197.72 55.5401C199.208 54.8039 201.007 55.3925 201.784 56.8465Z" fill="#FFCA20"/>
<path d="M200.091 86.1176L197.512 86.93L200.548 90.485C200.548 90.485 201.72 89.4537 202.142 87.9608C202.284 87.457 202.076 86.9181 201.651 86.6116L201.221 86.3003C200.895 86.0641 200.475 85.9965 200.091 86.1176Z" fill="#7F3E3B"/>
<path d="M193.957 89.1209L197.21 91.7024L200.547 90.4841L197.511 86.9297L193.957 89.1209Z" fill="#7F3E3B"/>
<path d="M182.849 38.7686C182.784 39.0886 182.562 39.3129 182.353 39.2708C182.144 39.2281 182.027 38.9346 182.092 38.6146C182.157 38.2946 182.379 38.0703 182.589 38.1125C182.798 38.1557 182.915 38.4492 182.849 38.7686Z" fill="#263238"/>
<path d="M182.591 39.3184C182.591 39.3184 181.489 41.0156 180.508 41.7431C180.966 42.3863 181.977 42.3404 181.977 42.3404L182.591 39.3184Z" fill="#630F0F"/>
<path d="M184.38 37.2308C184.426 37.2308 184.473 37.214 184.51 37.18C184.588 37.1081 184.593 36.987 184.52 36.9092C183.801 36.1303 182.927 36.2687 182.89 36.2752C182.786 36.293 182.715 36.3919 182.733 36.4962C182.751 36.6005 182.851 36.6697 182.954 36.653C182.982 36.6486 183.665 36.5481 184.239 37.1692C184.277 37.2102 184.328 37.2308 184.38 37.2308Z" fill="#263238"/>
<path d="M191.728 44.5879C191.147 47.5478 190.798 51.6481 192.868 53.6231C192.868 53.6231 192.059 56.6251 186.559 56.6251C180.512 56.6251 183.65 53.9901 183.65 53.9901C186.163 53.2102 186.142 50.3466 185.567 48.0472L191.728 44.5879Z" fill="#7F3E3B"/>
<path d="M182.594 53.5278C182.594 53.5278 183.475 51.4382 184.376 51.0782C185.277 50.7177 191.013 49.775 192.334 50.6069C193.655 51.4387 194.547 54.1116 194.547 54.1116L182.594 53.5278Z" fill="#FFCA20"/>
<path d="M188.652 191.93C188.133 191.93 187.632 191.859 187.463 191.625C187.405 191.544 187.359 191.405 187.472 191.207C187.535 191.095 187.637 191.02 187.775 190.982C188.449 190.799 189.862 191.605 189.922 191.64C189.957 191.66 189.976 191.699 189.969 191.738C189.963 191.777 189.933 191.809 189.894 191.816C189.635 191.868 189.136 191.93 188.652 191.93ZM188.01 191.145C187.943 191.145 187.881 191.152 187.825 191.168C187.736 191.191 187.675 191.236 187.638 191.302C187.57 191.421 187.594 191.48 187.619 191.514C187.807 191.775 188.83 191.781 189.582 191.675C189.207 191.482 188.483 191.145 188.01 191.145Z" fill="#FFCA20"/>
<path d="M189.874 191.818C189.861 191.818 189.848 191.816 189.835 191.81C189.346 191.591 188.379 190.716 188.453 190.258C188.471 190.151 188.547 190.017 188.81 189.99C189.007 189.97 189.185 190.026 189.341 190.155C189.856 190.577 189.965 191.667 189.969 191.714C189.973 191.748 189.957 191.781 189.93 191.801C189.914 191.812 189.894 191.818 189.874 191.818ZM188.887 190.178C188.868 190.178 188.849 190.18 188.83 190.181C188.658 190.198 188.647 190.267 188.643 190.289C188.599 190.563 189.256 191.251 189.754 191.55C189.702 191.232 189.558 190.58 189.22 190.303C189.119 190.219 189.009 190.178 188.887 190.178Z" fill="#FFCA20"/>
<path d="M194.324 191.724H190.278L189.875 182.354H193.921L194.324 191.724Z" fill="#7F3E3B"/>
<path d="M190.305 191.256H194.723C194.888 191.256 195.031 191.371 195.067 191.532L195.866 195.128C195.949 195.501 195.666 195.854 195.284 195.848C193.69 195.821 191.388 195.727 189.385 195.727C187.043 195.727 186.759 195.855 184.012 195.855C182.351 195.855 181.89 194.175 182.586 194.024C185.751 193.331 186.596 193.257 189.331 191.571C189.627 191.388 189.955 191.256 190.305 191.256Z" fill="#263238"/>
<path d="M200.111 53.6382C203.903 54.5074 206.405 64.7404 206.405 64.7404L200.074 69.4964C200.074 69.4964 196.62 67.3565 195.376 62.5145C194.073 57.4408 196.235 52.7496 200.111 53.6382Z" fill="#263238"/>
<path opacity="0.2" d="M196.865 60.7559C198.924 62.7936 200.256 66.0102 200.415 69.2371L200.079 69.496C200.079 69.496 196.623 67.3528 195.378 62.5125C195.301 62.2098 195.235 61.9066 195.18 61.6093L196.865 60.7559Z" fill="black"/>
<path d="M213.742 68.8652L183.027 81.1399L192.156 103.983L222.871 91.7081L213.742 68.8652Z" fill="#FFCA20"/>
<path opacity="0.5" d="M213.295 69.0449L183.031 81.1394L192.16 103.982L222.424 91.8878L213.295 69.0449Z" fill="white"/>
<g opacity="0.5">
<path d="M188.572 81.2695L185.707 82.4146L186.519 84.4454L189.384 83.3003L188.572 81.2695Z" fill="#FFCA20"/>
<path d="M193.303 79.3789L190.438 80.524L191.249 82.5548L194.115 81.4097L193.303 79.3789Z" fill="#FFCA20"/>
<path d="M198.033 77.4863L195.168 78.6315L195.979 80.6622L198.845 79.5171L198.033 77.4863Z" fill="#FFCA20"/>
<path d="M202.764 75.5957L199.898 76.7408L200.71 78.7716L203.575 77.6265L202.764 75.5957Z" fill="#FFCA20"/>
<path d="M207.498 73.7051L204.633 74.8503L205.444 76.881L208.31 75.7359L207.498 73.7051Z" fill="#FFCA20"/>
<path d="M212.229 71.8184L209.363 72.9635L210.175 74.9943L213.04 73.8492L212.229 71.8184Z" fill="#FFCA20"/>
<path d="M189.912 84.6211L187.047 85.7662L187.859 87.7975L190.724 86.6523L189.912 84.6211Z" fill="#FFCA20"/>
<path d="M194.643 82.7324L191.777 83.8775L192.589 85.9088L195.455 84.7637L194.643 82.7324Z" fill="#FFCA20"/>
<path d="M199.373 80.8398L196.508 81.9849L197.32 84.0162L200.185 82.871L199.373 80.8398Z" fill="#FFCA20"/>
<path d="M204.108 78.9492L201.242 80.0943L202.054 82.1251L204.919 80.98L204.108 78.9492Z" fill="#FFCA20"/>
<path d="M208.838 77.0586L205.973 78.2037L206.784 80.235L209.65 79.0898L208.838 77.0586Z" fill="#FFCA20"/>
<path d="M213.569 75.168L210.703 76.3132L211.515 78.3439L214.38 77.1988L213.569 75.168Z" fill="#FFCA20"/>
<path d="M191.252 87.9766L188.387 89.1217L189.198 91.1525L192.064 90.0074L191.252 87.9766Z" fill="#FFCA20"/>
<path d="M195.983 86.084L193.117 87.2291L193.929 89.2599L196.794 88.1148L195.983 86.084Z" fill="#FFCA20"/>
<path d="M200.717 84.1953L197.852 85.3404L198.663 87.3712L201.529 86.2261L200.717 84.1953Z" fill="#FFCA20"/>
<path d="M205.447 82.3047L202.582 83.4498L203.394 85.4806L206.259 84.3354L205.447 82.3047Z" fill="#FFCA20"/>
<path d="M210.178 80.416L207.312 81.5612L208.124 83.5919L210.99 82.4468L210.178 80.416Z" fill="#FFCA20"/>
<path d="M214.908 78.5254L212.043 79.6705L212.855 81.7018L215.72 80.5567L214.908 78.5254Z" fill="#FFCA20"/>
<path d="M192.592 91.3301L189.727 92.4752L190.538 94.5065L193.404 93.3614L192.592 91.3301Z" fill="#FFCA20"/>
<path d="M197.326 89.4395L194.461 90.5846L195.273 92.6159L198.138 91.4707L197.326 89.4395Z" fill="#FFCA20"/>
<path d="M202.057 87.5469L199.191 88.692L200.003 90.7228L202.868 89.5776L202.057 87.5469Z" fill="#FFCA20"/>
<path d="M206.787 85.6582L203.922 86.8033L204.734 88.8346L207.599 87.6895L206.787 85.6582Z" fill="#FFCA20"/>
<path d="M211.518 83.7676L208.652 84.9127L209.464 86.9435L212.329 85.7983L211.518 83.7676Z" fill="#FFCA20"/>
<path d="M216.248 81.875L213.383 83.0202L214.194 85.0509L217.06 83.9058L216.248 81.875Z" fill="#FFCA20"/>
<path d="M193.932 94.6816L191.066 95.8267L191.878 97.8575L194.743 96.7124L193.932 94.6816Z" fill="#FFCA20"/>
<path d="M198.666 92.793L195.801 93.9382L196.612 95.9689L199.478 94.8238L198.666 92.793Z" fill="#FFCA20"/>
<path d="M203.397 90.9023L200.531 92.0474L201.343 94.0782L204.208 92.9331L203.397 90.9023Z" fill="#FFCA20"/>
<path d="M208.127 89.0137L205.262 90.1588L206.073 92.1896L208.939 91.0444L208.127 89.0137Z" fill="#FFCA20"/>
<path d="M212.858 87.123L209.992 88.2682L210.804 90.2994L213.669 89.1543L212.858 87.123Z" fill="#FFCA20"/>
<path d="M217.588 85.2285L214.723 86.3736L215.534 88.4049L218.4 87.2598L217.588 85.2285Z" fill="#FFCA20"/>
<path d="M195.272 98.0371L192.406 99.1822L193.218 101.213L196.083 100.068L195.272 98.0371Z" fill="#FFCA20"/>
<path d="M200.006 96.1465L197.141 97.2916L197.952 99.3229L200.818 98.1777L200.006 96.1465Z" fill="#FFCA20"/>
<path d="M204.733 94.2559L201.867 95.401L202.679 97.4323L205.544 96.2872L204.733 94.2559Z" fill="#FFCA20"/>
<path d="M209.467 92.3652L206.602 93.5103L207.413 95.5411L210.279 94.3959L209.467 92.3652Z" fill="#FFCA20"/>
<path d="M214.197 90.4727L211.332 91.6179L212.144 93.6486L215.009 92.5035L214.197 90.4727Z" fill="#FFCA20"/>
<path d="M218.928 88.584L216.062 89.7291L216.874 91.7599L219.74 90.6147L218.928 88.584Z" fill="#FFCA20"/>
</g>
<path d="M211.202 76.111C211.026 75.6716 211.24 75.1727 211.68 74.997C212.119 74.8213 212.618 75.0354 212.794 75.4748C212.969 75.9143 212.755 76.4132 212.316 76.5888C211.877 76.7645 211.378 76.551 211.202 76.111Z" fill="white"/>
<path d="M210.491 88.0622C210.315 87.6228 210.529 87.1238 210.969 86.9481C211.408 86.7724 211.907 86.9866 212.083 87.426C212.259 87.8654 212.045 88.3643 211.605 88.54C211.166 88.7157 210.667 88.5016 210.491 88.0622Z" fill="white"/>
<path d="M199.69 88.4899C199.515 88.0505 199.729 87.5516 200.168 87.3759C200.608 87.2002 201.106 87.4143 201.282 87.8537C201.458 88.2932 201.244 88.7921 200.804 88.9677C200.365 89.1439 199.866 88.9299 199.69 88.4899Z" fill="white"/>
<path d="M192.909 98.9801C192.733 98.5407 192.947 98.0418 193.387 97.8661C193.826 97.6905 194.325 97.9045 194.501 98.3439C194.677 98.7834 194.463 99.2823 194.023 99.4579C193.584 99.6336 193.085 99.4196 192.909 98.9801Z" fill="white"/>
<path d="M193.704 98.9786C193.646 98.9786 193.586 98.9623 193.532 98.9272C193.384 98.8321 193.342 98.6353 193.438 98.4878L200.22 87.9991C200.276 87.9126 200.371 87.858 200.474 87.8543L210.989 87.4375L211.682 75.7733C211.693 75.5987 211.847 75.4679 212.018 75.4749C212.193 75.4857 212.327 75.636 212.316 75.8111L211.606 87.7624C211.597 87.9256 211.465 88.0542 211.301 88.0607L200.664 88.4823L193.971 98.8326C193.911 98.9272 193.809 98.9786 193.704 98.9786Z" fill="white"/>
<path d="M176.152 57.694C175.325 62.0646 174.807 71.0404 177.208 88.8146H198.847C198.457 85.732 196.909 69.2891 200.113 53.6375C200.113 53.6375 196.404 52.8932 192.869 52.7229C190.105 52.5894 186.101 52.5013 183.671 52.7235C182.656 52.8159 181.66 52.9624 180.773 53.1197C178.433 53.5331 176.593 55.359 176.152 57.694Z" fill="#263238"/>
<path opacity="0.2" d="M179.555 64.4238L175.491 64.7481C175.345 70.0073 175.707 77.6826 177.21 88.8117H177.404C179.842 80.7959 183.074 69.3371 179.555 64.4238Z" fill="black"/>
<path opacity="0.2" d="M189.875 182.357L190.082 187.186H194.129L193.922 182.357H189.875Z" fill="black"/>
<path d="M193.655 40.2577C192.616 44.1359 192.204 46.459 189.811 48.0714C186.211 50.4972 181.729 47.713 181.589 43.6024C181.462 39.9026 183.183 34.1818 187.345 33.4002C191.446 32.63 194.694 36.3796 193.655 40.2577Z" fill="#7F3E3B"/>
<path d="M184.575 40.2841L182.473 40.8306L184.429 35.7573C184.217 35.3703 183.66 33.6072 184.249 31.844C184.404 31.3792 184.831 31.0646 185.321 31.0549C189.678 30.97 194.232 33.4164 196.528 35.2655C196.97 35.6217 197.078 36.2492 196.783 36.7335C196.28 37.5561 195.629 38.1858 194.809 39.0204C194.766 40.4409 192.447 46.8595 191.163 47.58C189.879 48.3005 187.424 48.008 186.771 46.8367C186.118 45.6665 183.91 44.1126 184.575 40.2841Z" fill="#263238"/>
<path d="M186.52 40.3643C186.284 41.3891 185.639 42.2821 184.953 42.822C183.922 43.6339 183.115 42.8847 183.158 41.6913C183.196 40.6173 183.778 38.9011 184.931 38.552C186.066 38.2077 186.79 39.1925 186.52 40.3643Z" fill="#7F3E3B"/>
<path d="M223.512 190.534C223.509 190.014 223.577 189.513 223.809 189.343C223.89 189.284 224.029 189.237 224.228 189.348C224.34 189.411 224.416 189.513 224.454 189.651C224.642 190.323 223.845 191.742 223.811 191.802C223.791 191.836 223.752 191.855 223.712 191.849C223.673 191.844 223.642 191.813 223.633 191.774C223.58 191.516 223.515 191.018 223.512 190.534ZM224.292 189.887C224.292 189.82 224.285 189.758 224.269 189.703C224.244 189.614 224.2 189.553 224.134 189.516C224.015 189.448 223.956 189.474 223.922 189.498C223.662 189.688 223.662 190.711 223.773 191.462C223.964 191.086 224.295 190.36 224.292 189.887Z" fill="#FFCA20"/>
<path d="M223.633 191.757C223.633 191.744 223.636 191.731 223.641 191.718C223.857 191.228 224.726 190.255 225.184 190.326C225.291 190.343 225.425 190.418 225.454 190.682C225.475 190.878 225.421 191.056 225.293 191.214C224.873 191.731 223.784 191.847 223.738 191.852C223.704 191.856 223.671 191.841 223.651 191.813C223.639 191.796 223.633 191.777 223.633 191.757ZM225.267 190.759C225.267 190.741 225.266 190.721 225.264 190.702C225.245 190.53 225.177 190.519 225.154 190.516C224.88 190.473 224.196 191.135 223.9 191.635C224.218 191.581 224.869 191.433 225.144 191.093C225.227 190.991 225.267 190.881 225.267 190.759Z" fill="#FFCA20"/>
<path d="M223.693 191.784L219.745 192.063L217.527 182.619L221.475 182.34L223.693 191.784Z" fill="#7F3E3B"/>
<path d="M223.679 190.876L219.278 190.486C219.113 190.471 218.961 190.573 218.911 190.731L217.798 194.243C217.683 194.606 217.933 194.984 218.314 195.011C219.904 195.124 222.206 195.234 224.201 195.411C226.534 195.617 225.023 195.612 227.759 195.854C229.414 196 230.021 194.369 229.342 194.156C226.25 193.187 225.691 192.518 224.622 191.275C224.394 191.011 224.027 190.907 223.679 190.876Z" fill="#263238"/>
<path opacity="0.2" d="M217.527 182.622L218.669 187.49L222.619 187.21L221.477 182.342L217.527 182.622Z" fill="black"/>
<path d="M184.887 88.8145C184.887 88.8145 194.193 119.89 197.724 131.425C201.59 144.058 216.302 185.965 216.302 185.965L223.436 184.397C223.436 184.397 213.358 148.391 209.18 130.774C205.969 117.243 198.85 88.8145 198.85 88.8145H184.887Z" fill="#FFCA20"/>
<path d="M215.048 183.759C215.016 183.763 215.75 186.546 215.75 186.546L224.33 185.624L224.291 183.074L215.048 183.759Z" fill="#263238"/>
<path opacity="0.3" d="M190.039 103.216C195.188 103.895 197.239 121.84 198.01 132.372C197.913 132.038 197.81 131.722 197.72 131.423C195.793 125.125 192.144 112.988 189.227 103.273C189.468 103.193 189.743 103.176 190.039 103.216Z" fill="black"/>
<path d="M177.207 88.8145C177.207 88.8145 180.328 119.079 181.673 131.4C183.071 144.216 188.321 186.251 188.321 186.251H195.175C195.175 186.251 194.344 144.983 194.068 132.38C193.767 118.64 191.431 88.8145 191.431 88.8145H177.207Z" fill="#FFCA20"/>
<path d="M187.256 183.521C187.224 183.521 187.642 186.367 187.642 186.367H195.979L196.204 183.827L187.256 183.521Z" fill="#263238"/>
<path d="M147.94 117.29C151.512 122.956 159.002 124.653 164.668 121.081C170.334 117.509 172.031 110.02 168.459 104.354C164.887 98.6882 157.398 96.9893 151.732 100.561C146.066 104.133 144.368 111.624 147.94 117.29ZM166.836 105.377C169.842 110.146 168.414 116.45 163.645 119.457C158.875 122.465 152.57 121.035 149.564 116.266C146.556 111.496 147.986 105.192 152.756 102.184C157.525 99.1779 163.829 100.607 166.836 105.377Z" fill="#263238"/>
<path opacity="0.2" d="M167.325 112.888C166.183 117.927 161.172 121.085 156.134 119.943C151.094 118.801 147.935 113.79 149.077 108.751C150.219 103.712 155.23 100.552 160.27 101.694C165.309 102.837 168.468 107.848 167.325 112.888Z" fill="#FFCA20"/>
<path d="M168.793 102.881L169.93 104.685C170.102 104.959 170.021 105.321 169.747 105.493C169.473 105.666 169.111 105.584 168.938 105.31L167.801 103.506C167.629 103.232 167.711 102.87 167.985 102.698C168.258 102.525 168.62 102.607 168.793 102.881Z" fill="#263238"/>
<path d="M176.149 97.7563C174.834 98.6536 173.531 99.5676 172.242 100.507C170.955 101.447 169.678 102.405 168.439 103.421C168.161 103.649 168.061 104.045 168.22 104.386C168.409 104.789 168.889 104.963 169.292 104.774C170.744 104.095 172.158 103.356 173.561 102.6C174.964 101.842 176.35 101.059 177.727 100.26C178.898 99.5789 180.06 98.8828 181.215 98.1774C181.548 97.9742 181.65 97.5363 181.442 97.2066L180.505 95.7213C180.297 95.3916 179.859 95.2948 179.532 95.5073C178.398 96.2451 177.269 96.9931 176.149 97.7563Z" fill="#263238"/>
<path d="M182.173 59.2081C181.512 62.4528 180.802 65.6861 180.064 68.9119L177.823 78.5628C177.098 81.7086 176.477 84.8998 175.908 88.1353L174.207 97.8672L174.203 97.8893C174.058 98.7196 173.268 99.2747 172.437 99.1298C171.714 99.0033 171.199 98.3855 171.175 97.6796C171.058 94.3014 171.11 90.9605 171.3 87.598C171.501 84.2463 171.811 80.8637 172.363 77.5001C172.89 74.1927 173.482 70.9232 174.116 67.6568C174.747 64.3922 175.433 61.141 176.182 57.9038C176.564 56.2537 178.21 55.2256 179.86 55.6067C181.482 55.9818 182.502 57.586 182.173 59.2081Z" fill="#FFCA20"/>
<path d="M173.746 96.9885C173.473 96.6993 173.061 96.5788 172.674 96.6712L171.795 96.8809C171.345 96.9885 171.007 97.3625 170.947 97.8214L170.693 99.7727C170.62 100.332 170.739 100.899 171.031 101.382L172.237 103.379C172.555 103.799 173.087 103.998 173.602 103.888L174.861 103.621C175.649 103.454 176.12 102.641 175.871 101.874L175.542 100.857C175.542 100.857 175.522 98.8668 173.746 96.9885Z" fill="#7F3E3B"/>
<path d="M186.387 57.3318C188.354 62.5499 181.55 69.9912 181.55 69.9912L172.941 67.1437C172.941 67.1437 173.6 60.0241 176.588 56.0103C180.279 51.0521 184.889 53.3601 186.387 57.3318Z" fill="#263238"/>
</g>
<defs>
<clipPath id="clip0_1516_603">
<rect width="271" height="202" fill="white"/>
</clipPath>
</defs>
</svg>
