<svg width="2560" height="1440" viewBox="0 0 2560 1440" fill="none" xmlns="http://www.w3.org/2000/svg">
<mask id="mask0_1516_754" style="mask-type:luminance" maskUnits="userSpaceOnUse" x="0" y="0" width="2560" height="1440">
<path d="M2560 1440H0V0H2560V1440Z" fill="white"/>
</mask>
<g mask="url(#mask0_1516_754)">
<path d="M2446.7 1308.2C2446.43 1308.4 2446.1 1308.53 2445.7 1308.6L2394.9 1322.1C2392.4 1322.8 2393.6 1324.3 2396.7 1324.3H2501.4C2504.4 1324.3 2505.7 1322.8 2503.2 1322.1L2451.4 1307.7C2449.8 1307.3 2447.6 1307.5 2446.7 1308.2Z" fill="#9097A3"/>
<path d="M2455 1309.7H2445.8V1041.9H2455V1309.7Z" fill="#999EA6"/>
<path d="M2480.3 1054.9H2420.4C2414.5 1054.9 2409.7 1050.1 2409.7 1044.2V868.3C2409.7 862.3 2414.5 857.5 2420.4 857.5H2480.3C2486.3 857.5 2491.1 862.3 2491.1 868.3V1044.2C2491.1 1050.1 2486.3 1054.9 2480.3 1054.9Z" fill="#000205"/>
<path d="M2450.4 978.999C2437.4 978.999 2427 968.499 2427 955.599C2427 942.699 2437.4 932.199 2450.4 932.199C2463.3 932.199 2473.8 942.699 2473.8 955.599C2473.8 968.499 2463.3 978.999 2450.4 978.999Z" fill="#FFC500"/>
<g opacity="0.2">
<path d="M2451.9 973H2448.8C2441.1 973 2434.4 969.2 2430.2 963.5C2433.5 971.4 2441.3 977 2450.4 977C2459.5 977 2467.3 971.4 2470.6 963.5C2466.4 969.2 2459.6 973 2451.9 973Z" fill="white"/>
</g>
<g opacity="0.2">
<path d="M2450.4 932.199C2437.4 932.199 2427 942.699 2427 955.599C2427 956.533 2427.04 957.466 2427.1 958.399C2428.5 946.799 2438.4 937.799 2450.4 937.799C2462.3 937.799 2472.2 946.799 2473.6 958.399C2473.67 957.466 2473.74 956.533 2473.8 955.599C2473.8 942.699 2463.3 932.199 2450.4 932.199Z" fill="black"/>
</g>
<path d="M2473.6 958.4C2473.5 955 2472.8 951.8 2471.6 948.9C2470.4 946 2468.7 943.4 2466.5 941.2C2462.2 936.9 2456.3 934.4 2450.4 934.4C2444.4 934.4 2438.5 936.9 2434.2 941.2C2432 943.4 2430.3 946 2429.1 948.9C2427.9 951.8 2427.2 955 2427.1 958.4C2426.9 957.6 2426.74 956.767 2426.6 955.9C2426.5 955.1 2426.5 954.2 2426.5 953.4C2426.4 952.5 2426.5 951.7 2426.6 950.8C2426.7 950 2426.8 949.1 2427 948.3C2427.8 944.9 2429.4 941.7 2431.6 938.9C2433.8 936.1 2436.7 933.9 2439.9 932.3C2440.1 932.233 2440.3 932.133 2440.5 932L2441.1 931.8L2442.4 931.3C2442.8 931.1 2443.3 931 2443.7 930.9L2445 930.6C2445.9 930.4 2446.8 930.3 2447.7 930.1C2448.57 930.033 2449.47 930 2450.4 930C2451.27 930 2452.17 930.033 2453.1 930.1C2453.9 930.3 2454.8 930.4 2455.7 930.6L2457 930.9C2457.5 931 2457.9 931.1 2458.3 931.3L2459.6 931.8C2460 931.933 2460.4 932.1 2460.8 932.3C2464.1 933.9 2466.9 936.2 2469.1 938.9C2471.4 941.7 2473 944.9 2473.7 948.3C2473.9 949.1 2474 950 2474.1 950.8C2474.2 951.7 2474.3 952.5 2474.3 953.4C2474.2 954.2 2474.2 955.1 2474.1 955.9C2473.97 956.767 2473.8 957.6 2473.6 958.4Z" fill="#343C45"/>
<path d="M2450.4 923.099C2437.4 923.099 2427 912.599 2427 899.699C2427 886.799 2437.4 876.299 2450.4 876.299C2463.3 876.299 2473.8 886.799 2473.8 899.699C2473.8 912.599 2463.3 923.099 2450.4 923.099Z" fill="#F52711"/>
<g opacity="0.2">
<path d="M2451.9 917.1H2448.8C2441.1 917.1 2434.4 913.4 2430.2 907.6C2433.5 915.5 2441.3 921.1 2450.4 921.1C2459.5 921.1 2467.3 915.5 2470.6 907.6C2466.4 913.4 2459.6 917.1 2451.9 917.1Z" fill="white"/>
</g>
<g opacity="0.2">
<path d="M2450.4 876.299C2437.4 876.299 2427 886.799 2427 899.699C2427 900.632 2427.04 901.566 2427.1 902.499C2428.5 890.899 2438.4 881.899 2450.4 881.899C2462.3 881.899 2472.2 890.899 2473.6 902.499C2473.67 901.566 2473.74 900.632 2473.8 899.699C2473.8 886.799 2463.3 876.299 2450.4 876.299Z" fill="black"/>
</g>
<path d="M2473.6 902.5C2473.5 899.2 2472.8 896 2471.6 893.1C2470.4 890.2 2468.7 887.5 2466.5 885.4C2462.2 881 2456.3 878.5 2450.4 878.6C2444.4 878.5 2438.5 881 2434.2 885.4C2432 887.5 2430.3 890.2 2429.1 893.1C2427.9 896 2427.2 899.2 2427.1 902.5C2426.9 901.7 2426.74 900.866 2426.6 900C2426.5 899.2 2426.5 898.4 2426.5 897.5C2426.4 896.7 2426.5 895.8 2426.6 895C2426.7 894.1 2426.8 893.3 2427 892.4C2427.8 889 2429.4 885.8 2431.6 883.1C2433.8 880.3 2436.7 878 2439.9 876.5C2440.1 876.366 2440.3 876.266 2440.5 876.2L2441.1 875.9L2442.4 875.5C2442.8 875.3 2443.3 875.2 2443.7 875.1L2445 874.7C2445.9 874.5 2446.8 874.4 2447.7 874.3C2448.57 874.233 2449.47 874.166 2450.4 874.1C2451.27 874.166 2452.17 874.233 2453.1 874.3C2453.9 874.4 2454.8 874.5 2455.7 874.7L2457 875.1C2457.5 875.2 2457.9 875.3 2458.3 875.5L2459.6 875.9C2460 876.1 2460.4 876.3 2460.8 876.5C2464.1 878 2466.9 880.3 2469.1 883.1C2471.4 885.8 2473 889 2473.7 892.4C2473.9 893.3 2474 894.1 2474.1 895C2474.2 895.8 2474.3 896.7 2474.3 897.5C2474.2 898.4 2474.2 899.2 2474.1 900C2473.97 900.866 2473.8 901.7 2473.6 902.5Z" fill="#343C45"/>
<path d="M2450.4 1034.8C2437.4 1034.8 2427 1024.3 2427 1011.4C2427 998.498 2437.4 987.998 2450.4 987.998C2463.3 987.998 2473.8 998.498 2473.8 1011.4C2473.8 1024.3 2463.3 1034.8 2450.4 1034.8Z" fill="#61A601"/>
<g opacity="0.2">
<path d="M2451.9 1028.8H2448.8C2441.1 1028.8 2434.4 1025.1 2430.2 1019.3C2433.5 1027.2 2441.3 1032.8 2450.4 1032.8C2459.5 1032.8 2467.3 1027.2 2470.6 1019.3C2466.4 1025.1 2459.6 1028.8 2451.9 1028.8Z" fill="white"/>
</g>
<g opacity="0.2">
<path d="M2450.4 987.998C2437.4 987.998 2427 998.498 2427 1011.4C2427 1012.33 2427.04 1013.26 2427.1 1014.2C2428.5 1002.6 2438.4 993.598 2450.4 993.598C2462.3 993.598 2472.2 1002.6 2473.6 1014.2C2473.67 1013.26 2473.74 1012.33 2473.8 1011.4C2473.8 998.498 2463.3 987.998 2450.4 987.998Z" fill="black"/>
</g>
<path d="M2473.6 1014.2C2473.5 1010.9 2472.8 1007.7 2471.6 1004.8C2470.4 1001.9 2468.7 999.199 2466.5 997.099C2462.2 992.699 2456.3 990.199 2450.4 990.299C2444.4 990.199 2438.5 992.699 2434.2 997.099C2432 999.199 2430.3 1001.9 2429.1 1004.8C2427.9 1007.7 2427.2 1010.9 2427.1 1014.2C2426.9 1013.4 2426.74 1012.57 2426.6 1011.7C2426.5 1010.9 2426.5 1010.1 2426.5 1009.2C2426.4 1008.4 2426.5 1007.5 2426.6 1006.7C2426.7 1005.8 2426.8 1005 2427 1004.1C2427.8 1000.7 2429.4 997.499 2431.6 994.799C2433.8 991.999 2436.7 989.699 2439.9 988.199C2440.1 988.066 2440.3 987.966 2440.5 987.899L2441.1 987.599L2442.4 987.199C2442.8 986.999 2443.3 986.899 2443.7 986.799L2445 986.399C2445.9 986.199 2446.8 986.099 2447.7 985.999C2448.57 985.932 2449.47 985.865 2450.4 985.799C2451.27 985.865 2452.17 985.932 2453.1 985.999C2453.9 986.099 2454.8 986.199 2455.7 986.399L2457 986.799C2457.5 986.899 2457.9 986.999 2458.3 987.199L2459.6 987.599C2460 987.799 2460.4 987.999 2460.8 988.199C2464.1 989.699 2466.9 991.999 2469.1 994.799C2471.4 997.499 2473 1000.7 2473.7 1004.1C2473.9 1005 2474 1005.8 2474.1 1006.7C2474.2 1007.5 2474.3 1008.4 2474.3 1009.2C2474.2 1010.1 2474.2 1010.9 2474.1 1011.7C2473.97 1012.57 2473.8 1013.4 2473.6 1014.2Z" fill="#343C45"/>
<path opacity="0.1" d="M2527.2 1210.5L2510.7 1100.6H2466.9V981.6H2472.3V970.8H2451V924.5H2448.4V970.8H2433.7V932.9H2431.1V970.8H2342.4V981.6H2348.5V1210.5H2247.2V1114.9H2189.5V849.1H2194.8V836.1H2183.3V819.4H2170V813.1V794V777.5H2154.1V747.9H2152.1H2150.2V777.5H2141.6L2136.4 794H2101.5V819.4H2010.1V836.1H1998.6V849.1H2003.9V1022.1H1927.5V1192L1842.6 1154.4V989.5H1856.3V977.4H1832.3V944.5H1729.2V977.4H1695.5V944.5H1678.2V977.4H1660.9V944.5H1641.9V977.4H1602V989.5H1608.1V1210.5H1570.9V796.4H1574.4V791.2H1580.5V776.9H1466.7V761H1470.4V756.4H1408.4V761H1412.1V776.9H1383.9V791.2H1390V796.4H1393.9V1210.5H1363.1V1068.4H1206.7V1210.5H1181.3V751.9H1162.6V763.9L1127.9 772.4V764.6H1109.1V777L1074.5 785.5V776.5H1055.7V790.1L1021 798.5V791.2H1002.2V803.1L967.601 811.6V805.3H948.801V1210.5H922.401V1019H824.501V1169.1H724.101V1041.1H711.801V999.1H719.101V994.8H686.701V981.6H683.201V994.8H672.801V927H670.201V994.8H656.701V999.1H664.601V1041.1H598.401V1138.7H534.001L514.501 1210.5H432.701V857.1H343.301V842.6H348.401V837.5H280.601V842.6H285.901V857.1V880.5V1158.5H243.801V1053.5H258.801V1044H152.601V980.5H132.401V967.5H87.2008V980.5H50.4008V1207.1H-70.1992V1039H-171.799V1171.8H-193.699V1305.4H-171.799H-142.099H-126.299H-70.1992H50.4008H87.2008H132.401H152.601H231.801H243.801H285.901H356.701H391.501H432.701H598.401H636.701H701.301H724.101H826.201H853.601H948.801H958.201H967.601H1002.2H1021H1055.7H1071.4H1074.5H1109.1H1127.9H1157.7H1162.6H1172H1181.3H1206.7H1336H1354.4H1363.1H1402H1470.4H1533H1562.4H1608.1H1721.5H1841.4H1842.6H1927.5H1974.9H2003.9H2022.2H2164.1H2189.5H2219.9H2247.2H2348.5H2423.8H2439.2H2466.9H2635.4V1244V1210.5H2527.2Z" fill="#2B3944"/>
<path d="M2560 1325.8H0V1307.2H2560V1325.8Z" fill="#495D69"/>
<path d="M2560 1439.5H0V1325.8H2560V1439.5Z" fill="#1D2930"/>
<path d="M18.3984 1387.9H48.1984" stroke="#FFC500" stroke-width="10" stroke-miterlimit="10"/>
<path d="M108.797 1387.9H2499.9" stroke="#FFC500" stroke-width="10" stroke-miterlimit="10" stroke-dasharray="60.53 60.53"/>
<path d="M2530.1 1387.9H2560" stroke="#FFC500" stroke-width="10" stroke-miterlimit="10"/>
<path d="M41.6016 1340.5H127.502L112.302 1325.1L88.6016 1234.6H80.6016L56.3016 1327L41.6016 1340.5Z" fill="#FFC500"/>
<path d="M74.5023 1257.8L95.1023 1259.5L99.9023 1277.8L69.4023 1277.1L74.5023 1257.8Z" fill="white"/>
<path d="M62.2008 1304.6H106.901L112.301 1325.1L56.3008 1327L62.2008 1304.6Z" fill="white"/>
<path d="M2223.8 1177.1H2316.8C2316.8 1177.1 2326 1180.4 2340.1 1196.9L2351.4 1211.8C2351.4 1211.8 2360.2 1223 2349.7 1223.8H2180.2C2180.2 1223.8 2171.3 1220.2 2180.2 1211.8L2223.8 1177.1Z" fill="#375A64"/>
<g opacity="0.1">
<path d="M2247.6 1177.1L2193.1 1231.6C2188.7 1231.33 2184.4 1231.03 2180.2 1230.7L2233.7 1177.2C2238.1 1177.2 2242.8 1177.1 2247.6 1177.1Z" fill="white"/>
<path d="M2337.4 1177.1L2282.9 1231.6C2278.5 1231.33 2274.2 1231.03 2270 1230.7L2323.5 1177.2C2327.9 1177.2 2332.6 1177.1 2337.4 1177.1Z" fill="white"/>
<path d="M2257.8 1177.9L2203.8 1232C2202.54 1231.93 2201.27 1231.87 2200 1231.8L2255 1176.8C2255.87 1177.13 2256.8 1177.5 2257.8 1177.9Z" fill="white"/>
<path d="M2288 1177.9L2234 1232C2232.74 1231.93 2231.47 1231.87 2230.2 1231.8L2285.2 1176.8C2286.07 1177.13 2287 1177.5 2288 1177.9Z" fill="white"/>
</g>
<path d="M2130.2 1261.6C2106.6 1261.8 2087.6 1281.1 2087.8 1304.8C2087.9 1328.1 2107.3 1347.2 2130.7 1347.1C2154.4 1346.9 2173.4 1327.6 2173.2 1303.9C2173.1 1280.5 2153.6 1261.4 2130.2 1261.6Z" fill="black"/>
<path d="M2155.7 1304.3C2155.7 1318.3 2144.4 1329.5 2130.5 1329.5C2116.6 1329.5 2105.3 1318.3 2105.3 1304.3C2105.3 1290.4 2116.6 1279.1 2130.5 1279.1C2144.4 1279.1 2155.7 1290.4 2155.7 1304.3Z" fill="#1D2930"/>
<path d="M2147.3 1304.3C2147.3 1313.6 2139.8 1321.1 2130.5 1321.1C2121.2 1321.1 2113.7 1313.6 2113.7 1304.3C2113.7 1295.1 2121.2 1287.6 2130.5 1287.6C2139.8 1287.6 2147.3 1295.1 2147.3 1304.3Z" fill="white"/>
<path d="M2342.2 1261.6C2318.5 1261.8 2299.6 1281.1 2299.7 1304.8C2299.8 1328.1 2319.2 1347.2 2342.7 1347.1C2366.3 1346.9 2385.3 1327.6 2385.2 1303.9C2385 1280.5 2365.6 1261.4 2342.2 1261.6Z" fill="black"/>
<path d="M2367.6 1304.3C2367.6 1318.3 2356.3 1329.5 2342.4 1329.5C2328.5 1329.5 2317.2 1318.3 2317.2 1304.3C2317.2 1290.4 2328.5 1279.1 2342.4 1279.1C2356.3 1279.1 2367.6 1290.4 2367.6 1304.3Z" fill="#1D2930"/>
<path d="M2359.2 1304.3C2359.2 1313.6 2351.7 1321.1 2342.4 1321.1C2333.2 1321.1 2325.7 1313.6 2325.7 1304.3C2325.7 1295.1 2333.2 1287.6 2342.4 1287.6C2351.7 1287.6 2359.2 1295.1 2359.2 1304.3Z" fill="white"/>
<path fill-rule="evenodd" clip-rule="evenodd" d="M2427.6 1272.4C2427.6 1275.27 2427.57 1278.1 2427.5 1280.9C2427 1300.6 2408.1 1315.5 2388.7 1311.7C2393.6 1281.5 2371 1257.4 2344.2 1256.2C2316.9 1255 2290.6 1279 2295.7 1311.8H2176.9C2181.8 1280.9 2158.3 1256.3 2130.8 1256.2C2102.7 1256 2079.1 1281 2084.1 1312C2083 1312 2081.9 1312.1 2080.9 1312C2067.7 1310.7 2057.3 1299.7 2057 1286.4C2056.8 1277.6 2056.9 1268.8 2057 1259.9C2057.1 1246.5 2065.8 1236 2079 1233.5C2098.2 1230 2117.5 1226.3 2136.8 1223.1C2144.4 1221.9 2150.7 1219.2 2156.6 1214.1C2172.5 1200.3 2189 1187.1 2205.1 1173.6C2212.1 1167.7 2220 1164.9 2229.1 1165C2256.1 1165.1 2283 1165.2 2310 1164.9C2322.4 1164.8 2332.1 1169.2 2340.1 1178.8C2351.1 1192.2 2362.6 1205.3 2373.8 1218.6C2375.4 1220.4 2376.9 1221 2379.2 1221C2386.67 1220.87 2394.14 1220.83 2401.6 1220.9C2414 1221.2 2424.4 1230 2426.9 1241.7C2427.24 1243.3 2427.44 1244.97 2427.5 1246.7C2427.6 1255.3 2427.7 1263.9 2427.6 1272.4ZM2277.5 1190.1C2277.5 1184.1 2274 1180.5 2267.9 1180.5C2254.3 1180.4 2240.7 1180.4 2227.1 1180.6C2224.8 1180.6 2222.2 1181.6 2220.4 1182.9C2207.9 1192.6 2195.5 1202.4 2183.1 1212.2C2181.1 1213.7 2179.6 1215.4 2180.5 1218.1C2181.4 1220.9 2183.7 1221.1 2186.2 1221.1C2199.7 1221 2213.4 1221 2227 1221V1220.9C2240.4 1220.9 2253.9 1221 2267.4 1220.9C2274.2 1220.9 2277.5 1217.5 2277.5 1210.7C2277.6 1203.8 2277.6 1197 2277.5 1190.1ZM2348.3 1212.9C2340.3 1203.2 2332.2 1193.6 2323.8 1184.2C2322 1182.3 2318.9 1181.2 2316.2 1180.6C2313.2 1180 2310.1 1180.4 2307 1180.5C2301.8 1180.7 2298.3 1184.2 2298.2 1189.4C2298.1 1197 2298 1204.6 2298.2 1212.1C2298.3 1217.3 2301.9 1220.8 2307.2 1220.9C2313.5 1221 2319.9 1220.9 2326.2 1220.9C2332.4 1220.9 2338.5 1221.1 2344.6 1220.8C2346.3 1220.7 2348.7 1219.5 2349.5 1218.1C2350.2 1216.9 2349.4 1214.2 2348.3 1212.9Z" fill="#FFCA20"/>
<path d="M2272.4 1241.7H2245.2C2243.6 1241.7 2242.3 1240.4 2242.3 1238.8V1238.2C2242.3 1236.6 2243.6 1235.3 2245.2 1235.3H2272.4C2274 1235.3 2275.3 1236.6 2275.3 1238.2V1238.8C2275.3 1240.4 2274 1241.7 2272.4 1241.7Z" fill="#375A64"/>
<path d="M2427.6 1272.4L2421.7 1273.8L2409.8 1241.7H2426.9C2427.23 1243.3 2427.43 1244.97 2427.5 1246.7C2427.6 1255.3 2427.7 1263.9 2427.6 1272.4Z" fill="white"/>
<path d="M2078.7 1255.4C2073.5 1262.3 2065.7 1265.1 2061.4 1261.8C2057 1258.5 2057.7 1250.2 2062.9 1243.4C2068.2 1236.5 2075.9 1233.7 2080.3 1237C2084.7 1240.4 2083.9 1248.6 2078.7 1255.4Z" fill="#595959"/>
<path d="M2077.1 1253.8C2071.9 1260.7 2064.1 1263.5 2059.7 1260.2C2055.4 1256.8 2056.1 1248.6 2061.3 1241.8C2066.6 1234.9 2074.3 1232.1 2078.7 1235.4C2083 1238.7 2082.3 1247 2077.1 1253.8Z" fill="white"/>
<g opacity="0.1">
<path d="M2746.1 653.4C2747.5 650 2748.4 646.3 2748.4 642.4C2748.4 627.3 2736.2 615.1 2721.2 615.1C2717.1 615.1 2713.2 616.1 2709.7 617.7C2706.9 613.4 2702 610.6 2696.5 610.6C2694.1 610.6 2691.8 611.2 2689.7 612.2C2689.8 611.7 2689.9 611.2 2689.9 610.6C2689.9 604.2 2685 599 2678.8 598.3C2680 596.1 2680.7 593.5 2680.7 590.8C2680.7 582.1 2673.6 575 2664.8 575C2661.3 575 2658.1 576.2 2655.4 578.1C2652 565.7 2640.7 556.6 2627.2 556.6C2617.6 556.6 2609.2 561.3 2603.8 568.4C2601 558.8 2592.1 551.9 2581.6 551.9C2570.9 551.9 2561.9 559.2 2559.3 569.1C2557.1 567.7 2554.5 566.8 2551.7 566.8C2549.5 566.8 2547.4 567.4 2545.6 568.4C2545.5 562.6 2541.2 557.8 2535.7 556.8C2533.3 550 2526.7 545.1 2519 545.1C2509.3 545.1 2501.3 553 2501.3 562.7C2501.3 562.766 2501.3 562.833 2501.3 562.9C2501 562.8 2500.7 562.7 2500.3 562.7C2492.6 562.7 2486.4 569 2486.4 576.7C2486.4 578.1 2486.6 579.3 2487 580.6C2486.6 580.5 2486.1 580.4 2485.7 580.4C2479.7 580.4 2474.8 585.3 2474.8 591.3C2474.8 594 2475.8 596.3 2477.3 598.2C2477 598.2 2476.8 598.1 2476.5 598.1C2471.8 598.1 2468 601.9 2468 606.6C2468 607.2 2468.07 607.733 2468.2 608.2C2463.9 604.5 2458.3 602.2 2452.2 602.2C2442.1 602.2 2433.5 608.3 2429.8 617C2427.5 615.8 2424.8 615.1 2422.1 615.1C2412.5 615.1 2404.7 622.9 2404.7 632.5C2395.7 632.6 2388.4 640 2388.4 649C2388.4 650.5 2388.6 652 2389 653.4H2746.1Z" fill="#2B3944"/>
<path d="M213.802 339.801C212.202 327.901 203.502 318.201 192.002 315.401C187.002 300.001 172.602 288.901 155.602 288.901C146.802 288.901 138.802 291.901 132.302 296.801C131.702 275.401 114.102 258.201 92.6016 258.201C76.3016 258.201 62.3016 268.001 56.1016 282.001C49.6016 275.901 40.8016 272.201 31.2016 272.201C11.9016 272.201 -3.89844 287.101 -5.29844 306.101C-9.59844 304.201 -14.2984 303.101 -19.1984 303.101C-28.2984 303.101 -36.4984 306.601 -42.6984 312.401C-48.0984 305.001 -56.7984 300.301 -66.5984 300.301C-78.1984 300.301 -88.1984 306.901 -93.0984 316.601C-94.1651 316.401 -95.2651 316.301 -96.3984 316.301C-108.298 316.301 -117.898 325.901 -117.898 337.801C-117.898 338.468 -117.865 339.134 -117.798 339.801H213.802Z" fill="#2B3944"/>
<path d="M1564.8 122C1563.3 110.1 1554.5 100.5 1543.1 97.6004C1538.1 82.2004 1523.7 71.1004 1506.6 71.1004C1497.8 71.1004 1489.8 74.1004 1483.3 79.0004C1482.7 57.6004 1465.2 40.4004 1443.6 40.4004C1427.3 40.4004 1413.3 50.2004 1407.2 64.2004C1400.6 58.1004 1391.9 54.4004 1382.2 54.4004C1362.9 54.4004 1347.1 69.3004 1345.7 88.3004C1341.5 86.4004 1336.8 85.4004 1331.8 85.4004C1322.8 85.4004 1314.5 88.9004 1308.3 94.6004C1302.9 87.3004 1294.2 82.5004 1284.4 82.5004C1272.8 82.5004 1262.8 89.1004 1257.9 98.8004C1256.83 98.6004 1255.73 98.5004 1254.6 98.5004C1242.7 98.5004 1233.1 108.2 1233.1 120C1233.1 120.667 1233.13 121.334 1233.2 122H1564.8Z" fill="#2B3944"/>
</g>
</g>
</svg>
