<svg width="750" height="500" viewBox="0 0 750 500" fill="none" xmlns="http://www.w3.org/2000/svg">
<path d="M68.5935 271.342L71.0966 269.701L81.5335 273.732L84.8074 278.717C84.8074 278.717 88.8309 276.419 84.0862 270.189C79.3415 263.959 80.9325 265.296 80.9325 265.296C80.9325 265.296 89.149 259.908 89.3329 258.72C89.4814 257.878 84.3832 249.527 81.5547 245.101C80.9064 244.001 79.9098 243.148 78.7226 242.678C77.5354 242.208 76.2254 242.148 74.9998 242.506C74.6634 242.618 74.3427 242.772 74.0452 242.965C72.0017 244.302 62.6608 252.794 62.6608 252.794L58.3828 255.658L68.5935 271.342Z" fill="#EBEBEB"/>
<path d="M62.3373 277.409L52.6641 259.307L56.9421 256.5L67.9306 273.258L62.3373 277.409Z" fill="#EBEBEB"/>
<path d="M713.15 187.77L710.33 188.23L702.77 180.64L701.86 175C701.86 175 697.45 175.44 699.16 182.74C700.87 190.04 700.01 188.25 700.01 188.25C700.01 188.25 690.74 189.78 690.1 190.71C689.64 191.39 690.87 200.64 691.58 205.65C691.715 206.865 692.253 208.001 693.109 208.874C693.964 209.748 695.088 210.31 696.3 210.47C696.632 210.513 696.968 210.513 697.3 210.47C699.61 210.09 711.12 206.3 711.12 206.3L716 205.51L713.15 187.77Z" fill="#EBEBEB"/>
<path d="M720.99 184.92L722.38 204.52L717.54 205.3L714.48 186.37L720.99 184.92Z" fill="#EBEBEB"/>
<path d="M708.189 57.9844L700.219 58.0275L700.433 97.687L708.403 97.6438L708.189 57.9844Z" fill="#E0E0E0"/>
<path d="M651.812 58.0898L631.172 58.2015L631.29 80.1012L651.93 79.9895L651.812 58.0898Z" fill="#EBEBEB"/>
<path d="M672.358 57.9785L651.719 58.0901L651.837 79.9898L672.477 79.8781L672.358 57.9785Z" fill="#F5F5F5"/>
<path d="M631.2 64.2688C644.91 64.3788 658.67 64.2688 672.38 64.0788C672.438 64.0788 672.494 64.0556 672.536 64.0143C672.577 63.9731 672.6 63.9171 672.6 63.8588C672.6 63.8004 672.577 63.7445 672.536 63.7032C672.494 63.6619 672.438 63.6388 672.38 63.6388C658.66 63.5588 644.93 63.6421 631.19 63.8888C631.14 63.8888 631.091 63.9088 631.056 63.9444C631.02 63.98 631 64.0284 631 64.0788C631 64.1292 631.02 64.1775 631.056 64.2131C631.091 64.2487 631.14 64.2688 631.19 64.2688H631.2Z" fill="#E0E0E0"/>
<path d="M655.796 79.6172L618.297 79.8201L618.393 97.6599L655.893 97.457L655.796 79.6172Z" fill="#EBEBEB"/>
<path d="M693.124 79.4141L655.625 79.617L655.722 97.4567L693.221 97.2538L693.124 79.4141Z" fill="#F5F5F5"/>
<path d="M618.323 84.8084C643.233 85.0884 668.243 84.8084 693.153 84.4384C693.211 84.4384 693.267 84.4152 693.308 84.3739C693.35 84.3327 693.373 84.2767 693.373 84.2184C693.373 84.16 693.35 84.1041 693.308 84.0628C693.267 84.0216 693.211 83.9984 693.153 83.9984C668.233 83.8684 643.233 83.8784 618.323 84.4284C618.272 84.4284 618.224 84.4484 618.188 84.484C618.153 84.5197 618.133 84.568 618.133 84.6184C618.133 84.6688 618.153 84.7171 618.188 84.7527C618.224 84.7884 618.272 84.8084 618.323 84.8084Z" fill="#E0E0E0"/>
<path d="M749.601 97.6895H604.301V104.079H749.601V97.6895Z" fill="#E0E0E0"/>
<path d="M633.978 100.76H628.078V122.57H633.978V100.76Z" fill="#E0E0E0"/>
<path d="M722.033 100.76H716.133V122.57H722.033V100.76Z" fill="#E0E0E0"/>
<path d="M715.966 43.1914L707.996 43.2345L708.291 97.7837L716.261 97.7406L715.966 43.1914Z" fill="#EBEBEB"/>
<path d="M728.421 53.3438L716.031 53.4108L716.27 97.6201L728.66 97.5531L728.421 53.3438Z" fill="#F5F5F5"/>
<path d="M728.339 61.8899C726.283 62.102 724.215 62.1722 722.149 62.0999C720.08 62.1719 718.009 62.1018 715.949 61.8899C720.074 61.5966 724.214 61.5966 728.339 61.8899Z" fill="#E0E0E0"/>
<path d="M728.339 59.9991C726.284 60.2177 724.215 60.2912 722.149 60.2191C720.08 60.291 718.008 60.2175 715.949 59.9991C720.074 59.7191 724.214 59.7191 728.339 59.9991Z" fill="#E0E0E0"/>
<path d="M728.339 90.929C724.214 91.209 720.074 91.209 715.949 90.929C720.074 90.6356 724.214 90.6356 728.339 90.929Z" fill="#E0E0E0"/>
<path d="M728.339 89.0694C724.214 89.3494 720.074 89.3494 715.949 89.0694C720.074 88.7894 724.214 88.7894 728.339 89.0694Z" fill="#E0E0E0"/>
<path d="M722.353 85C722.233 85 722.133 80.54 722.133 75C722.133 69.46 722.233 65 722.353 65C722.473 65 722.563 69.46 722.563 75C722.563 80.54 722.463 85 722.353 85Z" fill="#E0E0E0"/>
<path d="M741.953 64.2285H728.473V97.5985H741.953V64.2285Z" fill="#EBEBEB"/>
<path d="M714.159 52.5303C714.161 52.9856 714.027 53.4312 713.776 53.8108C713.524 54.1903 713.166 54.4867 712.746 54.6623C712.326 54.8379 711.863 54.8849 711.416 54.7973C710.969 54.7097 710.558 54.4914 710.236 54.1701C709.913 53.8489 709.693 53.4391 709.603 52.9927C709.514 52.5462 709.559 52.0833 709.733 51.6624C709.906 51.2416 710.201 50.8818 710.58 50.6286C710.958 50.3754 711.403 50.2403 711.859 50.2403C712.16 50.2389 712.459 50.2972 712.738 50.4117C713.017 50.5262 713.271 50.6947 713.484 50.9074C713.698 51.1202 713.868 51.3731 713.983 51.6516C714.099 51.9301 714.159 52.2287 714.159 52.5303Z" fill="#E0E0E0"/>
<path d="M712.58 58.8301H711.16V91.2801H712.58V58.8301Z" fill="#E0E0E0"/>
<path d="M685.462 432.84C685.462 432.99 547.882 433.1 378.192 433.1C208.502 433.1 70.9023 433 70.9023 432.84C70.9023 432.68 208.452 432.58 378.192 432.58C547.932 432.58 685.462 432.7 685.462 432.84Z" fill="#222222"/>
<path d="M620.777 6.75565e-06H133.248C131.25 -0.00187706 129.272 0.390234 127.426 1.15388C125.579 1.91753 123.902 3.03773 122.489 4.45038C121.077 5.86303 119.957 7.5404 119.193 9.38648C118.429 11.2326 118.037 13.2111 118.039 15.2089V359.571C118.037 361.57 118.429 363.549 119.193 365.396C119.956 367.243 121.076 368.921 122.489 370.335C123.901 371.749 125.578 372.87 127.424 373.635C129.271 374.401 131.25 374.794 133.248 374.794H320.366C320.366 374.794 332.267 411.599 295.361 430.646H470.321C470.321 430.646 428.675 416.325 439.373 374.794H620.777C624.812 374.794 628.682 373.192 631.537 370.341C634.391 367.489 635.997 363.62 636 359.586V15.2232C636.002 13.2235 635.61 11.2431 634.845 9.39531C634.081 7.5475 632.96 5.86856 631.546 4.45458C630.132 3.0406 628.453 1.91935 626.605 1.15498C624.757 0.390606 622.777 -0.00187706 620.777 6.75565e-06Z" fill="#222222"/>
<path d="M383.52 338.577C390.151 348.058 379.768 358.44 370.288 351.81C369.975 351.586 369.704 351.31 369.486 350.993C362.869 341.513 373.238 331.145 382.704 337.761C383.021 337.984 383.297 338.26 383.52 338.577Z" fill="#455A64"/>
<path d="M619.3 20.6504H133.718C131.132 20.6504 129.035 22.747 129.035 25.3334V309.548C129.035 312.134 131.132 314.231 133.718 314.231H619.3C621.886 314.231 623.983 312.134 623.983 309.548V25.3334C623.983 22.747 621.886 20.6504 619.3 20.6504Z" fill="#E6E6E6"/>
<path d="M623.947 42H129V314.07H623.947V42Z" fill="white"/>
<path d="M169.624 31.9936C169.624 32.7753 169.392 33.5395 168.958 34.1895C168.523 34.8395 167.906 35.3462 167.184 35.6453C166.462 35.9445 165.667 36.0228 164.9 35.8702C164.134 35.7177 163.429 35.3413 162.876 34.7885C162.324 34.2357 161.947 33.5314 161.795 32.7647C161.642 31.998 161.72 31.2033 162.02 30.481C162.319 29.7588 162.825 29.1415 163.475 28.7072C164.125 28.2728 164.89 28.041 165.671 28.041C166.72 28.041 167.725 28.4574 168.466 29.1987C169.208 29.9399 169.624 30.9453 169.624 31.9936Z" fill="#455A64"/>
<path d="M145.663 31.9936C145.663 32.7753 145.431 33.5395 144.997 34.1895C144.562 34.8395 143.945 35.3462 143.223 35.6453C142.501 35.9445 141.706 36.0228 140.939 35.8702C140.173 35.7177 139.468 35.3413 138.915 34.7885C138.363 34.2357 137.986 33.5314 137.834 32.7647C137.681 31.998 137.759 31.2033 138.059 30.481C138.358 29.7588 138.864 29.1415 139.514 28.7072C140.164 28.2728 140.929 28.041 141.71 28.041C142.759 28.041 143.764 28.4574 144.505 29.1987C145.247 29.9399 145.663 30.9453 145.663 31.9936Z" fill="#455A64"/>
<path d="M157.163 31.9936C157.163 32.7753 156.931 33.5395 156.497 34.1895C156.062 34.8395 155.445 35.3462 154.723 35.6453C154.001 35.9445 153.206 36.0228 152.439 35.8702C151.673 35.7177 150.968 35.3413 150.415 34.7885C149.863 34.2357 149.486 33.5314 149.334 32.7647C149.181 31.998 149.259 31.2033 149.559 30.481C149.858 29.7588 150.364 29.1415 151.014 28.7072C151.664 28.2728 152.429 28.041 153.21 28.041C154.259 28.041 155.264 28.4574 156.005 29.1987C156.747 29.9399 157.163 30.9453 157.163 31.9936Z" fill="#455A64"/>
<path d="M564.41 67.2949H187.001C183.851 67.2949 181.297 69.8489 181.297 72.9995V86.9995C181.297 90.15 183.851 92.704 187.001 92.704H564.41C567.561 92.704 570.115 90.15 570.115 86.9995V72.9995C570.115 69.8489 567.561 67.2949 564.41 67.2949Z" fill="white" stroke="#EEEEEE" stroke-width="0.590909"/>
<path d="M181.297 72.9994C181.297 69.8489 183.851 67.2949 187.002 67.2949H286.479V92.7039H187.002C183.851 92.7039 181.297 90.1499 181.297 86.9994V72.9994Z" fill="#FAFAFA" stroke="#EEEEEE" stroke-width="0.590909"/>
<mask id="mask0_1516_455" style="mask-type:luminance" maskUnits="userSpaceOnUse" x="259" y="75" width="11" height="10">
<path d="M269.044 75.2715H259.59V84.726H269.044V75.2715Z" fill="white"/>
</mask>
<g mask="url(#mask0_1516_455)">
<path d="M267.435 78.7969L264.867 81.3654C264.563 81.6687 264.067 81.6687 263.764 81.3654L261.195 78.7969" stroke="#888888" stroke-width="0.886364" stroke-miterlimit="10" stroke-linecap="round" stroke-linejoin="round"/>
</g>
<path d="M199.027 83.0893L201.589 76.2821H202.459L200.01 83.0893H199.027ZM204.293 83.0893L201.845 76.2821H202.762L205.333 83.0893H204.293ZM200.322 80.3759H203.972V81.2079H200.322V80.3759ZM206.33 83.0893V76.2821H207.313V83.0893H206.33ZM208.694 83.0893V76.2821H209.677V83.0893H208.694ZM215.929 83.1839C215.456 83.1839 215.018 83.0988 214.615 82.9286C214.212 82.7521 213.862 82.5095 213.565 82.2006C213.276 81.8855 213.049 81.5136 212.885 81.085C212.721 80.6564 212.639 80.1868 212.639 79.6763C212.639 79.1657 212.718 78.6993 212.875 78.277C213.039 77.8484 213.266 77.4796 213.556 77.1708C213.852 76.8556 214.202 76.613 214.605 76.4428C215.009 76.2726 215.447 76.1875 215.92 76.1875C216.449 76.1875 216.925 76.2947 217.347 76.509C217.77 76.717 218.113 77.0132 218.378 77.3977C218.649 77.7822 218.816 78.2297 218.879 78.7403H217.896C217.814 78.2045 217.596 77.7885 217.243 77.4923C216.897 77.1897 216.459 77.0384 215.929 77.0384C215.482 77.0384 215.084 77.1487 214.738 77.3693C214.397 77.5836 214.133 77.8893 213.944 78.2864C213.755 78.6772 213.66 79.1405 213.66 79.6763C213.66 80.2057 213.755 80.6721 213.944 81.0755C214.139 81.4726 214.407 81.7815 214.747 82.0021C215.088 82.2227 215.482 82.333 215.929 82.333C216.459 82.333 216.9 82.1849 217.253 81.8886C217.612 81.5861 217.829 81.1669 217.905 80.6312H218.898C218.828 81.148 218.658 81.5987 218.387 81.9832C218.116 82.3613 217.77 82.6576 217.347 82.8719C216.931 83.0799 216.459 83.1839 215.929 83.1839ZM222.798 83.0893C222.766 82.9696 222.744 82.8372 222.732 82.6923C222.725 82.5473 222.722 82.3708 222.722 82.1628H222.675V79.8653C222.675 79.5565 222.596 79.3264 222.439 79.1752C222.287 79.0176 222.045 78.9388 221.711 78.9388C221.389 78.9388 221.131 79.0018 220.935 79.1279C220.746 79.2539 220.636 79.4336 220.605 79.6668H219.669C219.713 79.213 219.917 78.8506 220.283 78.5795C220.649 78.3085 221.137 78.173 221.749 78.173C222.379 78.173 222.852 78.3211 223.167 78.6173C223.482 78.9073 223.639 79.3359 223.639 79.9032V82.1628C223.639 82.3078 223.649 82.4559 223.668 82.6072C223.687 82.7584 223.715 82.9192 223.753 83.0893H222.798ZM221.134 83.1839C220.642 83.1839 220.252 83.0641 219.962 82.8246C219.672 82.5788 219.527 82.2479 219.527 81.8319C219.527 81.4033 219.678 81.0661 219.981 80.8203C220.289 80.5681 220.731 80.3979 221.304 80.3097L222.893 80.0544V80.7446L221.455 80.9715C221.134 81.0219 220.891 81.107 220.727 81.2268C220.57 81.3466 220.491 81.5199 220.491 81.7468C220.491 81.9674 220.564 82.1344 220.709 82.2479C220.86 82.355 221.077 82.4086 221.361 82.4086C221.739 82.4086 222.051 82.3172 222.297 82.1344C222.549 81.9516 222.675 81.7216 222.675 81.4443L222.798 82.1439C222.685 82.4779 222.483 82.7364 222.193 82.9192C221.903 83.0956 221.55 83.1839 221.134 83.1839ZM226.829 83.1839C226.268 83.1839 225.855 83.0547 225.591 82.7963C225.332 82.5315 225.203 82.1439 225.203 81.6333V77.1613L226.177 76.7926V81.6428C226.177 81.8949 226.243 82.0809 226.375 82.2006C226.508 82.3204 226.722 82.3803 227.018 82.3803C227.132 82.3803 227.233 82.3708 227.321 82.3519C227.409 82.333 227.485 82.3109 227.548 82.2857V83.0799C227.479 83.1114 227.381 83.1366 227.255 83.1555C227.129 83.1744 226.987 83.1839 226.829 83.1839ZM224.239 79.0523V78.2675H227.548V79.0523H224.239ZM230.44 83.1839C229.955 83.1839 229.526 83.0767 229.154 82.8624C228.789 82.6481 228.502 82.3519 228.294 81.9737C228.086 81.5955 227.982 81.1606 227.982 80.669C227.982 80.171 228.083 79.7361 228.284 79.3643C228.492 78.9861 228.782 78.693 229.154 78.485C229.526 78.277 229.952 78.173 230.431 78.173C230.897 78.173 231.3 78.2738 231.641 78.4755C231.987 78.6709 232.252 78.9451 232.435 79.2981C232.624 79.651 232.719 80.0702 232.719 80.5555C232.719 80.6312 232.715 80.7036 232.709 80.773C232.709 80.836 232.703 80.9022 232.69 80.9715H228.644V80.2341H232L231.754 80.5272C231.754 80.0103 231.638 79.6164 231.404 79.3453C231.171 79.0743 230.847 78.9388 230.431 78.9388C229.983 78.9388 229.627 79.0932 229.362 79.4021C229.104 79.7046 228.975 80.1269 228.975 80.669C228.975 81.2173 229.104 81.6459 229.362 81.9548C229.627 82.2636 229.993 82.4181 230.459 82.4181C230.743 82.4181 230.988 82.3613 231.196 82.2479C231.404 82.1281 231.559 81.9548 231.66 81.7279H232.586C232.429 82.1817 232.161 82.5378 231.783 82.7963C231.411 83.0547 230.963 83.1839 230.44 83.1839ZM235.766 85.1221C235.161 85.1221 234.66 84.9834 234.263 84.7061C233.872 84.435 233.636 84.0726 233.554 83.6188H234.48C234.543 83.8268 234.682 83.9907 234.896 84.1104C235.117 84.2302 235.41 84.2901 235.776 84.2901C236.248 84.2901 236.601 84.1735 236.835 83.9403C237.068 83.707 237.184 83.3604 237.184 82.9003V81.8603L237.269 81.8792C237.175 82.2447 236.97 82.5347 236.655 82.749C236.34 82.957 235.962 83.061 235.52 83.061C235.098 83.061 234.726 82.9601 234.405 82.7584C234.083 82.5567 233.834 82.2763 233.658 81.917C233.481 81.5514 233.393 81.1259 233.393 80.6406C233.393 80.149 233.484 79.7172 233.667 79.3453C233.85 78.9735 234.105 78.6867 234.433 78.485C234.767 78.2833 235.155 78.1824 235.596 78.1824C236.05 78.1824 236.425 78.2927 236.721 78.5133C237.024 78.7276 237.216 79.0333 237.298 79.4304L237.222 79.4399V78.2675H238.158V82.8908C238.158 83.5841 237.944 84.1293 237.515 84.5264C237.093 84.9235 236.51 85.1221 235.766 85.1221ZM235.813 82.2668C236.236 82.2668 236.573 82.1187 236.825 81.8224C237.083 81.5262 237.213 81.1196 237.213 80.6028C237.213 80.0986 237.083 79.7015 236.825 79.4115C236.573 79.1216 236.233 78.9766 235.804 78.9766C235.375 78.9766 235.035 79.1247 234.783 79.421C234.531 79.7109 234.405 80.1143 234.405 80.6312C234.405 81.1354 234.531 81.5356 234.783 81.8319C235.041 82.1218 235.385 82.2668 235.813 82.2668ZM241.64 83.1839C241.148 83.1839 240.717 83.0767 240.345 82.8624C239.973 82.6418 239.683 82.3424 239.475 81.9643C239.267 81.5798 239.163 81.1449 239.163 80.6595C239.163 80.1679 239.267 79.7361 239.475 79.3643C239.689 78.9924 239.979 78.7024 240.345 78.4944C240.717 78.2801 241.148 78.173 241.64 78.173C242.138 78.173 242.573 78.2801 242.945 78.4944C243.317 78.7024 243.603 78.9924 243.805 79.3643C244.013 79.7361 244.117 80.1679 244.117 80.6595C244.117 81.1449 244.013 81.5798 243.805 81.9643C243.603 82.3424 243.317 82.6418 242.945 82.8624C242.573 83.0767 242.138 83.1839 241.64 83.1839ZM241.64 82.3803C241.936 82.3803 242.192 82.3078 242.406 82.1628C242.626 82.0178 242.8 81.8161 242.926 81.5577C243.052 81.2993 243.115 80.9967 243.115 80.6501C243.115 80.1332 242.976 79.7267 242.699 79.4304C242.428 79.1279 242.075 78.9766 241.64 78.9766C241.211 78.9766 240.858 79.1279 240.581 79.4304C240.31 79.733 240.175 80.1395 240.175 80.6501C240.175 80.9967 240.234 81.2993 240.354 81.5577C240.48 81.8161 240.654 82.0178 240.874 82.1628C241.101 82.3078 241.356 82.3803 241.64 82.3803ZM245.127 83.0893V78.2675H246.063V79.4683H246.11V83.0893H245.127ZM246.11 80.5744L245.987 79.4304C246.101 79.0207 246.296 78.7087 246.574 78.4944C246.851 78.2801 247.182 78.173 247.566 78.173C247.711 78.173 247.812 78.1856 247.869 78.2108V79.1373C247.837 79.1247 247.793 79.1184 247.737 79.1184C247.68 79.1121 247.61 79.109 247.529 79.109C247.056 79.109 246.7 79.2319 246.46 79.4777C246.227 79.7235 246.11 80.0891 246.11 80.5744ZM249.161 85.0275L250.324 82.3708L250.523 82.0588L251.988 78.2675H253.009L250.173 85.0275H249.161ZM250.277 83.0893L248.216 78.2675H249.284L251.033 82.6072L250.277 83.0893Z" fill="#888888"/>
<path d="M562.638 68.7715H552.184C548.87 68.7715 546.184 71.4578 546.184 74.7715V85.226C546.184 88.5397 548.87 91.226 552.184 91.226H562.638C565.952 91.226 568.638 88.5397 568.638 85.226V74.7715C568.638 71.4578 565.952 68.7715 562.638 68.7715Z" fill="#FFCA20"/>
<mask id="mask1_1516_455" style="mask-type:luminance" maskUnits="userSpaceOnUse" x="552" y="74" width="11" height="12">
<path d="M562.726 74.6797H552.09V85.3161H562.726V74.6797Z" fill="white"/>
</mask>
<g mask="url(#mask1_1516_455)">
<path d="M557.167 84.35C559.704 84.35 561.76 82.2937 561.76 79.757C561.76 77.2204 559.704 75.1641 557.167 75.1641C554.631 75.1641 552.574 77.2204 552.574 79.757C552.574 82.2937 554.631 84.35 557.167 84.35Z" stroke="white" stroke-width="0.886364" stroke-linecap="round" stroke-linejoin="round"/>
<path d="M562.24 84.8322L561.273 83.8652" stroke="white" stroke-width="0.886364" stroke-linecap="round" stroke-linejoin="round"/>
</g>
<path d="M307.621 83.1761C306.827 83.1761 306.193 82.9807 305.721 82.5899C305.254 82.1991 304.98 81.6413 304.898 80.9165H305.654C305.724 81.4396 305.922 81.8335 306.25 82.0983C306.578 82.363 307.032 82.4954 307.612 82.4954C308.103 82.4954 308.472 82.404 308.718 82.2212C308.97 82.0321 309.096 81.7579 309.096 81.3986C309.096 81.0898 309.011 80.844 308.841 80.6612C308.67 80.4784 308.406 80.3271 308.046 80.2074L306.902 79.8103C306.323 79.6086 305.894 79.3659 305.617 79.0823C305.339 78.7923 305.201 78.4268 305.201 77.9855C305.201 77.62 305.292 77.3048 305.475 77.0401C305.658 76.7691 305.916 76.5579 306.25 76.4066C306.584 76.2554 306.972 76.1797 307.413 76.1797C308.094 76.1797 308.639 76.3594 309.049 76.7186C309.458 77.0716 309.695 77.5758 309.758 78.2314H309.001C308.919 77.7586 308.749 77.412 308.491 77.1914C308.239 76.9708 307.873 76.8605 307.394 76.8605C306.94 76.8605 306.587 76.9518 306.335 77.1346C306.083 77.3174 305.957 77.5758 305.957 77.9099C305.957 78.1935 306.045 78.4205 306.222 78.5906C306.398 78.7608 306.672 78.9089 307.044 79.035L308.264 79.4605C308.793 79.6432 309.19 79.8922 309.455 80.2074C309.72 80.5162 309.852 80.9101 309.852 81.3892C309.852 81.9565 309.657 82.3977 309.266 82.7128C308.882 83.0217 308.333 83.1761 307.621 83.1761ZM312.967 83.1855C312.507 83.1855 312.1 83.0784 311.747 82.8641C311.394 82.6435 311.117 82.3441 310.915 81.9659C310.714 81.5877 310.613 81.1528 310.613 80.6612C310.613 80.1695 310.711 79.7378 310.906 79.3659C311.108 78.9877 311.388 78.6946 311.747 78.4866C312.107 78.2786 312.52 78.1746 312.986 78.1746C313.433 78.1746 313.821 78.2723 314.149 78.4677C314.483 78.6631 314.738 78.9373 314.915 79.2903C315.097 79.6432 315.189 80.0592 315.189 80.5383C315.189 80.6013 315.186 80.6612 315.179 80.7179C315.179 80.7746 315.173 80.8377 315.16 80.907H311.18V80.2735H314.697L314.451 80.6234C314.451 80.0435 314.322 79.5991 314.064 79.2903C313.812 78.9751 313.452 78.8175 312.986 78.8175C312.507 78.8175 312.119 78.9846 311.823 79.3186C311.533 79.6464 311.388 80.0908 311.388 80.6517C311.388 81.2253 311.533 81.6854 311.823 82.0321C312.119 82.3725 312.513 82.5426 313.005 82.5426C313.314 82.5426 313.585 82.4765 313.818 82.3441C314.051 82.2054 314.221 82.01 314.328 81.7579H315.047C314.889 82.1991 314.625 82.5489 314.253 82.8074C313.887 83.0595 313.459 83.1855 312.967 83.1855ZM319.259 83.091C319.234 82.9838 319.215 82.8609 319.203 82.7223C319.196 82.5836 319.193 82.4071 319.193 82.1928H319.146V79.8859C319.146 79.5203 319.061 79.2525 318.891 79.0823C318.727 78.9058 318.459 78.8175 318.087 78.8175C317.721 78.8175 317.428 78.8932 317.208 79.0445C316.993 79.1894 316.874 79.3974 316.848 79.6685H316.12C316.152 79.202 316.347 78.8365 316.707 78.5717C317.066 78.307 317.535 78.1746 318.115 78.1746C318.714 78.1746 319.158 78.3165 319.448 78.6001C319.738 78.8837 319.883 79.3092 319.883 79.8765V82.1928C319.883 82.3315 319.893 82.4765 319.912 82.6277C319.931 82.7727 319.956 82.9271 319.987 83.091H319.259ZM317.605 83.1855C317.107 83.1855 316.71 83.0658 316.413 82.8263C316.123 82.5805 315.979 82.2464 315.979 81.8241C315.979 81.4018 316.123 81.074 316.413 80.8408C316.703 80.6076 317.126 80.4437 317.68 80.3492L319.363 80.0655V80.6895L317.794 80.9354C317.441 80.9921 317.173 81.0866 316.99 81.219C316.807 81.3514 316.716 81.5436 316.716 81.7957C316.716 82.0415 316.798 82.2275 316.962 82.3535C317.132 82.4796 317.381 82.5426 317.709 82.5426C318.131 82.5426 318.475 82.4481 318.739 82.259C319.01 82.0636 319.146 81.8115 319.146 81.5026L319.269 82.1739C319.168 82.4954 318.969 82.7443 318.673 82.9208C318.383 83.0973 318.027 83.1855 317.605 83.1855ZM321.341 83.091V78.2692H322.05V79.4983H322.098V83.091H321.341ZM322.098 80.5761L321.975 79.4321C322.088 79.0224 322.29 78.7104 322.58 78.4961C322.87 78.2818 323.204 78.1746 323.582 78.1746C323.739 78.1746 323.847 78.1872 323.903 78.2125V78.9405C323.872 78.9278 323.828 78.9215 323.771 78.9215C323.714 78.9152 323.645 78.9121 323.563 78.9121C323.084 78.9121 322.718 79.0571 322.466 79.347C322.22 79.6306 322.098 80.0403 322.098 80.5761ZM326.63 83.1855C326.189 83.1855 325.795 83.0784 325.448 82.8641C325.108 82.6435 324.837 82.3441 324.635 81.9659C324.44 81.5814 324.342 81.1465 324.342 80.6612C324.342 80.1758 324.44 79.7472 324.635 79.3754C324.837 79.0035 325.108 78.7104 325.448 78.4961C325.795 78.2818 326.186 78.1746 326.621 78.1746C326.98 78.1746 327.302 78.244 327.585 78.3826C327.875 78.5213 328.111 78.7198 328.294 78.9783C328.483 79.2304 328.603 79.5266 328.654 79.867H327.954C327.891 79.5581 327.746 79.306 327.519 79.1106C327.292 78.9152 326.999 78.8175 326.64 78.8175C326.331 78.8175 326.063 78.8932 325.836 79.0445C325.609 79.1957 325.433 79.41 325.307 79.6874C325.181 79.9647 325.118 80.2893 325.118 80.6612C325.118 81.0331 325.181 81.3608 325.307 81.6445C325.433 81.9281 325.609 82.1487 325.836 82.3063C326.069 82.4638 326.34 82.5426 326.649 82.5426C326.996 82.5426 327.286 82.4481 327.519 82.259C327.752 82.0636 327.9 81.8115 327.963 81.5026H328.663C328.606 81.8367 328.48 82.1329 328.285 82.3914C328.096 82.6435 327.859 82.8389 327.576 82.9775C327.292 83.1162 326.977 83.1855 326.63 83.1855ZM329.762 83.091V76.2837H330.518V83.091H329.762ZM333.213 83.091V79.9332C333.213 79.5676 333.121 79.2934 332.938 79.1106C332.756 78.9278 332.485 78.8365 332.125 78.8365C331.81 78.8365 331.53 78.9058 331.284 79.0445C331.044 79.1831 330.855 79.3754 330.717 79.6212C330.584 79.867 330.518 80.1538 330.518 80.4815L330.395 79.3375C330.559 78.9783 330.808 78.6946 331.142 78.4866C331.482 78.2786 331.867 78.1746 332.295 78.1746C332.8 78.1746 333.203 78.3196 333.506 78.6095C333.814 78.8932 333.969 79.2682 333.969 79.7346V83.091H333.213ZM337.314 83.091V76.2837H338.071V83.091H337.314ZM340.765 83.091V79.9332C340.765 79.5676 340.674 79.2934 340.491 79.1106C340.308 78.9278 340.037 78.8365 339.678 78.8365C339.363 78.8365 339.082 78.9058 338.836 79.0445C338.597 79.1831 338.408 79.3754 338.269 79.6212C338.137 79.867 338.071 80.1538 338.071 80.4815L337.948 79.3375C338.112 78.9783 338.36 78.6946 338.695 78.4866C339.035 78.2786 339.419 78.1746 339.848 78.1746C340.352 78.1746 340.756 78.3196 341.058 78.6095C341.367 78.8932 341.521 79.2682 341.521 79.7346V83.091H340.765ZM344.95 83.1855C344.49 83.1855 344.083 83.0784 343.73 82.8641C343.377 82.6435 343.1 82.3441 342.898 81.9659C342.697 81.5877 342.596 81.1528 342.596 80.6612C342.596 80.1695 342.693 79.7378 342.889 79.3659C343.091 78.9877 343.371 78.6946 343.73 78.4866C344.09 78.2786 344.502 78.1746 344.969 78.1746C345.416 78.1746 345.804 78.2723 346.132 78.4677C346.466 78.6631 346.721 78.9373 346.898 79.2903C347.08 79.6432 347.172 80.0592 347.172 80.5383C347.172 80.6013 347.169 80.6612 347.162 80.7179C347.162 80.7746 347.156 80.8377 347.143 80.907H343.163V80.2735H346.68L346.434 80.6234C346.434 80.0435 346.305 79.5991 346.047 79.2903C345.795 78.9751 345.435 78.8175 344.969 78.8175C344.49 78.8175 344.102 78.9846 343.806 79.3186C343.516 79.6464 343.371 80.0908 343.371 80.6517C343.371 81.2253 343.516 81.6854 343.806 82.0321C344.102 82.3725 344.496 82.5426 344.988 82.5426C345.297 82.5426 345.568 82.4765 345.801 82.3441C346.034 82.2054 346.204 82.01 346.311 81.7579H347.03C346.872 82.1991 346.608 82.5489 346.236 82.8074C345.87 83.0595 345.442 83.1855 344.95 83.1855ZM348.311 83.091V78.2692H349.02V79.4983H349.067V83.091H348.311ZM349.067 80.5761L348.944 79.4321C349.058 79.0224 349.259 78.7104 349.549 78.4961C349.839 78.2818 350.173 78.1746 350.551 78.1746C350.709 78.1746 350.816 78.1872 350.873 78.2125V78.9405C350.841 78.9278 350.797 78.9215 350.74 78.9215C350.684 78.9152 350.614 78.9121 350.532 78.9121C350.053 78.9121 349.688 79.0571 349.436 79.347C349.19 79.6306 349.067 80.0403 349.067 80.5761ZM353.666 83.1855C353.206 83.1855 352.799 83.0784 352.446 82.8641C352.093 82.6435 351.816 82.3441 351.614 81.9659C351.413 81.5877 351.312 81.1528 351.312 80.6612C351.312 80.1695 351.409 79.7378 351.605 79.3659C351.806 78.9877 352.087 78.6946 352.446 78.4866C352.806 78.2786 353.218 78.1746 353.685 78.1746C354.132 78.1746 354.52 78.2723 354.848 78.4677C355.182 78.6631 355.437 78.9373 355.614 79.2903C355.796 79.6432 355.888 80.0592 355.888 80.5383C355.888 80.6013 355.885 80.6612 355.878 80.7179C355.878 80.7746 355.872 80.8377 355.859 80.907H351.879V80.2735H355.396L355.15 80.6234C355.15 80.0435 355.021 79.5991 354.763 79.2903C354.51 78.9751 354.151 78.8175 353.685 78.8175C353.206 78.8175 352.818 78.9846 352.522 79.3186C352.232 79.6464 352.087 80.0908 352.087 80.6517C352.087 81.2253 352.232 81.6854 352.522 82.0321C352.818 82.3725 353.212 82.5426 353.704 82.5426C354.013 82.5426 354.284 82.4765 354.517 82.3441C354.75 82.2054 354.92 82.01 355.027 81.7579H355.746C355.588 82.1991 355.324 82.5489 354.952 82.8074C354.586 83.0595 354.158 83.1855 353.666 83.1855ZM356.564 83.091V82.1172H357.538V83.091H356.564ZM358.595 83.091V82.1172H359.569V83.091H358.595ZM360.627 83.091V82.1172H361.6V83.091H360.627Z" fill="#888888"/>
<path d="M563 97H187C183.686 97 181 99.6863 181 103V284C181 287.314 183.686 290 187 290H563C566.314 290 569 287.314 569 284V103C569 99.6863 566.314 97 563 97Z" fill="#FAFAFA"/>
<path d="M249 103H195V109H249V103Z" fill="#EEEEEE"/>
<path d="M249 140H195V146H249V140Z" fill="#EEEEEE"/>
<path d="M222 154H195V177H222V154Z" fill="#EEEEEE"/>
<path d="M222 186H195V209H222V186Z" fill="#EEEEEE"/>
<path d="M222 220H195V243H222V220Z" fill="#EEEEEE"/>
<path d="M222 253H195V276H222V253Z" fill="#EEEEEE"/>
<path d="M278 158H225V163H278V158Z" fill="#EEEEEE"/>
<path d="M303 190H225V195H303V190Z" fill="#EEEEEE"/>
<path d="M303 224H225V229H303V224Z" fill="#EEEEEE"/>
<path d="M303 257H225V262H303V257Z" fill="#EEEEEE"/>
<path d="M282 169H225V174H282V169Z" fill="#EEEEEE"/>
<path d="M282 201H225V206H282V201Z" fill="#EEEEEE"/>
<path d="M282 235H225V240H282V235Z" fill="#EEEEEE"/>
<path d="M282 268H225V273H282V268Z" fill="#EEEEEE"/>
<path d="M219 115H195V127H219V115Z" fill="#FFCA20"/>
<path d="M267 115H229V127H267V115Z" fill="#FFCA20"/>
<path d="M306 115H277V127H306V115Z" fill="#FFCA20"/>
<path d="M345 115H316V127H345V115Z" fill="#FFCA20"/>
<path d="M401 115H355V127H401V115Z" fill="#FFCA20"/>
<path d="M561.336 455.641L563.196 463.471C563.196 463.471 576.006 480.101 579.956 479.291C582.546 478.761 579.366 474.421 574.496 461.781L573.496 456.571L561.336 455.641Z" fill="#FFCA20"/>
<path d="M580.473 476.829C580.32 477.114 580.083 477.345 579.793 477.489C579.392 477.661 578.952 477.72 578.52 477.66C578.088 477.601 577.681 477.424 577.343 477.149C575.097 475.279 572.967 473.276 570.963 471.149C568.593 468.659 566.603 466.269 565.203 464.499L563.563 462.399C563.413 462.189 563.263 461.999 563.123 461.819C563.075 461.748 563.018 461.684 562.953 461.629C562.953 461.629 562.953 461.709 563.083 461.849C563.213 461.989 563.353 462.229 563.493 462.449C563.853 462.969 564.393 463.709 565.073 464.599C566.861 466.937 568.774 469.177 570.803 471.309C572.809 473.458 574.965 475.463 577.253 477.309C577.678 477.611 578.174 477.797 578.693 477.849C579.088 477.873 579.483 477.786 579.833 477.599C580.052 477.481 580.238 477.309 580.373 477.099C580.425 477.017 580.459 476.925 580.473 476.829Z" fill="#222222"/>
<path d="M578.664 471.49C578.327 471.358 577.962 471.317 577.604 471.37C576.746 471.457 575.92 471.745 575.194 472.21C574.441 472.64 573.832 473.284 573.444 474.06C573.276 474.368 573.18 474.71 573.164 475.06C573.164 475.06 573.284 474.67 573.584 474.11C573.996 473.39 574.594 472.793 575.314 472.38C576.017 471.934 576.803 471.634 577.624 471.5C578.254 471.44 578.654 471.53 578.664 471.49Z" fill="#222222"/>
<path d="M566.534 467.579C566.534 467.579 566.614 467.459 566.694 467.209C566.806 466.86 566.89 466.502 566.944 466.139C567.128 464.919 566.917 463.672 566.344 462.579C565.793 461.469 564.879 460.58 563.754 460.059C563.436 459.909 563.1 459.798 562.754 459.729C562.619 459.705 562.48 459.705 562.344 459.729C562.822 459.853 563.287 460.021 563.734 460.229C564.794 460.772 565.655 461.637 566.194 462.699C566.739 463.759 566.962 464.954 566.834 466.139C566.674 466.999 566.494 467.569 566.534 467.579Z" fill="#222222"/>
<path d="M562.156 457C562.096 457 562.386 458.11 562.626 459.5C562.72 460.349 562.942 461.178 563.286 461.96C563.336 461.96 563.086 460.84 562.846 459.45C562.738 458.604 562.506 457.778 562.156 457Z" fill="#222222"/>
<path d="M574.714 462.891C574.178 462.734 573.609 462.734 573.074 462.891C572.522 462.974 572.008 463.217 571.594 463.591C571.594 463.651 572.264 463.31 573.124 463.11C573.984 462.91 574.714 463.001 574.714 462.891Z" fill="#222222"/>
<path d="M574.983 464.229C574.541 464.047 574.048 464.029 573.593 464.179C573.123 464.251 572.694 464.489 572.383 464.849C572.383 464.849 572.933 464.569 573.653 464.399C574.373 464.229 574.973 464.299 574.983 464.229Z" fill="#222222"/>
<path d="M576.005 465.91C575.793 465.779 575.556 465.695 575.31 465.664C575.063 465.633 574.812 465.655 574.575 465.73C574.328 465.767 574.092 465.855 573.881 465.989C573.671 466.124 573.492 466.301 573.355 466.51C573.749 466.304 574.161 466.133 574.585 466C575.054 465.92 575.53 465.89 576.005 465.91Z" fill="#222222"/>
<path d="M573.836 462.33C573.836 462.33 573.246 462.17 572.336 461.81C571.802 461.601 571.284 461.354 570.786 461.07C570.506 460.91 570.226 460.73 569.936 460.53C569.646 460.33 569.396 460.05 569.406 459.75C569.416 459.45 569.786 459.28 570.086 459.35C570.392 459.453 570.665 459.636 570.876 459.88C571.346 460.32 571.746 460.75 572.076 461.11C572.726 461.85 573.076 462.34 573.076 462.31C573.014 462.18 572.94 462.056 572.856 461.94C572.696 461.71 572.466 461.39 572.146 461.01C571.785 460.557 571.394 460.13 570.976 459.73C570.74 459.453 570.432 459.245 570.086 459.13C569.981 459.093 569.869 459.08 569.759 459.092C569.648 459.103 569.541 459.139 569.446 459.196C569.35 459.253 569.269 459.331 569.207 459.423C569.144 459.515 569.103 459.62 569.086 459.73C569.106 459.935 569.175 460.133 569.286 460.307C569.397 460.48 569.548 460.625 569.726 460.73C570.009 460.929 570.303 461.112 570.606 461.28C571.115 461.56 571.647 461.798 572.196 461.99C572.566 462.115 572.944 462.218 573.326 462.3C573.494 462.335 573.665 462.345 573.836 462.33Z" fill="#222222"/>
<path d="M573.166 462.17C573.267 461.698 573.343 461.22 573.395 460.74C573.48 460.227 573.627 459.727 573.835 459.25C573.959 458.979 574.122 458.726 574.316 458.5C574.506 458.28 574.806 458.09 575.046 458.23C575.286 458.37 575.315 458.72 575.285 459.01C575.235 459.305 575.151 459.594 575.035 459.87C574.823 460.341 574.54 460.776 574.195 461.16C573.605 461.82 573.135 462.16 573.195 462.16C573.317 462.109 573.431 462.042 573.535 461.96C573.822 461.746 574.092 461.512 574.345 461.26C574.721 460.875 575.029 460.428 575.256 459.94C575.394 459.652 575.487 459.346 575.535 459.03C575.576 458.847 575.566 458.657 575.504 458.48C575.443 458.303 575.332 458.147 575.186 458.03C575.008 457.962 574.811 457.956 574.629 458.015C574.447 458.073 574.292 458.191 574.186 458.35C573.977 458.595 573.808 458.872 573.686 459.17C573.474 459.66 573.334 460.179 573.275 460.71C573.225 461.16 573.205 461.52 573.195 461.77C573.163 461.901 573.153 462.036 573.166 462.17Z" fill="#222222"/>
<g opacity="0.4">
<path d="M563.193 463.469L562.293 459.709C562.293 459.709 565.433 460.289 566.243 462.639C566.724 463.915 566.935 465.277 566.863 466.639L573.683 473.999C573.683 473.999 575.393 470.659 578.493 471.459C578.493 471.459 580.933 476.829 580.853 478.169C580.773 479.509 579.213 479.349 578.663 479.099C576.407 477.791 574.349 476.168 572.553 474.279C568.943 470.529 564.943 465.779 563.193 463.469Z" fill="black"/>
</g>
<path d="M500.004 460.67L499.944 450.23L519.504 450L519.754 465.27L518.544 465.36C513.144 465.73 491.094 466.84 487.464 465.79C483.434 464.62 500.004 460.67 500.004 460.67Z" fill="#FFCA20"/>
<g opacity="0.4">
<path d="M512.656 465.199C512.929 463.546 513.801 462.051 515.106 460.999C516.384 459.955 518.008 459.431 519.656 459.529L519.726 464.989L512.656 465.199Z" fill="black"/>
</g>
<g opacity="0.4">
<path d="M491.903 462.891C491.903 462.891 486.103 464.641 486.843 465.591C487.583 466.541 509.913 466.261 519.753 465.271V464.841L493.753 465.391C493.753 465.391 493.043 462.931 491.903 462.891Z" fill="black"/>
</g>
<path d="M520.022 464.82H519.682L518.682 464.89L515.122 465.09C512.122 465.23 507.972 465.38 503.392 465.44C498.812 465.5 494.652 465.44 491.652 465.44L488.092 465.33H487.092C486.983 465.337 486.872 465.337 486.762 465.33C486.875 465.315 486.99 465.315 487.102 465.33H488.102H491.662C494.662 465.33 498.812 465.33 503.402 465.33C507.992 465.33 512.132 465.14 515.132 465.04L518.682 464.92H519.682L520.022 464.82Z" fill="#222222"/>
<path d="M493.676 465.69C493.519 465.101 493.291 464.534 492.996 464C492.641 463.506 492.228 463.056 491.766 462.66C492.35 462.91 492.844 463.329 493.185 463.865C493.526 464.4 493.697 465.026 493.676 465.66V465.69Z" fill="#222222"/>
<path d="M499.415 462.69C499.355 462.69 499.075 462.39 498.785 461.95C498.58 461.695 498.433 461.398 498.355 461.08C498.415 461.08 498.695 461.37 498.985 461.82C499.192 462.074 499.339 462.371 499.415 462.69Z" fill="#222222"/>
<path d="M500.982 461.83C500.982 461.88 500.632 461.68 500.292 461.38C499.952 461.08 499.702 460.8 499.752 460.75C499.802 460.7 500.102 460.91 500.442 461.2C500.782 461.49 501.022 461.78 500.982 461.83Z" fill="#222222"/>
<path d="M501.965 460C501.647 460.123 501.305 460.174 500.965 460.15C500.628 460.194 500.286 460.159 499.965 460.05C500.284 459.929 500.625 459.882 500.965 459.91C501.301 459.873 501.641 459.903 501.965 460Z" fill="#222222"/>
<path d="M502.297 458.671C501.96 458.897 501.563 459.016 501.157 459.011C500.758 459.085 500.347 459.036 499.977 458.871C500.36 458.806 500.748 458.776 501.137 458.781C501.518 458.701 501.907 458.664 502.297 458.671Z" fill="#222222"/>
<path d="M498.727 461C498.313 461.074 497.89 461.074 497.477 461C497.019 460.948 496.567 460.855 496.127 460.72C495.859 460.65 495.601 460.549 495.357 460.42C495.208 460.333 495.098 460.194 495.047 460.03C495.023 459.938 495.027 459.841 495.059 459.752C495.091 459.662 495.15 459.585 495.227 459.53C495.703 459.288 496.248 459.219 496.769 459.333C497.291 459.448 497.756 459.74 498.087 460.16C498.284 460.407 498.428 460.693 498.507 461C498.535 461.111 498.535 461.228 498.507 461.34C498.374 460.951 498.174 460.589 497.917 460.27C497.631 459.942 497.256 459.705 496.837 459.59C496.591 459.507 496.332 459.475 496.074 459.496C495.816 459.516 495.565 459.589 495.337 459.71C495.147 459.86 495.227 460.09 495.447 460.22C495.672 460.341 495.91 460.438 496.157 460.51C496.582 460.65 497.016 460.76 497.457 460.84C498.247 461 498.727 461 498.727 461Z" fill="#222222"/>
<path d="M498.403 461.059C498.245 460.799 498.188 460.489 498.243 460.189C498.281 459.861 498.394 459.546 498.573 459.269C498.673 459.086 498.816 458.929 498.991 458.814C499.165 458.699 499.365 458.629 499.573 458.609C499.701 458.638 499.812 458.714 499.887 458.821C499.961 458.929 499.992 459.06 499.973 459.189C499.946 459.389 499.875 459.581 499.763 459.749C499.603 460.029 499.408 460.288 499.183 460.519C498.99 460.749 498.742 460.928 498.463 461.039C498.463 461.039 498.713 460.809 499.053 460.409C499.253 460.175 499.427 459.92 499.573 459.649C499.743 459.379 499.853 458.899 499.573 458.849C499.293 458.799 498.943 459.139 498.753 459.389C498.58 459.634 498.464 459.914 498.413 460.209C498.383 460.492 498.379 460.776 498.403 461.059Z" fill="#222222"/>
<path d="M519.583 459.469C519.583 459.469 519.023 459.469 518.143 459.539C516.991 459.678 515.903 460.142 515.005 460.877C514.107 461.612 513.437 462.587 513.073 463.689C512.783 464.529 512.763 465.099 512.713 465.089C512.694 464.96 512.694 464.828 512.713 464.699C512.737 464.339 512.804 463.983 512.913 463.639C513.251 462.487 513.927 461.463 514.853 460.699C515.784 459.938 516.925 459.477 518.124 459.379C518.483 459.342 518.844 459.342 519.203 459.379C519.334 459.388 519.462 459.419 519.583 459.469Z" fill="#222222"/>
<path d="M517.426 451.359C517.579 452.687 517.652 454.023 517.646 455.359C517.73 456.691 517.73 458.027 517.646 459.359C517.501 458.031 517.428 456.696 517.426 455.359C517.348 454.027 517.348 452.692 517.426 451.359Z" fill="#222222"/>
<path d="M510.173 463.329C509.241 463.56 508.283 463.667 507.323 463.649C506.362 463.709 505.397 463.645 504.453 463.459C504.453 463.389 505.743 463.459 507.313 463.459C508.883 463.459 510.163 463.259 510.173 463.329Z" fill="#222222"/>
<path d="M514.004 463.269C514.054 463.319 513.903 463.549 513.773 463.839C513.643 464.129 513.583 464.399 513.513 464.389C513.443 464.379 513.413 464.089 513.513 463.749C513.613 463.409 513.964 463.229 514.004 463.269Z" fill="#222222"/>
<path d="M515.422 461.46C515.422 461.46 515.352 461.71 515.152 461.92C514.952 462.13 514.752 462.26 514.702 462.21C514.652 462.16 514.782 461.96 514.982 461.75C515.182 461.54 515.382 461.41 515.422 461.46Z" fill="#222222"/>
<path d="M517.484 460.61C517.484 460.68 517.214 460.68 516.924 460.78C516.634 460.88 516.434 461.04 516.384 461C516.334 460.96 516.494 460.68 516.844 460.56C517.194 460.44 517.504 460.55 517.484 460.61Z" fill="#222222"/>
<path d="M518.954 460.199C518.954 460.259 518.864 460.369 518.704 460.429C518.544 460.489 518.394 460.499 518.364 460.429C518.334 460.359 518.454 460.269 518.614 460.199C518.774 460.129 518.924 460.139 518.954 460.199Z" fill="#222222"/>
<path d="M486.773 259.289L494.283 455.319L524.743 455.959L519.683 286.099L553.943 457.259H582.903L545.593 259.679L486.773 259.289Z" fill="#222222"/>
<path d="M512.664 266.42C512.695 267.504 512.812 268.584 513.014 269.65C513.304 271.65 513.724 274.37 514.234 277.39C514.427 278.825 514.718 280.245 515.104 281.64C515.447 282.821 516.146 283.869 517.104 284.64C517.741 285.161 518.503 285.506 519.314 285.64C519.606 285.715 519.912 285.715 520.204 285.64C519.108 285.499 518.081 285.03 517.257 284.295C516.432 283.559 515.849 282.592 515.584 281.52C515.236 280.139 514.966 278.741 514.774 277.33C514.264 274.33 513.774 271.58 513.404 269.62C513.248 268.534 513 267.464 512.664 266.42Z" fill="#455A64"/>
<path d="M519.004 267.36C518.934 267.41 519.184 267.72 519.004 268.24C518.97 268.379 518.907 268.508 518.819 268.62C518.731 268.732 518.62 268.824 518.494 268.89C518.342 268.956 518.173 268.973 518.011 268.941C517.848 268.909 517.699 268.828 517.584 268.71C517.455 268.609 517.359 268.474 517.306 268.319C517.253 268.165 517.245 267.999 517.284 267.84C517.334 267.705 517.412 267.582 517.514 267.481C517.616 267.379 517.739 267.3 517.874 267.25C518.364 267.04 518.714 267.25 518.754 267.17C518.794 267.09 518.474 266.73 517.754 266.89C517.548 266.938 517.357 267.033 517.195 267.169C517.034 267.304 516.906 267.476 516.824 267.67C516.745 267.925 516.741 268.198 516.814 268.455C516.887 268.712 517.033 268.942 517.234 269.118C517.435 269.294 517.683 269.407 517.947 269.445C518.212 269.483 518.481 269.443 518.724 269.33C518.901 269.224 519.052 269.078 519.164 268.905C519.277 268.732 519.348 268.535 519.374 268.33C519.484 267.58 519.024 267.29 519.004 267.36Z" fill="#455A64"/>
<path d="M535.365 270.149C535.728 269.266 535.866 268.305 535.765 267.355C535.663 266.405 535.326 265.496 534.785 264.709C534.635 264.779 535.075 265.929 535.225 267.419C535.375 268.909 535.205 270.119 535.365 270.149Z" fill="#455A64"/>
<path d="M531.695 269.92C532.142 269.031 532.296 268.022 532.135 267.04C532.156 266.046 531.866 265.071 531.305 264.25C531.351 265.198 531.451 266.143 531.605 267.08C531.583 268.028 531.613 268.976 531.695 269.92Z" fill="#455A64"/>
<path d="M500.214 270.72C500.241 269.737 500.184 268.754 500.044 267.78C500.079 266.795 500.035 265.808 499.914 264.83C499.501 265.772 499.359 266.811 499.504 267.83C499.482 268.839 499.727 269.836 500.214 270.72Z" fill="#455A64"/>
<path d="M496.234 270.5C496.384 270.44 495.914 269.16 495.804 267.5C495.694 265.84 495.974 264.5 495.804 264.5C495.284 265.43 495.087 266.506 495.244 267.56C495.244 268.622 495.592 269.654 496.234 270.5Z" fill="#455A64"/>
<path d="M529.213 177.73L510.413 176.23C510.293 174.03 510.413 165.54 510.413 165.54C510.413 165.54 502.583 164.32 502.493 156.54C502.403 148.76 503.753 130.75 503.753 130.75C508.201 128.838 513.078 128.149 517.881 128.754C522.684 129.359 527.239 131.235 531.073 134.19L532.233 135.08L529.213 177.73Z" fill="#FFBE9D"/>
<path d="M510.436 165.419C514.048 165.493 517.599 164.487 520.636 162.529C520.636 162.529 518.226 168.159 510.426 167.449L510.436 165.419Z" fill="#EB996E"/>
<path d="M531.304 143.14C531.434 143.08 536.684 141.55 536.514 146.9C536.344 152.25 531.004 150.97 531.004 150.82C531.004 150.67 531.304 143.14 531.304 143.14Z" fill="#FFBE9D"/>
<path d="M532.694 148.85C532.694 148.85 532.794 148.91 532.944 148.99C533.169 149.08 533.419 149.08 533.644 148.99C533.99 148.783 534.276 148.49 534.474 148.14C534.672 147.789 534.776 147.393 534.774 146.99C534.801 146.533 534.726 146.075 534.554 145.65C534.511 145.48 534.426 145.323 534.307 145.194C534.189 145.065 534.04 144.968 533.874 144.91C533.769 144.88 533.656 144.887 533.556 144.931C533.455 144.975 533.373 145.052 533.324 145.15C533.244 145.3 533.274 145.41 533.244 145.41C533.214 145.41 533.134 145.32 533.184 145.1C533.216 144.968 533.294 144.851 533.404 144.77C533.556 144.667 533.742 144.624 533.924 144.65C534.141 144.703 534.342 144.81 534.508 144.96C534.673 145.11 534.799 145.299 534.874 145.51C535.084 145.981 535.177 146.496 535.144 147.01C535.156 147.487 535.027 147.957 534.772 148.361C534.518 148.765 534.15 149.085 533.714 149.28C533.569 149.317 533.417 149.321 533.27 149.292C533.123 149.263 532.984 149.2 532.864 149.11C532.704 149 532.684 148.85 532.694 148.85Z" fill="#EB996E"/>
<path d="M506.356 142.749C506.353 143.041 506.464 143.323 506.666 143.534C506.868 143.745 507.144 143.869 507.436 143.879C507.577 143.89 507.719 143.873 507.854 143.828C507.989 143.784 508.113 143.713 508.22 143.62C508.327 143.527 508.415 143.413 508.477 143.286C508.54 143.159 508.577 143.021 508.586 142.879C508.589 142.587 508.477 142.306 508.276 142.095C508.074 141.884 507.798 141.76 507.506 141.749C507.365 141.738 507.222 141.756 507.088 141.8C506.953 141.845 506.829 141.916 506.722 142.009C506.615 142.102 506.527 142.215 506.464 142.342C506.402 142.469 506.365 142.608 506.356 142.749Z" fill="#222222"/>
<path d="M505.273 141.719C505.413 141.859 506.273 141.239 507.453 141.239C508.633 141.239 509.543 141.839 509.673 141.699C509.803 141.559 509.593 141.369 509.213 141.089C508.69 140.728 508.069 140.536 507.433 140.539C506.809 140.54 506.201 140.736 505.693 141.099C505.323 141.389 505.203 141.649 505.273 141.719Z" fill="#222222"/>
<path d="M518.404 142.84C518.397 142.988 518.42 143.135 518.471 143.274C518.522 143.412 518.6 143.539 518.7 143.647C518.801 143.755 518.922 143.842 519.056 143.903C519.191 143.963 519.336 143.997 519.484 144C519.625 144.011 519.767 143.994 519.902 143.949C520.037 143.905 520.161 143.834 520.268 143.741C520.375 143.648 520.462 143.535 520.525 143.407C520.588 143.28 520.625 143.142 520.634 143C520.634 142.71 520.521 142.431 520.32 142.222C520.119 142.013 519.844 141.891 519.554 141.88C519.275 141.858 518.998 141.946 518.783 142.126C518.568 142.305 518.432 142.562 518.404 142.84Z" fill="#222222"/>
<path d="M517.085 141.94C517.225 142.09 518.085 141.46 519.275 141.46C520.465 141.46 521.355 142.07 521.485 141.92C521.615 141.77 521.415 141.59 521.025 141.31C520.507 140.948 519.887 140.759 519.255 140.77C518.63 140.766 518.02 140.962 517.515 141.33C517.145 141.61 517.025 141.88 517.085 141.94Z" fill="#222222"/>
<path d="M512.724 150.86C512.092 150.657 511.437 150.537 510.774 150.5C510.464 150.5 510.174 150.41 510.124 150.2C510.102 149.884 510.172 149.568 510.324 149.29L511.234 146.95C512.067 144.971 512.736 142.928 513.234 140.84C512.239 142.752 511.394 144.738 510.704 146.78L509.834 149.13C509.646 149.5 509.593 149.925 509.684 150.33C509.726 150.439 509.793 150.537 509.88 150.615C509.967 150.693 510.071 150.75 510.184 150.78C510.354 150.825 510.529 150.848 510.704 150.85C511.375 150.935 512.053 150.938 512.724 150.86Z" fill="#222222"/>
<path d="M516.264 151.69C516.064 151.69 516.064 152.98 514.944 153.91C513.824 154.84 512.444 154.69 512.434 154.91C512.424 155.13 512.744 155.17 513.324 155.18C514.091 155.193 514.839 154.935 515.434 154.45C515.996 153.983 516.355 153.316 516.434 152.59C516.494 152 516.354 151.68 516.264 151.69Z" fill="#222222"/>
<path d="M516.776 137.229C516.896 137.559 518.096 137.399 519.506 137.569C520.916 137.739 522.056 138.129 522.246 137.829C522.326 137.689 522.136 137.389 521.676 137.069C521.075 136.677 520.39 136.434 519.676 136.359C518.953 136.272 518.219 136.358 517.536 136.609C516.986 136.819 516.726 137.069 516.776 137.229Z" fill="#222222"/>
<path d="M505.715 138.239C505.925 138.509 506.715 138.239 507.715 138.239C508.715 138.239 509.555 138.429 509.715 138.139C509.875 137.849 509.715 137.729 509.295 137.469C508.801 137.158 508.224 137.001 507.64 137.019C507.056 137.037 506.49 137.228 506.015 137.569C505.735 137.819 505.585 138.099 505.715 138.239Z" fill="#222222"/>
<path d="M499.985 125.77C499.928 125.285 499.995 124.794 500.181 124.342C500.366 123.891 500.664 123.494 501.045 123.19C501.44 122.902 501.925 122.764 502.412 122.801C502.899 122.838 503.358 123.046 503.705 123.39C503.631 123.067 503.625 122.732 503.688 122.407C503.75 122.081 503.879 121.773 504.067 121.5C504.256 121.227 504.498 120.997 504.78 120.823C505.062 120.649 505.377 120.535 505.705 120.49C506.985 120.41 508.065 121.38 509.305 121.71C510.535 121.97 511.817 121.823 512.955 121.29C514.115 120.83 515.195 120.18 516.365 119.75C518.843 118.843 521.579 118.952 523.976 120.054C526.374 121.155 528.239 123.159 529.165 125.63C530.038 125.413 530.956 125.468 531.798 125.785C532.639 126.103 533.364 126.67 533.875 127.41C534.868 128.923 535.264 130.751 534.985 132.54C534.82 133.739 534.521 134.916 534.095 136.05C534.095 136.15 534.095 136.25 534.095 136.35C534.005 140.66 533.525 145.71 531.685 145.74C528.485 145.74 529.255 139.74 529.255 139.74C525.325 138.22 526.785 132.34 525.805 131.45C524.825 130.56 522.805 128.45 514.555 132.68C511.496 134.045 508.086 134.416 504.805 133.74H504.595H504.525C503.779 133.553 503.066 133.249 502.415 132.84C501.644 132.398 501.035 131.722 500.675 130.91C500.508 130.501 500.462 130.053 500.542 129.619C500.621 129.185 500.824 128.782 501.125 128.46C500.483 127.698 500.085 126.761 499.985 125.77Z" fill="#222222"/>
<path d="M514.585 142.79C514.635 142.79 514.585 142.36 514.835 141.63C515.128 140.606 515.754 139.708 516.615 139.08C517.303 138.566 518.121 138.254 518.977 138.178C519.832 138.103 520.692 138.266 521.46 138.651C522.228 139.036 522.874 139.627 523.325 140.358C523.776 141.089 524.015 141.931 524.015 142.79C524.015 143.649 523.776 144.491 523.325 145.222C522.874 145.953 522.228 146.544 521.46 146.929C520.692 147.314 519.832 147.478 518.977 147.402C518.121 147.327 517.303 147.014 516.615 146.5C515.758 145.869 515.132 144.973 514.835 143.95C514.625 143.22 514.635 142.79 514.585 142.79C514.535 142.79 514.585 142.89 514.585 143.1C514.578 143.403 514.609 143.705 514.675 144C514.914 145.107 515.533 146.094 516.425 146.79C517.092 147.316 517.881 147.664 518.719 147.801C519.557 147.937 520.416 147.858 521.215 147.57C521.908 147.326 522.539 146.935 523.065 146.423C523.591 145.911 524 145.291 524.263 144.605C524.526 143.92 524.637 143.186 524.588 142.453C524.54 141.721 524.333 141.007 523.981 140.363C523.63 139.718 523.143 139.157 522.554 138.72C521.965 138.282 521.287 137.977 520.569 137.826C519.85 137.676 519.108 137.683 518.392 137.848C517.677 138.013 517.006 138.331 516.425 138.78C515.532 139.48 514.913 140.471 514.675 141.58C514.608 141.876 514.578 142.178 514.585 142.48C514.585 142.68 514.585 142.79 514.585 142.79Z" fill="#222222"/>
<path d="M501.585 142.791C501.585 142.791 501.585 142.361 501.835 141.631C502.127 140.608 502.75 139.712 503.605 139.081C504.293 138.567 505.111 138.254 505.967 138.179C506.822 138.103 507.682 138.267 508.45 138.652C509.218 139.037 509.864 139.628 510.315 140.359C510.766 141.09 511.005 141.932 511.005 142.791C511.005 143.65 510.766 144.492 510.315 145.223C509.864 145.954 509.218 146.545 508.45 146.93C507.682 147.315 506.822 147.478 505.967 147.403C505.111 147.327 504.293 147.015 503.605 146.501C502.753 145.866 502.132 144.971 501.835 143.951C501.625 143.221 501.635 142.791 501.585 142.791C501.535 142.791 501.585 142.891 501.585 143.101C501.578 143.403 501.609 143.705 501.675 144.001C501.914 145.107 502.533 146.094 503.425 146.791C504.091 147.315 504.878 147.662 505.714 147.798C506.55 147.934 507.408 147.856 508.205 147.571C509.194 147.221 510.049 146.574 510.655 145.718C511.26 144.862 511.585 143.839 511.585 142.791C511.585 141.742 511.26 140.72 510.655 139.864C510.049 139.007 509.194 138.36 508.205 138.011C507.408 137.724 506.552 137.644 505.716 137.778C504.88 137.913 504.091 138.258 503.425 138.781C502.532 139.481 501.913 140.471 501.675 141.581C501.608 141.876 501.578 142.178 501.585 142.481C501.585 142.681 501.585 142.791 501.585 142.791Z" fill="#222222"/>
<path d="M510.934 142.49C510.994 142.63 511.804 142.39 512.814 142.44C513.824 142.49 514.614 142.77 514.684 142.64C514.754 142.51 513.974 141.96 512.834 141.92C511.694 141.88 510.864 142.37 510.934 142.49Z" fill="#222222"/>
<path d="M524.363 142.44C525.471 142.757 526.62 142.909 527.773 142.89C528.917 143.034 530.076 143.011 531.213 142.82C530.106 142.496 528.956 142.344 527.803 142.37C526.659 142.226 525.5 142.25 524.363 142.44Z" fill="#222222"/>
<path d="M476.794 204.809L470.584 215.999L466.794 185.569C466.626 183.364 467.062 181.155 468.054 179.179C468.47 178.296 468.987 177.463 469.594 176.699C470.36 175.753 471.252 174.915 472.244 174.209C472.454 174.113 472.63 173.954 472.746 173.754C472.861 173.554 472.912 173.323 472.89 173.092C472.868 172.862 472.774 172.645 472.623 172.47C472.471 172.296 472.269 172.173 472.044 172.119C471.044 172.009 468.344 173.459 466.214 176.379C464.084 179.299 463.864 173.679 463.744 171.639C463.624 169.599 462.964 163.319 462.314 162.869C461.314 162.219 460.454 163.149 460.614 165.189C460.774 167.229 460.854 173.359 459.774 173.399C458.694 173.439 458.254 163.039 458.254 163.039C458.254 163.039 458.514 160.789 457.254 160.799C455.014 160.799 456.314 171.799 456.464 172.799C456.564 173.519 455.394 173.609 455.324 172.799C455.254 171.989 455.104 162.419 452.824 162.399C451.064 162.399 453.824 171.459 452.744 173.489C451.664 175.519 451.364 166.379 449.684 166.439C449.064 166.439 448.594 166.559 449.524 171.759C450.024 174.559 451.874 178.589 452.434 184.049L452.584 185.459C452.694 192.259 454.194 212.749 460.374 228.349C461.238 230.48 462.667 232.335 464.507 233.714C466.347 235.094 468.528 235.945 470.816 236.176C473.104 236.408 475.411 236.011 477.49 235.028C479.569 234.045 481.341 232.514 482.614 230.599C486.414 224.869 492.424 209.889 492.424 209.889L476.794 204.809Z" fill="#FFBE9D"/>
<path d="M455.824 181.28C455.824 181.33 456.174 181.28 456.714 181.51C457.443 181.764 458.057 182.272 458.444 182.94L458.654 183.32L458.774 182.9C458.951 182.302 459.232 181.74 459.604 181.24C460.327 180.261 461.327 179.523 462.474 179.12C463.354 178.81 463.954 178.83 463.954 178.75C463.434 178.644 462.895 178.682 462.394 178.86C461.144 179.199 460.048 179.954 459.284 181C458.884 181.535 458.592 182.143 458.424 182.79H458.754C458.537 182.423 458.248 182.105 457.904 181.854C457.56 181.603 457.169 181.425 456.754 181.33C456.457 181.215 456.132 181.198 455.824 181.28Z" fill="#EB996E"/>
<path d="M488.233 182.6L470.583 216L467.583 186.47H451.773L457.583 228.56C457.861 230.88 458.791 233.073 460.265 234.886C461.74 236.698 463.698 238.056 465.913 238.8C471.653 240.73 479.283 238.48 482.113 233.13L492.453 215.53L488.233 182.6Z" fill="#FFCA20"/>
<path d="M469.484 229.82C469.986 229.269 470.386 228.632 470.664 227.94C472.213 224.657 472.567 220.936 471.664 217.42C471.51 216.688 471.233 215.988 470.844 215.35C472.281 220.165 471.801 225.35 469.504 229.82H469.484Z" fill="#222222"/>
<g opacity="0.3">
<path d="M471.083 214.879C472.699 216.004 473.806 217.722 474.163 219.659C474.519 221.58 474.556 223.546 474.273 225.479C474.259 226.04 474.108 226.59 473.833 227.079C473.69 227.319 473.469 227.504 473.207 227.602C472.946 227.7 472.658 227.706 472.393 227.619C472.187 227.501 472.019 227.328 471.906 227.12C471.793 226.911 471.74 226.676 471.753 226.439C471.787 225.969 471.891 225.507 472.063 225.069C472.561 223.423 472.69 221.688 472.439 219.987C472.189 218.285 471.565 216.661 470.613 215.229" fill="black"/>
</g>
<path d="M538.266 174.779C535.626 174.279 533.066 173.319 529.966 173.189C523.458 175.244 516.474 175.244 509.966 173.189C509.146 173.299 507.966 173.399 506.596 173.569C497.886 174.569 494.546 176.439 488.286 182.569L488.976 217.819C488.976 217.819 486.876 257.939 486.976 264.419H546.496L546.586 237.239V229.839L566.126 236.999L564.346 226.719C564.346 226.719 555.586 192.599 554.206 187.999C552.586 182.419 546.586 176.369 538.266 174.779Z" fill="#FFCA20"/>
<path d="M557.154 227.26L528.584 219.83L520.414 233.12L549.514 245.37C551.038 246.044 552.688 246.385 554.354 246.37C556.688 246.368 558.969 245.673 560.907 244.373C562.846 243.074 564.355 241.228 565.244 239.07L566.124 236.91L557.154 227.26Z" fill="#FFCA20"/>
<path d="M542.262 224.36C542.402 224.36 542.522 219.11 542.522 212.64C542.522 206.17 542.402 200.93 542.262 200.93C542.122 200.93 541.992 206.17 541.992 212.64C541.992 219.11 542.112 224.36 542.262 224.36Z" fill="#222222"/>
<g opacity="0.3">
<path d="M546.796 244.319C545.864 245.821 544.549 247.046 542.986 247.869C539.416 249.799 534.986 249.749 531.156 248.489C527.344 247.078 523.818 244.991 520.746 242.329C516.547 238.941 512.67 235.172 509.166 231.069C509.031 230.951 508.923 230.805 508.851 230.641C508.778 230.477 508.742 230.299 508.746 230.119C508.846 229.499 509.746 229.419 510.326 229.509C516.246 230.449 521.646 233.319 527.046 235.929C533.466 239.036 540.033 241.829 546.746 244.309" fill="black"/>
</g>
<path d="M490.586 204.41C490.613 204.504 490.65 204.595 490.696 204.68L491.066 205.45C491.236 205.78 491.486 206.17 491.766 206.64C492.12 207.165 492.504 207.67 492.916 208.15C494.042 209.477 495.364 210.623 496.836 211.55C498.784 212.79 500.954 213.639 503.226 214.05C505.994 214.544 508.842 214.348 511.516 213.48C514.588 212.484 517.367 210.746 519.606 208.42C522.128 205.87 523.863 202.649 524.606 199.14C524.988 197.285 525.005 195.373 524.656 193.51C524.276 191.587 523.447 189.782 522.236 188.24C521.024 186.68 519.384 185.506 517.516 184.86C516.592 184.542 515.607 184.439 514.636 184.56C513.663 184.693 512.756 185.131 512.046 185.81C511.694 186.147 511.412 186.55 511.216 186.996C511.021 187.443 510.915 187.923 510.906 188.41C510.91 189.354 511.192 190.276 511.716 191.06C512.782 192.509 514.358 193.499 516.126 193.83C519.278 194.543 522.555 194.477 525.676 193.64C528.985 192.767 532.01 191.051 534.458 188.661C536.907 186.271 538.694 183.287 539.646 180C540.097 178.593 540.34 177.128 540.366 175.65C540.341 175.742 540.324 175.836 540.316 175.93L540.196 176.77C540.027 177.845 539.776 178.904 539.446 179.94C538.236 183.754 535.926 187.125 532.806 189.63C530.643 191.328 528.15 192.557 525.486 193.24C522.437 194.038 519.24 194.089 516.166 193.39C514.522 193.075 513.055 192.154 512.056 190.81C511.587 190.109 511.336 189.284 511.336 188.44C511.342 188.019 511.434 187.603 511.606 187.218C511.778 186.833 512.026 186.486 512.336 186.2C512.969 185.594 513.778 185.205 514.646 185.09C515.539 184.98 516.446 185.075 517.296 185.37C519.063 185.991 520.614 187.105 521.766 188.58C522.924 190.059 523.719 191.789 524.086 193.63C524.437 195.423 524.437 197.267 524.086 199.06C523.38 202.472 521.715 205.612 519.286 208.11C517.104 210.392 514.4 212.108 511.406 213.11C508.797 213.973 506.016 214.186 503.306 213.73C501.073 213.343 498.935 212.531 497.006 211.34C495.547 210.444 494.226 209.339 493.086 208.06C492.119 206.941 491.28 205.717 490.586 204.41Z" fill="#E0E0E0"/>
<path d="M488.086 243.369C488.494 242.106 489.041 240.892 489.716 239.749C490.653 238.209 491.914 236.891 493.411 235.886C494.908 234.881 496.605 234.213 498.386 233.929C500.838 233.504 503.353 233.62 505.756 234.269C507.094 234.617 508.394 235.099 509.636 235.709C510.958 236.331 512.179 237.151 513.256 238.139C514.375 239.163 515.109 240.539 515.336 242.039C515.467 242.8 515.375 243.582 515.072 244.292C514.768 245.001 514.266 245.608 513.626 246.039C512.985 246.509 512.184 246.705 511.398 246.585C510.613 246.466 509.907 246.039 509.436 245.399C508.423 244.029 507.739 242.445 507.436 240.769C506.73 237.455 506.958 234.01 508.096 230.819C509.128 227.836 510.904 225.165 513.256 223.059C515.386 221.152 517.879 219.693 520.586 218.769C523.473 217.759 526.543 217.374 529.591 217.639C532.639 217.905 535.596 218.815 538.266 220.309C539.396 220.919 540.216 221.479 540.786 221.849L541.416 222.279L541.646 222.419C540.634 221.545 539.535 220.778 538.366 220.129C535.193 218.269 531.593 217.26 527.916 217.199C525.377 217.153 522.85 217.546 520.446 218.359C517.674 219.281 515.119 220.758 512.936 222.699C510.516 224.856 508.683 227.591 507.606 230.649C506.436 233.934 506.2 237.478 506.926 240.889C507.239 242.643 507.951 244.302 509.006 245.739C509.564 246.466 510.382 246.949 511.288 247.085C512.195 247.221 513.119 247 513.866 246.469C514.611 245.994 515.186 245.293 515.506 244.469C515.812 243.677 515.912 242.82 515.796 241.979C515.566 240.371 514.785 238.894 513.586 237.799C512.472 236.782 511.211 235.939 509.846 235.299C508.565 234.681 507.225 234.196 505.846 233.849C503.379 233.21 500.804 233.111 498.296 233.559C496.477 233.87 494.749 234.576 493.232 235.626C491.715 236.676 490.447 238.046 489.516 239.639C489.015 240.498 488.612 241.41 488.316 242.359C488.236 242.605 488.169 242.856 488.116 243.109C488.094 243.194 488.084 243.281 488.086 243.369Z" fill="#E0E0E0"/>
<path d="M542.523 209.861C542.523 209.861 542.673 210.111 543.023 210.491C543.497 211.039 544.019 211.545 544.583 212.001C545.427 212.676 546.342 213.256 547.313 213.731C548.509 214.31 549.772 214.74 551.073 215.011C553.44 215.443 555.866 215.443 558.233 215.011C558.948 214.887 559.655 214.727 560.353 214.531C560.843 214.381 561.113 214.291 561.103 214.251C561.093 214.211 559.983 214.421 558.183 214.641C555.855 214.95 553.493 214.893 551.183 214.471C549.926 214.207 548.702 213.804 547.533 213.271C546.577 212.826 545.666 212.291 544.813 211.671C543.373 210.621 542.583 209.801 542.523 209.861Z" fill="#E0E0E0"/>
<path d="M547.856 244.549C548.127 243.481 548.495 242.44 548.956 241.439C549.531 240.255 550.338 239.2 551.33 238.335C552.322 237.471 553.478 236.816 554.729 236.409C555.98 236.002 557.3 235.851 558.611 235.966C559.921 236.081 561.195 236.46 562.356 237.079C563.317 237.616 564.227 238.238 565.076 238.939C564.932 238.672 564.738 238.434 564.506 238.239C563.914 237.65 563.24 237.148 562.506 236.749C561.311 236.058 559.984 235.626 558.61 235.482C557.237 235.337 555.849 235.483 554.536 235.911C553.223 236.338 552.015 237.037 550.99 237.962C549.965 238.886 549.146 240.017 548.586 241.279C548.239 242.029 547.997 242.823 547.866 243.639C547.809 243.939 547.805 244.247 547.856 244.549Z" fill="#E0E0E0"/>
<path d="M484.825 228.001C484.964 227.683 485.055 227.345 485.094 227.001C485.289 226.102 485.412 225.189 485.465 224.271C485.557 222.904 485.524 221.531 485.364 220.171C485.155 218.501 484.77 216.859 484.215 215.271C483.639 213.692 482.894 212.18 481.995 210.761C481.26 209.603 480.416 208.518 479.474 207.521C478.854 206.846 478.186 206.218 477.474 205.641C477.228 205.412 476.952 205.217 476.655 205.061C476.585 205.141 477.714 206.061 479.224 207.771C480.108 208.784 480.907 209.868 481.614 211.011C483.344 213.82 484.465 216.961 484.905 220.231C485.084 221.556 485.155 222.894 485.114 224.231C485.024 226.611 484.725 228.001 484.825 228.001Z" fill="#E0E0E0"/>
<path d="M454.926 208.43C454.926 208.43 455.086 208.68 455.476 209.02C456.051 209.494 456.699 209.869 457.396 210.13C458.553 210.554 459.788 210.724 461.016 210.629C462.244 210.534 463.438 210.177 464.516 209.58C465.713 208.913 466.698 207.922 467.356 206.72C467.884 205.755 468.255 204.712 468.456 203.63C468.606 202.916 468.697 202.19 468.726 201.46C468.781 201.193 468.781 200.918 468.726 200.65C468.636 200.65 468.566 201.79 468.136 203.55C467.883 204.575 467.493 205.561 466.976 206.48C466.338 207.589 465.412 208.505 464.296 209.13C463.274 209.691 462.148 210.038 460.988 210.15C459.828 210.261 458.657 210.136 457.546 209.78C456.621 209.438 455.742 208.985 454.926 208.43Z" fill="#E0E0E0"/>
<path d="M486.965 185.12C487.174 185.318 487.418 185.474 487.685 185.58C488.382 185.927 489.127 186.166 489.895 186.29C491.038 186.475 492.206 186.438 493.335 186.18C494.718 185.857 496.023 185.262 497.175 184.43C499.278 182.897 500.711 180.612 501.175 178.05C501.315 177.289 501.356 176.512 501.295 175.74C501.289 175.453 501.235 175.17 501.135 174.9C501.102 175.93 500.995 176.956 500.815 177.97C500.259 180.373 498.866 182.5 496.885 183.97C495.786 184.762 494.548 185.339 493.235 185.67C492.163 185.936 491.052 186.007 489.955 185.88C488.937 185.718 487.936 185.464 486.965 185.12Z" fill="#E0E0E0"/>
<path d="M518.344 264C519.137 262.55 520.005 261.141 520.944 259.78C523.293 256.558 526.356 253.922 529.894 252.08C531.838 251.074 533.896 250.305 536.024 249.79C537.764 249.384 539.546 249.179 541.334 249.18C542.984 249.243 544.629 249.394 546.264 249.63C545.85 249.455 545.417 249.331 544.974 249.26C543.776 249 542.558 248.85 541.334 248.81C539.513 248.757 537.693 248.928 535.914 249.32C533.738 249.819 531.635 250.592 529.654 251.62C526.045 253.489 522.953 256.22 520.654 259.57C519.962 260.576 519.354 261.636 518.834 262.74C518.618 263.138 518.453 263.561 518.344 264Z" fill="#E0E0E0"/>
<path d="M489.732 197.92C489.592 197.92 488.732 212.66 487.822 230.86C486.912 249.06 486.282 263.81 486.432 263.86C486.582 263.91 487.432 249.12 488.342 230.92C489.252 212.72 489.882 197.93 489.732 197.92Z" fill="#222222"/>
<path d="M528.584 219.83C526.582 218.843 524.888 217.329 523.684 215.45C523.133 214.634 522.677 213.759 522.324 212.84C521.904 211.69 521.639 210.49 521.534 209.27C521.534 208.14 520.224 207.55 519.614 208.36C519.004 209.17 518.884 212.26 520.314 215.6C521.744 218.94 516.764 216.26 514.934 215.31C513.104 214.36 507.314 211.7 506.594 212.04C505.534 212.54 505.884 213.8 507.734 214.7C509.584 215.6 514.934 218.7 514.414 219.7C513.894 220.7 504.654 215.7 504.654 215.7C504.654 215.7 502.834 214.32 502.204 215.4C501.054 217.4 511.204 221.87 512.204 222.28C512.884 222.56 512.354 223.62 511.634 223.28C510.914 222.94 502.524 218.12 501.334 220.1C500.414 221.61 509.684 223.9 510.904 225.87C512.124 227.84 504.034 223.41 503.214 224.87C502.914 225.43 502.764 225.87 507.754 227.75C510.434 228.75 514.874 229.23 519.894 231.55L521.204 232.14" fill="#FFBE9D"/>
<path d="M548.395 244.899C548.225 244.787 548.044 244.693 547.855 244.619L546.285 243.909L540.405 241.349L520.515 232.879L520.635 233.259L523.295 228.999L528.955 219.999L528.665 220.099L545.585 225.459L550.485 226.979L551.805 227.359L552.265 227.469C552.128 227.384 551.98 227.32 551.825 227.279L550.535 226.819L545.685 225.169L528.845 219.599L528.655 219.539L528.555 219.699L522.875 228.699L520.215 232.959L520.055 233.209L520.335 233.329L540.335 241.639L546.275 244.049L547.885 244.679C548.048 244.767 548.219 244.84 548.395 244.899Z" fill="#222222"/>
<path d="M549.064 222.14C547.887 221.754 546.622 221.719 545.425 222.04C544.227 222.362 543.15 223.026 542.324 223.95C543.366 223.397 544.449 222.925 545.564 222.54C546.72 222.32 547.889 222.186 549.064 222.14Z" fill="#222222"/>
</svg>
