<svg width="162" height="30" viewBox="0 0 162 30" fill="none" xmlns="http://www.w3.org/2000/svg">
<path d="M96.7303 30C93.8614 30 91.3887 29.3852 89.3122 28.1557C87.2357 26.8989 85.6374 25.1639 84.5172 22.9508C83.3969 20.7104 82.8368 18.1421 82.8368 15.2459C82.8368 12.2951 83.3969 9.71311 84.5172 7.5C85.6374 5.25956 87.2357 3.51093 89.3122 2.2541C91.3887 0.969946 93.8614 0.32787 96.7303 0.32787C100.282 0.32787 103.178 1.21585 105.419 2.9918C107.687 4.76776 109.094 7.26776 109.64 10.4918H102.919C102.591 9.04372 101.894 7.9235 100.829 7.13115C99.7631 6.31148 98.3833 5.90164 96.6893 5.90164C95.0773 5.90164 93.6975 6.28415 92.5499 7.04918C91.4297 7.81421 90.5691 8.89344 89.968 10.2869C89.3942 11.653 89.1073 13.306 89.1073 15.2459C89.1073 17.1311 89.3942 18.7705 89.968 20.1639C90.5691 21.5301 91.4297 22.5956 92.5499 23.3607C93.6975 24.0984 95.0773 24.4672 96.6893 24.4672C98.3833 24.4672 99.7494 24.112 100.788 23.4016C101.853 22.6639 102.564 21.612 102.919 20.2459H109.64C109.094 23.2787 107.687 25.6694 105.419 27.418C103.178 29.1393 100.282 30 96.7303 30Z" fill="#FFCA20"/>
<path d="M121.203 30C119.482 30 118.048 29.7268 116.9 29.1803C115.78 28.6339 114.946 27.8962 114.4 26.9672C113.881 26.0109 113.621 24.959 113.621 23.8115C113.621 22.582 113.922 21.5027 114.523 20.5738C115.151 19.6175 116.121 18.8661 117.433 18.3197C118.744 17.7459 120.397 17.459 122.392 17.459H127.392C127.392 16.5301 127.269 15.765 127.023 15.1639C126.804 14.5628 126.435 14.112 125.916 13.8115C125.397 13.5109 124.687 13.3607 123.785 13.3607C122.829 13.3607 122.023 13.5519 121.367 13.9344C120.711 14.3169 120.302 14.918 120.138 15.7377H114.236C114.373 14.2623 114.851 12.9781 115.67 11.8852C116.517 10.7923 117.638 9.93169 119.031 9.30328C120.425 8.67486 122.023 8.36066 123.826 8.36066C125.793 8.36066 127.501 8.68852 128.949 9.34426C130.397 9.97268 131.517 10.9016 132.31 12.1311C133.129 13.3607 133.539 14.8907 133.539 16.7213V29.5082H128.416L127.679 26.5164C127.378 27.0355 127.023 27.5137 126.613 27.9508C126.203 28.3607 125.725 28.7295 125.179 29.0574C124.632 29.3579 124.031 29.5902 123.375 29.7541C122.72 29.918 121.996 30 121.203 30ZM122.72 25.3279C123.375 25.3279 123.949 25.2186 124.441 25C124.933 24.7814 125.356 24.4809 125.711 24.0984C126.067 23.7158 126.354 23.2787 126.572 22.7869C126.818 22.2678 126.996 21.7077 127.105 21.1066V21.0656H123.129C122.446 21.0656 121.873 21.1612 121.408 21.3525C120.971 21.5164 120.643 21.7623 120.425 22.0902C120.206 22.418 120.097 22.8005 120.097 23.2377C120.097 23.7022 120.206 24.0984 120.425 24.4262C120.67 24.7268 120.985 24.959 121.367 25.123C121.777 25.2596 122.228 25.3279 122.72 25.3279Z" fill="#FFCA20"/>
<path d="M151.23 30C150.219 30 149.304 29.8771 148.484 29.6311C147.692 29.3852 146.982 29.0437 146.353 28.6066C145.752 28.1421 145.233 27.6229 144.796 27.0492L144.099 29.5082H138.648V0H144.796V11.5574C145.451 10.6284 146.298 9.86339 147.337 9.2623C148.375 8.6612 149.659 8.36066 151.189 8.36066C153.074 8.36066 154.755 8.8388 156.23 9.79508C157.733 10.724 158.921 12.0082 159.796 13.6475C160.67 15.2596 161.107 17.1175 161.107 19.2213C161.107 21.2705 160.67 23.1148 159.796 24.7541C158.921 26.3934 157.747 27.6776 156.271 28.6066C154.796 29.5355 153.115 30 151.23 30ZM149.714 24.6311C150.697 24.6311 151.572 24.3989 152.337 23.9344C153.129 23.4699 153.744 22.8415 154.181 22.0492C154.618 21.2295 154.837 20.2869 154.837 19.2213C154.837 18.1557 154.618 17.2131 154.181 16.3934C153.744 15.5464 153.129 14.8907 152.337 14.4262C151.572 13.9617 150.697 13.7295 149.714 13.7295C148.703 13.7295 147.801 13.9754 147.009 14.4672C146.244 14.9317 145.643 15.5738 145.206 16.3934C144.768 17.1858 144.55 18.1284 144.55 19.2213C144.55 20.2596 144.768 21.1885 145.206 22.0082C145.643 22.8279 146.244 23.4699 147.009 23.9344C147.801 24.3989 148.703 24.6311 149.714 24.6311Z" fill="#FFCA20"/>
<g clip-path="url(#clip0_3078_38801)">
<path d="M42.1512 18.3249C41.347 18.3249 40.6704 18.3249 39.9937 18.3249C38.3196 18.3249 36.6416 18.3288 34.9675 18.3249C33.9699 18.321 33.6645 17.9035 34.0434 16.991C34.5924 15.6726 35.2072 14.3889 35.8451 13.1092C36.1892 12.4209 36.6919 12.1851 37.4381 12.189C41.1807 12.2122 44.9272 12.1851 48.6699 12.2122C49.2615 12.216 49.5128 12.0227 49.7409 11.4698C52.2386 5.44987 56.6308 1.73428 63.1224 0.651694C65.8907 0.187729 68.632 0.214793 71.3269 1.17366C76.1482 2.89033 79.3767 7.35599 79.7904 12.332C80.5173 21.0352 73.8632 27.3413 67.534 29.1276C63.9189 30.1483 60.3425 30.2024 56.8434 28.71C53.3946 27.2408 50.8969 24.8011 49.5746 21.2402C49.5089 21.0662 49.4432 20.896 49.3581 20.6679C49.0836 20.8612 49.0179 21.1512 48.8787 21.3832C46.0137 26.0345 42.0043 29.0116 36.5024 29.6727C30.8652 30.3532 26.241 28.4973 23.0551 23.703C21.0214 20.6409 20.6889 17.1689 21.4197 13.6157C22.7845 6.96162 28.7271 1.35924 35.4662 0.257324C38.6328 -0.260771 41.6911 -0.0790513 44.5793 1.4559C47.1736 2.8362 49.0681 4.86991 50.2512 7.56478C50.4523 8.02101 50.3556 8.27619 49.8878 8.39991C47.626 8.99147 45.3641 9.57916 43.1062 10.1746C42.6499 10.2944 42.4025 10.0045 42.1666 9.71835C41.2117 8.56617 39.9821 7.90889 38.5323 7.63437C36.3825 7.2284 34.5383 7.96301 32.8487 9.20799C30.2505 11.1218 29.2066 13.751 29.4927 16.9059C29.8136 20.4166 33.1619 22.806 36.7847 22.2029C39.1509 21.8162 40.8018 20.4243 42.1512 18.3249ZM57.0135 15.9973C57.0174 19.4307 59.7509 22.257 63.1804 22.373C67.0932 22.5045 70.7276 19.6627 71.6787 15.804C72.7768 11.3461 69.4401 7.04668 64.5607 7.63051C60.4237 8.1254 57.0097 11.8255 57.0135 15.9973Z" fill="#222222"/>
<path d="M10.0177 11.1914C12.8286 11.1914 15.6394 11.1875 18.4503 11.1991C18.7016 11.1991 19.0728 11.0252 19.1656 11.4582C19.2468 11.8371 18.8215 12.5408 18.4967 12.5988C18.3575 12.6258 18.2067 12.6181 18.0637 12.6181C13.3119 12.649 8.56009 12.6838 3.80832 12.7109C2.66773 12.7186 1.53102 12.6877 0.394304 12.6877C-0.0851266 12.6877 -0.0773938 12.5176 0.14299 12.1696C0.583757 11.4737 1.12118 11.1411 2.01432 11.1643C4.68212 11.2378 7.34992 11.1914 10.0177 11.1914Z" fill="#FFCA20"/>
<path d="M13.1108 9.12679C10.9186 9.12679 8.73019 9.13066 6.53795 9.12292C6.32144 9.12292 6.03532 9.21185 5.91547 8.97213C5.79561 8.72855 6.08172 8.58163 6.18225 8.39218C6.51862 7.75036 7.04445 7.57637 7.76359 7.58024C11.9586 7.61117 16.1536 7.5957 20.3487 7.59957C20.5884 7.59957 20.9015 7.49131 21.0446 7.7233C21.2186 8.00167 20.9054 8.20273 20.7972 8.43471C20.5342 8.9876 20.1128 9.16159 19.4981 9.15386C17.3715 9.11906 15.2412 9.14226 13.1147 9.14226C13.1108 9.13452 13.1108 9.13066 13.1108 9.12679Z" fill="#FFCA20"/>
<path d="M14.2205 14.6983C15.3765 14.6983 16.5326 14.6983 17.6886 14.6983C18.0714 14.6983 18.4387 14.7563 18.3807 15.255C18.3265 15.6881 18.458 16.326 17.735 16.3144C15.1136 16.2719 12.4961 16.4033 9.87465 16.2409C9.29856 16.2062 9.35655 15.9858 9.54987 15.5759C9.85918 14.9186 10.3154 14.6403 11.0616 14.6828C12.1133 14.7408 13.1688 14.6983 14.2205 14.6983Z" fill="#FFCA20"/>
</g>
<defs>
<clipPath id="clip0_3078_38801">
<rect width="79.8368" height="29.8639" fill="white" transform="translate(0 0.00598145)"/>
</clipPath>
</defs>
</svg>
