<svg width="188" height="55" viewBox="0 0 188 55" fill="none" xmlns="http://www.w3.org/2000/svg">
<rect width="188" height="55" fill="#222222"/>
<path d="M66.783 14.1295C66.783 15.1732 66.5168 16.0865 65.8513 16.7388C65.0527 17.5216 64.121 17.913 62.9231 17.913C61.7251 17.913 60.7934 17.5216 59.9948 16.7388C59.1962 15.956 58.7969 15.0428 58.7969 13.8686C58.7969 12.6944 59.1962 11.7812 59.9948 10.9984C60.7934 10.2156 61.7251 9.82422 62.9231 9.82422C63.4555 9.82422 63.9879 9.95468 64.5203 10.2156C65.0527 10.4765 65.452 10.7375 65.7182 11.1289L65.0527 11.7812C64.5203 11.1289 63.8548 10.8679 62.9231 10.8679C62.1244 10.8679 61.3258 11.1289 60.7934 11.7812C60.1279 12.303 59.8617 13.0858 59.8617 13.9991C59.8617 14.9123 60.1279 15.6951 60.7934 16.2169C61.4589 16.7388 62.1244 17.1302 62.9231 17.1302C63.8548 17.1302 64.5203 16.8693 65.1858 16.2169C65.5851 15.8255 65.8513 15.3037 65.8513 14.6514H62.9231V13.6077H66.783V14.1295ZM72.9058 10.8679H69.312V13.3467H72.6396V14.26H69.312V16.7388H72.9058V17.7825H68.2472V9.95468H72.9058V10.8679ZM77.2981 17.7825H76.2333V10.8679H73.9706V9.95468H79.5609V10.8679H77.2981V17.7825ZM83.4209 17.7825V9.95468H84.4857V17.7825H83.4209ZM89.0112 17.7825H87.9464V10.8679H85.6836V9.95468H91.1408V10.8679H88.8781V17.7825H89.0112ZM101.656 16.7388C100.857 17.5216 99.9256 17.913 98.7277 17.913C97.5298 17.913 96.598 17.5216 95.7994 16.7388C95.0008 15.956 94.6015 15.0428 94.6015 13.8686C94.6015 12.6944 95.0008 11.7812 95.7994 10.9984C96.598 10.2156 97.5298 9.82422 98.7277 9.82422C99.9256 9.82422 100.857 10.2156 101.656 10.9984C102.455 11.7812 102.854 12.6944 102.854 13.8686C102.854 15.0428 102.455 15.956 101.656 16.7388ZM96.598 16.0865C97.1305 16.6083 97.9291 16.9997 98.7277 16.9997C99.5263 16.9997 100.325 16.7388 100.857 16.0865C101.39 15.5646 101.789 14.7818 101.789 13.8686C101.789 12.9553 101.523 12.1726 100.857 11.6507C100.325 11.1289 99.5263 10.7375 98.7277 10.7375C97.9291 10.7375 97.1305 10.9984 96.598 11.6507C96.0656 12.1726 95.6663 12.9553 95.6663 13.8686C95.6663 14.7818 95.9325 15.5646 96.598 16.0865ZM104.318 17.7825V9.95468H105.516L109.376 16.0865V9.95468H110.441V17.7825H109.376L105.25 11.3898V17.7825H104.318Z" fill="white"/>
<path d="M94.3323 29.2607C91.1378 29.2607 88.6089 31.609 88.6089 34.8706C88.6089 38.0017 91.1378 40.4806 94.3323 40.4806C97.5267 40.4806 100.056 38.1322 100.056 34.8706C100.056 31.4786 97.5267 29.2607 94.3323 29.2607ZM94.3323 38.1322C92.6019 38.1322 91.1378 36.6971 91.1378 34.7402C91.1378 32.7832 92.6019 31.3481 94.3323 31.3481C96.0626 31.3481 97.5267 32.6527 97.5267 34.7402C97.5267 36.6971 96.0626 38.1322 94.3323 38.1322ZM81.9537 29.2607C78.7593 29.2607 76.2303 31.609 76.2303 34.8706C76.2303 38.0017 78.7593 40.4806 81.9537 40.4806C85.1482 40.4806 87.6771 38.1322 87.6771 34.8706C87.6771 31.4786 85.1482 29.2607 81.9537 29.2607ZM81.9537 38.1322C80.2234 38.1322 78.7593 36.6971 78.7593 34.7402C78.7593 32.7832 80.2234 31.3481 81.9537 31.3481C83.6841 31.3481 85.1482 32.6527 85.1482 34.7402C85.1482 36.6971 83.6841 38.1322 81.9537 38.1322ZM67.1793 30.9567V33.3051H72.9027C72.7696 34.6097 72.2372 35.6534 71.5717 36.3057C70.7731 37.0885 69.4421 38.0017 67.1793 38.0017C63.5855 38.0017 60.9235 35.262 60.9235 31.7395C60.9235 28.217 63.7186 25.4772 67.1793 25.4772C69.0428 25.4772 70.5069 26.26 71.5717 27.1733L73.302 25.4772C71.8379 24.1726 69.9745 23.1289 67.3124 23.1289C62.5207 23.1289 58.3945 27.0428 58.3945 31.7395C58.3945 36.4362 62.5207 40.3501 67.3124 40.3501C69.9745 40.3501 71.8379 39.5673 73.4351 37.8713C75.0324 36.3057 75.5648 34.0878 75.5648 32.3918C75.5648 31.87 75.5648 31.3481 75.4317 30.9567H67.1793ZM127.608 32.7832C127.076 31.4786 125.745 29.2607 122.816 29.2607C119.888 29.2607 117.492 31.4786 117.492 34.8706C117.492 38.0017 119.888 40.4806 123.082 40.4806C125.611 40.4806 127.209 38.915 127.741 38.0017L125.878 36.6971C125.212 37.6104 124.413 38.2627 123.082 38.2627C121.751 38.2627 120.953 37.7408 120.287 36.5666L127.874 33.4355L127.608 32.7832ZM119.888 34.6097C119.888 32.5223 121.618 31.3481 122.816 31.3481C123.748 31.3481 124.68 31.87 124.946 32.5223L119.888 34.6097ZM113.632 39.9587H116.161V23.6508H113.632V39.9587ZM109.639 30.4349C108.974 29.7825 107.909 29.1302 106.578 29.1302C103.783 29.1302 101.121 31.609 101.121 34.7402C101.121 37.8713 103.649 40.2196 106.578 40.2196C107.909 40.2196 108.974 39.5673 109.506 38.915H109.639V39.6978C109.639 41.7852 108.441 42.9594 106.578 42.9594C105.114 42.9594 104.049 41.9157 103.783 41.0024L101.653 41.9157C102.318 43.3508 103.916 45.1772 106.711 45.1772C109.639 45.1772 112.035 43.4812 112.035 39.4368V29.5216H109.639V30.4349ZM106.711 38.1322C104.98 38.1322 103.516 36.6971 103.516 34.7402C103.516 32.7832 104.98 31.3481 106.711 31.3481C108.441 31.3481 109.772 32.7832 109.772 34.7402C109.772 36.6971 108.441 38.1322 106.711 38.1322ZM139.188 23.6508H133.198V39.9587H135.727V33.8269H139.188C141.983 33.8269 144.645 31.87 144.645 28.7388C144.645 25.6077 141.983 23.6508 139.188 23.6508ZM139.321 31.4786H135.727V25.8686H139.321C141.184 25.8686 142.249 27.4342 142.249 28.6084C142.116 30.0435 141.051 31.4786 139.321 31.4786ZM154.628 29.1302C152.764 29.1302 150.901 29.913 150.235 31.609L152.498 32.5223C153.031 31.609 153.829 31.3481 154.761 31.3481C156.092 31.3481 157.29 32.1309 157.423 33.4355V33.566C157.024 33.3051 155.959 32.9137 154.894 32.9137C152.498 32.9137 150.102 34.2183 150.102 36.5666C150.102 38.7845 152.099 40.2196 154.229 40.2196C155.959 40.2196 156.757 39.4368 157.423 38.6541H157.556V39.9587H159.952V33.6965C159.686 30.8263 157.423 29.1302 154.628 29.1302ZM154.362 38.1322C153.563 38.1322 152.365 37.7408 152.365 36.6971C152.365 35.3925 153.829 35.0011 155.027 35.0011C156.092 35.0011 156.624 35.262 157.29 35.5229C157.024 37.0885 155.693 38.1322 154.362 38.1322ZM168.337 29.5216L165.542 36.5666H165.409L162.481 29.5216H159.819L164.211 39.4368L161.682 44.9163H164.211L170.999 29.5216H168.337ZM145.976 39.9587H148.505V23.6508H145.976V39.9587Z" fill="white"/>
<path d="M17.5324 10.6094C17.1331 11.0008 17 11.6531 17 12.4359V41.2683C17 42.0511 17.2662 42.7034 17.6655 43.0948L17.7986 43.2253L34.3034 27.0478V26.7869L17.5324 10.6094Z" fill="url(#paint0_linear_353_9122)"/>
<path d="M39.6291 32.5191L34.1719 27.1701V26.7787L39.6291 21.4297L39.7622 21.5602L46.2842 25.2131C48.1477 26.2568 48.1477 27.9529 46.2842 28.9966L39.6291 32.5191Z" fill="url(#paint1_linear_353_9122)"/>
<path d="M39.7633 32.3896L34.173 26.9102L17.5352 43.2181C18.2007 43.8704 19.1324 43.8704 20.3303 43.3486L39.7633 32.3896Z" fill="url(#paint2_linear_353_9122)"/>
<path d="M39.7633 21.4331L20.3303 10.6046C19.1324 9.95233 18.2007 10.0828 17.5352 10.7351L34.173 26.9126L39.7633 21.4331Z" fill="url(#paint3_linear_353_9122)"/>
<path opacity="0.2" d="M39.6302 32.2617L20.3303 42.9597C19.2655 43.612 18.3338 43.4816 17.6683 42.9597L17.5352 43.0902L17.6683 43.2207C18.3338 43.7425 19.2655 43.873 20.3303 43.2207L39.6302 32.2617Z" fill="white"/>
<path opacity="0.12" d="M17.5324 42.9572C17.1331 42.5658 17 41.9135 17 41.1307V41.2611C17 42.0439 17.2662 42.6962 17.6655 43.0876V42.9572H17.5324ZM46.2826 28.6062L39.6275 32.2592L39.7606 32.3896L46.2826 28.7366C47.2143 28.2148 47.6136 27.5625 47.6136 26.9102C47.6136 27.5625 47.0812 28.0843 46.2826 28.6062Z" fill="white"/>
<path opacity="0.25" d="M20.3276 10.7353L46.2826 25.2167C47.0812 25.7386 47.6136 26.2604 47.6136 26.9128C47.6136 26.2604 47.2143 25.6081 46.2826 25.0863L20.3276 10.6048C18.4641 9.56111 17 10.3439 17 12.4313V12.5618C17 10.6048 18.4641 9.69157 20.3276 10.7353Z" fill="white"/>
<defs>
<linearGradient id="paint0_linear_353_9122" x1="32.7061" y1="12.188" x2="10.8148" y2="34.5208" gradientUnits="userSpaceOnUse">
<stop stop-color="#00A0FF"/>
<stop offset="0.007" stop-color="#00A1FF"/>
<stop offset="0.26" stop-color="#00BEFF"/>
<stop offset="0.512" stop-color="#00D2FF"/>
<stop offset="0.76" stop-color="#00DFFF"/>
<stop offset="1" stop-color="#00E3FF"/>
</linearGradient>
<linearGradient id="paint1_linear_353_9122" x1="48.7253" y1="26.9105" x2="16.5185" y2="26.9105" gradientUnits="userSpaceOnUse">
<stop stop-color="#FFE000"/>
<stop offset="0.409" stop-color="#FFBD00"/>
<stop offset="0.775" stop-color="#FFA500"/>
<stop offset="1" stop-color="#FF9C00"/>
</linearGradient>
<linearGradient id="paint2_linear_353_9122" x1="36.7379" y1="29.9056" x2="7.05295" y2="60.191" gradientUnits="userSpaceOnUse">
<stop stop-color="#FF3A44"/>
<stop offset="1" stop-color="#C31162"/>
</linearGradient>
<linearGradient id="paint3_linear_353_9122" x1="13.405" y1="1.0495" x2="26.6613" y2="14.574" gradientUnits="userSpaceOnUse">
<stop stop-color="#32A071"/>
<stop offset="0.069" stop-color="#2DA771"/>
<stop offset="0.476" stop-color="#15CF74"/>
<stop offset="0.801" stop-color="#06E775"/>
<stop offset="1" stop-color="#00F076"/>
</linearGradient>
</defs>
</svg>
