<svg width="188" height="55" viewBox="0 0 188 55" fill="none" xmlns="http://www.w3.org/2000/svg">
<rect width="188" height="55" fill="#222222"/>
<path d="M48.9236 26.2621C48.8886 22.3562 52.1087 20.4559 52.256 20.3675C50.4323 17.6976 47.6056 17.3329 46.6123 17.3038C44.2383 17.0529 41.9354 18.7302 40.7261 18.7302C39.4926 18.7302 37.6303 17.328 35.6231 17.3692C33.0403 17.4092 30.624 18.9108 29.2988 21.2424C26.5639 25.9967 28.6036 32.9833 31.2239 36.8262C32.5346 38.7095 34.0662 40.8097 36.0709 40.7358C38.0322 40.6558 38.7648 39.4815 41.1316 39.4815C43.4767 39.4815 44.1647 40.7358 46.2092 40.6885C48.3141 40.6558 49.6393 38.798 50.9042 36.8989C52.4189 34.743 53.0272 32.6173 53.0513 32.5082C53.0031 32.4913 48.9646 30.9425 48.9236 26.2621ZM45.0614 14.7758C46.1163 13.4512 46.838 11.6491 46.6377 9.82031C45.1109 9.88818 43.2015 10.8807 42.102 12.1762C41.1292 13.3178 40.2602 15.189 40.4847 16.9487C42.1998 17.0772 43.9607 16.0798 45.0614 14.7758Z" fill="white"/>
<path d="M77.3334 40.4643H74.5924L73.091 35.727H67.8722L66.442 40.4643H63.7734L68.9452 24.3364H72.1387L77.3334 40.4643ZM72.6384 33.7395L71.2806 29.5282C71.137 29.0979 70.8666 28.0848 70.4707 26.4899H70.4225C70.2631 27.1759 70.0085 28.189 69.6597 29.5282L68.3248 33.7395H72.6384ZM90.6073 34.5066C90.6073 36.4845 90.0726 38.0478 89.0021 39.1955C88.0438 40.2171 86.8525 40.7273 85.432 40.7273C83.8979 40.7273 82.7948 40.1783 82.1249 39.0779V45.1798H79.5518V32.6573C79.5518 31.4151 79.5192 30.1414 79.4564 28.835H81.7194L81.863 30.6783H81.9113C82.7695 29.2894 84.0717 28.595 85.8194 28.595C87.1856 28.595 88.3262 29.1367 89.2386 30.2214C90.1499 31.3084 90.6073 32.7361 90.6073 34.5066ZM87.9858 34.6012C87.9858 33.4693 87.7324 32.5361 87.2231 31.8005C86.6667 31.0358 85.9196 30.6528 84.983 30.6528C84.3481 30.6528 83.7712 30.8661 83.2558 31.2866C82.7393 31.7108 82.4013 32.2646 82.2432 32.9506C82.1726 33.2071 82.1325 33.4711 82.1237 33.7371V35.6773C82.1237 36.522 82.382 37.2358 82.8986 37.82C83.4152 38.4017 84.0862 38.6937 84.9118 38.6937C85.8809 38.6937 86.6353 38.3168 87.1748 37.5691C87.7155 36.8189 87.9858 35.83 87.9858 34.6012ZM103.928 34.5066C103.928 36.4845 103.394 38.0478 102.323 39.1955C101.364 40.2171 100.174 40.7273 98.7517 40.7273C97.2177 40.7273 96.1146 40.1783 95.4447 39.0779V45.1798H92.8715V32.6573C92.8715 31.4151 92.8389 30.1414 92.7762 28.835H95.0392L95.1828 30.6783H95.2311C96.088 29.2894 97.3903 28.595 99.1392 28.595C100.504 28.595 101.645 29.1367 102.56 30.2214C103.47 31.3084 103.928 32.7361 103.928 34.5066ZM101.306 34.6012C101.306 33.4693 101.051 32.5361 100.542 31.8005C99.9852 31.0358 99.2406 30.6528 98.304 30.6528C97.6691 30.6528 97.0922 30.8661 96.5744 31.2866C96.0579 31.7108 95.7211 32.2646 95.563 32.9506C95.4846 33.2705 95.4423 33.5311 95.4423 33.7371V35.6773C95.4423 36.522 95.7018 37.2358 96.216 37.82C96.7325 38.4005 97.4036 38.6937 98.2316 38.6937C99.2019 38.6937 99.9563 38.3168 100.495 37.5691C101.035 36.8189 101.306 35.83 101.306 34.6012ZM118.822 35.9403C118.822 37.3134 118.344 38.4296 117.394 39.2912C116.349 40.2316 114.89 40.7031 113.019 40.7031C111.291 40.7031 109.905 40.3686 108.86 39.6984L109.455 37.5449C110.583 38.2163 111.823 38.5507 113.172 38.5507C114.143 38.5507 114.897 38.3302 115.435 37.8927C115.975 37.454 116.248 36.8674 116.248 36.1354C116.248 35.4798 116.022 34.9308 115.579 34.4836C115.134 34.0376 114.397 33.622 113.363 33.2402C110.551 32.1871 109.143 30.6467 109.143 28.6205C109.143 27.2971 109.641 26.2136 110.633 25.3665C111.625 24.5206 112.941 24.0977 114.577 24.0977C116.039 24.0977 117.257 24.3534 118.223 24.8636L117.578 26.9699C116.668 26.4754 115.64 26.2282 114.491 26.2282C113.584 26.2282 112.872 26.4524 112.362 26.8983C111.934 27.2971 111.717 27.783 111.717 28.3599C111.717 28.9961 111.964 29.5245 112.457 29.939C112.884 30.3207 113.663 30.7364 114.791 31.1824C116.174 31.7423 117.19 32.3943 117.841 33.1433C118.496 33.8922 118.822 34.8266 118.822 35.9403ZM127.351 30.774H124.515V36.4202C124.515 37.8563 125.015 38.5726 126.016 38.5726C126.476 38.5726 126.858 38.5338 127.159 38.4526L127.231 40.4146C126.724 40.6049 126.056 40.7006 125.23 40.7006C124.213 40.7006 123.419 40.3892 122.846 39.7663C122.275 39.1434 121.988 38.0999 121.988 36.6311V30.7691H120.298V28.8301H121.988V26.7008L124.515 25.9349V28.8301H127.351V30.774ZM140.123 34.5539C140.123 36.3415 139.614 37.8091 138.598 38.9567C137.534 40.1383 136.12 40.7273 134.356 40.7273C132.655 40.7273 131.302 40.1614 130.293 39.0307C129.284 37.8975 128.779 36.4699 128.779 34.7478C128.779 32.9457 129.301 31.4696 130.34 30.322C131.381 29.1731 132.784 28.5986 134.547 28.5986C136.247 28.5986 137.612 29.1658 138.645 30.2977C139.632 31.3957 140.123 32.8136 140.123 34.5539ZM137.456 34.6133C137.456 33.548 137.227 32.6343 136.767 31.8696C136.227 30.9461 135.455 30.4844 134.454 30.4844C133.423 30.4844 132.633 30.9461 132.095 31.8696C131.634 32.6343 131.404 33.5638 131.404 34.6618C131.404 35.7282 131.634 36.6444 132.095 37.4067C132.651 38.3302 133.427 38.7919 134.432 38.7919C135.416 38.7919 136.187 38.3205 136.745 37.3837C137.218 36.6008 137.456 35.681 137.456 34.6133ZM148.491 31.1073C148.223 31.0588 147.952 31.0348 147.68 31.0358C146.775 31.0358 146.075 31.3775 145.582 32.0659C145.155 32.6718 144.94 33.4377 144.94 34.3624V40.4643H142.367V32.4973C142.369 31.2765 142.344 30.0558 142.292 28.8362H144.533L144.627 31.0612H144.699C144.971 30.2965 145.399 29.6797 145.985 29.2179C146.522 28.8145 147.175 28.596 147.845 28.595C148.083 28.595 148.298 28.612 148.488 28.6423L148.491 31.1073ZM159.999 34.0994C160.006 34.4922 159.974 34.8847 159.905 35.2713H152.185C152.214 36.4202 152.588 37.3001 153.305 37.906C153.956 38.4465 154.797 38.718 155.83 38.718C156.973 38.718 158.016 38.5362 158.954 38.169L159.357 39.9614C158.261 40.4413 156.967 40.68 155.474 40.68C153.678 40.68 152.269 40.1492 151.243 39.09C150.219 38.0296 149.706 36.6044 149.706 34.8193C149.706 33.0669 150.183 31.6066 151.138 30.4419C152.137 29.1985 153.488 28.5768 155.187 28.5768C156.856 28.5768 158.12 29.1985 158.978 30.4419C159.658 31.4272 159.999 32.6488 159.999 34.0994ZM157.545 33.4293C157.563 32.6621 157.394 32.0016 157.046 31.443C156.6 30.7231 155.915 30.3644 154.996 30.3644C154.155 30.3644 153.47 30.7146 152.948 31.4175C152.52 31.9762 152.265 32.6476 152.187 33.4268L157.545 33.4293Z" fill="white"/>
<path d="M67.1276 18.6347C66.4119 18.6347 65.7927 18.5996 65.2773 18.5402V10.7428C65.9981 10.631 66.7265 10.5759 67.4559 10.578C70.4068 10.578 71.7658 12.0359 71.7658 14.4125C71.7658 17.1538 70.1606 18.6347 67.1276 18.6347ZM67.5597 11.5778C67.1614 11.5778 66.8222 11.6021 66.541 11.6602V17.5876C66.6931 17.6119 66.9852 17.6228 67.3955 17.6228C69.329 17.6228 70.4298 16.5175 70.4298 14.4476C70.4298 12.6019 69.434 11.5778 67.5597 11.5778ZM76.001 18.6941C74.3378 18.6941 73.26 17.447 73.26 15.754C73.26 13.9895 74.3608 12.7316 76.0951 12.7316C77.7342 12.7316 78.8361 13.9192 78.8361 15.6607C78.8361 17.447 77.7004 18.6941 76.001 18.6941ZM76.0493 13.6599C75.1356 13.6599 74.5503 14.5179 74.5503 15.7177C74.5503 16.8944 75.1477 17.7524 76.0372 17.7524C76.9267 17.7524 77.5242 16.835 77.5242 15.6934C77.5242 14.53 76.9388 13.6599 76.0493 13.6599ZM88.3202 12.8491L86.54 18.5644H85.3801L84.6427 16.0824C84.4593 15.4753 84.3066 14.8593 84.1852 14.2367H84.1611C84.0682 14.8596 83.892 15.4838 83.7049 16.0824L82.9204 18.5644H81.7484L80.0732 12.8491H81.3731L82.0176 15.5662C82.1697 16.2133 82.2976 16.8241 82.4038 17.401H82.4279C82.5209 16.9199 82.673 16.3188 82.8962 15.5783L83.7049 12.8503H84.7356L85.5093 15.5201C85.6963 16.1673 85.8484 16.8023 85.9667 17.4022H86.0005C86.0826 16.8144 86.2117 16.1903 86.3867 15.5201L87.0783 12.8503L88.3202 12.8491ZM94.8739 18.5644H93.609V15.2826C93.609 14.2719 93.2228 13.7653 92.4612 13.7653C91.7117 13.7653 91.1964 14.4125 91.1964 15.165V18.5644H89.9315V14.4827C89.9315 13.9774 89.9194 13.4357 89.8844 12.8479H90.9972L91.0564 13.7302H91.0914C91.4317 13.1194 92.1221 12.7316 92.8957 12.7316C94.0906 12.7316 94.8751 13.649 94.8751 15.142L94.8739 18.5644ZM98.3619 18.5644H97.0959V10.2266H98.3619V18.5644ZM102.974 18.6941C101.312 18.6941 100.233 17.447 100.233 15.754C100.233 13.9895 101.333 12.7316 103.067 12.7316C104.707 12.7316 105.808 13.9192 105.808 15.6607C105.809 17.447 104.672 18.6941 102.974 18.6941ZM103.021 13.6599C102.107 13.6599 101.522 14.5179 101.522 15.7177C101.522 16.8944 102.12 17.7524 103.007 17.7524C103.898 17.7524 104.494 16.835 104.494 15.6934C104.496 14.53 103.911 13.6599 103.021 13.6599ZM110.795 18.5644L110.703 17.9064H110.669C110.283 18.436 109.719 18.6941 109.005 18.6941C107.985 18.6941 107.261 17.9766 107.261 17.012C107.261 15.6013 108.479 14.8718 110.587 14.8718V14.7663C110.587 14.0137 110.19 13.6368 109.405 13.6368C108.844 13.6368 108.352 13.7786 107.918 14.061L107.661 13.226C108.188 12.8964 108.844 12.7316 109.615 12.7316C111.102 12.7316 111.853 13.5193 111.853 15.096V17.201C111.853 17.7779 111.878 18.2251 111.935 18.5656L110.795 18.5644ZM110.621 15.7177C109.216 15.7177 108.511 16.0594 108.511 16.8702C108.511 17.4701 108.874 17.7634 109.379 17.7634C110.022 17.7634 110.621 17.2701 110.621 16.5999V15.7177ZM117.995 18.5644L117.936 17.647H117.901C117.538 18.3402 116.927 18.6941 116.074 18.6941C114.701 18.6941 113.685 17.4822 113.685 15.7771C113.685 13.9895 114.739 12.7303 116.178 12.7303C116.939 12.7303 117.479 12.9885 117.783 13.5072H117.808V10.2266H119.074V17.0241C119.074 17.5767 119.088 18.0942 119.121 18.5644H117.995ZM117.808 15.2014C117.808 14.4015 117.281 13.7193 116.476 13.7193C115.538 13.7193 114.965 14.5542 114.965 15.7298C114.965 16.8823 115.56 17.6712 116.45 17.6712C117.246 17.6712 117.808 16.9768 117.808 16.154V15.2014ZM127.102 18.6941C125.44 18.6941 124.362 17.447 124.362 15.754C124.362 13.9895 125.463 12.7316 127.196 12.7316C128.836 12.7316 129.937 13.9192 129.937 15.6607C129.938 17.447 128.802 18.6941 127.102 18.6941ZM127.149 13.6599C126.236 13.6599 125.651 14.5179 125.651 15.7177C125.651 16.8944 126.248 17.7524 127.137 17.7524C128.027 17.7524 128.624 16.835 128.624 15.6934C128.626 14.53 128.041 13.6599 127.149 13.6599ZM136.739 18.5644H135.473V15.2826C135.473 14.2719 135.087 13.7653 134.325 13.7653C133.576 13.7653 133.061 14.4125 133.061 15.165V18.5644H131.795V14.4827C131.795 13.9774 131.783 13.4357 131.748 12.8479H132.861L132.92 13.7302H132.955C133.294 13.1194 133.986 12.7303 134.758 12.7303C135.953 12.7303 136.739 13.6477 136.739 15.1408V18.5644ZM145.249 13.8017H143.858V16.5769C143.858 17.2834 144.101 17.6361 144.594 17.6361C144.817 17.6361 145.004 17.6119 145.155 17.5767L145.19 18.5414C144.945 18.6359 144.617 18.6832 144.209 18.6832C143.212 18.6832 142.616 18.1306 142.616 16.6835V13.8017H141.785V12.8491H142.616V11.802L143.858 11.4251V12.8479H145.249V13.8017ZM151.945 18.5644H150.682V15.3068C150.682 14.284 150.297 13.7665 149.534 13.7665C148.878 13.7665 148.268 14.2137 148.268 15.119V18.5644H147.004V10.2266H148.268V13.6599H148.293C148.691 13.037 149.268 12.7303 150.004 12.7303C151.209 12.7303 151.945 13.6708 151.945 15.165V18.5644ZM158.805 16.0122H155.01C155.034 17.0944 155.747 17.7052 156.803 17.7052C157.364 17.7052 157.881 17.6107 158.337 17.4349L158.534 18.3172C157.996 18.5523 157.362 18.6699 156.625 18.6699C154.844 18.6699 153.791 17.5404 153.791 15.7892C153.791 14.0368 154.87 12.7194 156.482 12.7194C157.936 12.7194 158.849 13.8017 158.849 15.4365C158.857 15.6294 158.842 15.8227 158.805 16.0122ZM157.646 15.1069C157.646 14.2246 157.203 13.6017 156.394 13.6017C155.667 13.6017 155.093 14.2367 155.011 15.1069H157.646Z" fill="white"/>
</svg>
