<svg>

    <!-- dashboard-svgs -->

    <symbol id="request-ride" viewBox="0 0 28 28" xmlns="http://www.w3.org/2000/svg">
        <path d="M16.6116 13.85C16.6116 15.3711 15.3785 16.6043 13.8574 16.6043C12.3363 16.6043 11.1031 15.3711 11.1031 13.85C11.1031 12.3289 12.3363 11.0958 13.8574 11.0958C15.3785 11.0958 16.6116 12.3289 16.6116 13.85Z" stroke-width="1.7" stroke-miterlimit="10" stroke-linecap="round" stroke-linejoin="round"/>
        <path d="M8.89224 26.8501V24.6467C8.89224 21.9086 11.1118 19.6891 13.8499 19.6891C16.5879 19.6891 18.8075 21.9086 18.8075 24.6467V26.8501H8.89224Z" stroke-width="1.7" stroke-miterlimit="10" stroke-linecap="round" stroke-linejoin="round"/>
        <path d="M16.6119 13.85H26.8501V0.849992H0.850006V13.85L7.34083 18.1834V13.85H11.1034" stroke-width="1.7" stroke-miterlimit="10" stroke-linecap="round" stroke-linejoin="round"/>
        <path d="M15.85 7.34998C15.85 8.1784 15.1784 8.84998 14.35 8.84998C13.5216 8.84998 12.85 8.1784 12.85 7.34998C12.85 6.52156 13.5216 5.84998 14.35 5.84998C15.1784 5.84998 15.85 6.52156 15.85 7.34998Z"/>
        <path d="M20.85 7.34998C20.85 8.1784 20.1784 8.84998 19.35 8.84998C18.5216 8.84998 17.85 8.1784 17.85 7.34998C17.85 6.52156 18.5216 5.84998 19.35 5.84998C20.1784 5.84998 20.85 6.52156 20.85 7.34998Z"/>
        <path d="M10.85 7.34998C10.85 8.1784 10.1784 8.84998 9.35001 8.84998C8.52159 8.84998 7.85001 8.1784 7.85001 7.34998C7.85001 6.52156 8.52159 5.84998 9.35001 5.84998C10.1784 5.84998 10.85 6.52156 10.85 7.34998Z"/>
    </symbol>


    <symbol id="accept-ride" viewBox="0 0 28 28" xmlns="http://www.w3.org/2000/svg">
        <path d="M13.8499 20.377C13.8499 23.952 10.9398 26.8501 7.34995 26.8501C3.76012 26.8501 0.849976 23.952 0.849976 20.377C0.849976 16.8021 3.76012 13.904 7.34995 13.904C10.9398 13.904 13.8499 16.8021 13.8499 20.377Z" stroke-width="1.7" stroke-miterlimit="10" stroke-linecap="round" stroke-linejoin="round"/>
        <path d="M7.35004 26.8501H25.225C26.1224 26.8501 26.85 26.1255 26.85 25.2318V6.24437L21.4335 0.85H8.97503C8.0776 0.85 7.35004 1.57455 7.35004 2.46826V13.904" stroke-width="1.7" stroke-miterlimit="10" stroke-linecap="round" stroke-linejoin="round"/>
        <path d="M21.4333 0.850022V6.24423H26.8499L21.4333 0.850022Z" stroke-width="1.7" stroke-miterlimit="10" stroke-linecap="round" stroke-linejoin="round"/>
        <path d="M11.6486 15.5222H23.0581" stroke-width="1.7" stroke-miterlimit="10" stroke-linecap="round" stroke-linejoin="round"/>
        <path d="M11.1416 10.6674H23.0582" stroke-width="1.7" stroke-miterlimit="10" stroke-linecap="round" stroke-linejoin="round"/>
        <path d="M13.8501 20.377H23.0584" stroke-width="1.7" stroke-miterlimit="10" stroke-linecap="round" stroke-linejoin="round"/>
        <path d="M4.58765 21.0783L6.21264 22.6966L10.0043 18.9206" stroke-width="1.7" stroke-miterlimit="10" stroke-linecap="round" stroke-linejoin="round"/>
    </symbol>

    <symbol id="started-ride" viewBox="0 0 30 30" xmlns="http://www.w3.org/2000/svg">
        <path d="M25.3125 21.5625H4.6875C3.65625 21.5625 2.8125 20.7188 2.8125 19.6875V15.9375C2.8125 13.875 4.5 12.1875 6.5625 12.1875H23.4375C25.5 12.1875 27.1875 13.875 27.1875 15.9375V19.6875C27.1875 20.7188 26.3438 21.5625 25.3125 21.5625Z" stroke-width="1.7" stroke-miterlimit="10" stroke-linecap="round" stroke-linejoin="round"/>
        <path d="M24.375 12.1875H5.625L7.5 7.875C8.0625 6.5625 9.375 5.625 10.875 5.625H19.0312C20.5312 5.625 21.8438 6.5625 22.5 7.875L24.375 12.1875Z" stroke-width="1.7" stroke-miterlimit="10" stroke-linecap="round" stroke-linejoin="round"/>
        <path d="M9.375 21.5625H3.75V23.4375C3.75 24.4688 4.59375 25.3125 5.625 25.3125H7.5C8.53125 25.3125 9.375 24.4688 9.375 23.4375V21.5625Z" stroke-width="1.7" stroke-miterlimit="10" stroke-linecap="round" stroke-linejoin="round"/>
        <path d="M26.25 21.5625H20.625V23.4375C20.625 24.4688 21.4687 25.3125 22.5 25.3125H24.375C25.4063 25.3125 26.25 24.4688 26.25 23.4375V21.5625Z" stroke-width="1.7" stroke-miterlimit="10" stroke-linecap="round" stroke-linejoin="round"/>
        <path d="M2.8125 11.25H6" stroke-width="1.7" stroke-miterlimit="10" stroke-linecap="round" stroke-linejoin="round"/>
        <path d="M24.375 11.25H27.1875" stroke-width="1.7" stroke-miterlimit="10" stroke-linecap="round" stroke-linejoin="round"/>
        <path d="M19.6875 21.5625H10.3125L11.625 18.8438C11.9062 18.1875 12.5625 17.8125 13.3125 17.8125H16.5938C17.3438 17.8125 18 18.1875 18.2812 18.8438L19.6875 21.5625Z" stroke-width="1.7" stroke-miterlimit="10" stroke-linecap="round" stroke-linejoin="round"/>
        <path d="M5.625 16.875H8.4375" stroke-width="1.7" stroke-miterlimit="10" stroke-linecap="round" stroke-linejoin="round"/>
        <path d="M21.5625 16.875H24.375" stroke-width="1.7" stroke-miterlimit="10" stroke-linecap="round" stroke-linejoin="round"/>
    </symbol>

    <symbol id="scheduled-ride" viewBox="0 0 28 28" xmlns="http://www.w3.org/2000/svg">
        <path d="M7.46014 0.850006V5.25679M18.4771 0.850006V5.25679M10.5836 25.0873H5.25675C2.823 25.0873 0.849976 23.1143 0.849976 20.6805V7.46018C0.849976 5.02626 2.823 3.0534 5.25675 3.0534H20.6805C23.1142 3.0534 25.0873 5.02626 25.0873 7.46018V9.66356H0.849976" stroke-width="1.7" stroke-miterlimit="10" stroke-linecap="round" stroke-linejoin="round"/>
        <path d="M20.2398 26.85C23.8905 26.85 26.85 23.8905 26.85 20.2398C26.85 16.5891 23.8905 13.6297 20.2398 13.6297C16.5891 13.6297 13.6296 16.5891 13.6296 20.2398C13.6296 23.8905 16.5891 26.85 20.2398 26.85Z" stroke-width="1.7" stroke-miterlimit="10" stroke-linecap="round" stroke-linejoin="round"/>
        <path d="M20.2398 18.0364V20.2398H22.4432" stroke-width="1.7" stroke-miterlimit="10" stroke-linecap="round" stroke-linejoin="round"/>
    </symbol>

    <symbol id="cancelled-ride" viewBox="0 0 30 30" xmlns="http://www.w3.org/2000/svg">
        <path d="M8.87764 8.87761L20.4786 20.4786M20.4786 8.87761L8.87764 20.4786M14.6781 28.5062C7.04108 28.5062 0.850006 22.3152 0.850006 14.6781C0.850006 7.04105 7.04108 0.849976 14.6781 0.849976C22.3152 0.849976 28.5063 7.04105 28.5063 14.6781C28.5063 22.3152 22.3152 28.5062 14.6781 28.5062Z" stroke-width="1.7" stroke-miterlimit="10"/>
    </symbol>

    <symbol id="completed-ride" viewBox="0 0 28 28" xmlns="http://www.w3.org/2000/svg">
        <path d="M19.6278 2.20128C17.8872 1.33633 15.9254 0.849976 13.85 0.849976C6.67028 0.849976 0.849976 6.67028 0.849976 13.85C0.849976 21.0297 6.67028 26.85 13.85 26.85C21.0297 26.85 26.85 21.0297 26.85 13.85C26.85 13.3618 26.8231 12.8797 26.7707 12.4055M26.85 3.73886L13.85 16.7389L9.51664 12.4055" stroke-width="1.7" stroke-linecap="round" stroke-linejoin="round"/>
    </symbol>

    <symbol id="verified-drivers" viewBox="0 0 40 40" xmlns="http://www.w3.org/2000/svg">
        <mask id="mask0_1939_7876" style="mask-type:luminance" maskUnits="userSpaceOnUse" x="0" y="0" width="40" height="40">
        <path d="M0 3.8147e-06H39.9999V39.9999H0V3.8147e-06Z"/>
        </mask>
        <g mask="url(#mask0_1939_7876)">
        <path d="M7.20483 39.4139L8.11069 22.5252C8.25983 19.7444 10.5582 17.566 13.3429 17.566H26.657C29.4418 17.566 31.7402 19.7444 31.8893 22.5252L32.7951 39.4139H7.20483Z" fill="#B2D9FD"/>
        <path d="M31.8893 22.5252C31.7401 19.7443 29.4418 17.566 26.657 17.566H24.3133C27.0981 17.566 29.3964 19.7443 29.5455 22.5252L30.4514 39.4139H32.7951L31.8893 22.5252Z" fill="#89C8FD"/>
        <path d="M35.0336 39.2186V32.6971C35.0336 29.8428 33.0999 27.3512 30.3349 26.6427L25.0091 25.2781C24.673 25.192 24.3752 24.9966 24.1625 24.7225C23.9498 24.4485 23.8343 24.1114 23.8343 23.7645V21.4171H16.1656V23.7645C16.1656 24.1114 16.0501 24.4485 15.8374 24.7225C15.6248 24.9966 15.3269 25.192 14.9909 25.2781L9.66497 26.6427C6.90005 27.3512 4.96631 29.8428 4.96631 32.6971V39.2186C4.96631 39.6501 5.31607 39.9999 5.74756 39.9999H34.2524C34.6838 39.9999 35.0336 39.6501 35.0336 39.2186Z" fill="#F58A97"/>
        <path d="M30.3348 26.6427L25.009 25.2781C24.673 25.192 24.3751 24.9966 24.1624 24.7225C23.9497 24.4484 23.8343 24.1114 23.8343 23.7645V21.417H21.4905V24.9363C21.4905 25.2833 21.606 25.6203 21.8187 25.8944C22.0314 26.1684 22.3292 26.3639 22.6653 26.45L27.9911 27.8145C30.7561 28.523 32.6899 31.0147 32.6899 33.869V39.9999H34.2524C34.6839 39.9999 35.0336 39.6501 35.0336 39.2186V32.6971C35.0336 29.8428 33.0999 27.3511 30.3348 26.6427Z" fill="#F07281"/>
        <path d="M15.3882 25.1142C16.3982 26.5786 18.0865 27.539 19.9999 27.539C21.9133 27.539 23.6017 26.5786 24.6116 25.1142C24.1399 24.8398 23.8342 24.3312 23.8342 23.7645V21.417H16.1655V23.7645C16.1655 24.3312 15.86 24.8398 15.3882 25.1142Z" fill="#FFDFD0"/>
        <path d="M22.6653 26.45L23.1433 26.5725C23.7185 26.1812 24.2164 25.6868 24.6115 25.1142C24.1398 24.8398 23.8343 24.3312 23.8343 23.7645V21.4171H21.4905V24.9363C21.4905 25.2833 21.606 25.6203 21.8187 25.8944C22.0314 26.1684 22.3292 26.3639 22.6653 26.45Z" fill="#FFCEBF"/>
        <path d="M24.8054 39.4139C26.1241 37.5448 27.3443 35.6081 28.4611 33.6118C29.5954 31.5836 30.6221 29.497 31.5367 27.3608C31.6906 27.0015 31.5186 26.5861 31.1566 26.4387L28.5375 25.3719C28.3701 25.3036 28.1828 25.3029 28.0149 25.3697C27.8469 25.4366 27.7114 25.5659 27.6367 25.7305C26.7458 27.6912 25.772 29.6132 24.7179 31.4912C23.1773 34.2362 21.4668 36.8822 19.5963 39.4139L19.1406 39.9999H24.3749L24.8054 39.4139Z" fill="#3C6D92"/>
        <path d="M31.1566 26.4387L28.5375 25.3719C28.3701 25.3037 28.1828 25.3029 28.0149 25.3698C27.847 25.4366 27.7114 25.5659 27.6367 25.7305C27.6077 25.7944 27.5773 25.8593 27.5479 25.9234L28.8129 26.4387C29.1748 26.5861 29.3469 27.0015 29.1929 27.3608C28.2783 29.4971 27.2517 31.5836 26.1173 33.6118C25.0006 35.6081 23.7804 37.5448 22.4617 39.4139L22.0312 39.9999H24.3749L24.8054 39.4139C26.1241 37.5448 27.3443 35.6081 28.4611 33.6118C29.5954 31.5836 30.622 29.4971 31.5366 27.3608C31.6906 27.0015 31.5186 26.5861 31.1566 26.4387Z" fill="#345E80"/>
        <path d="M9.15935 39.4139C10.2343 34.4155 14.6796 30.6687 19.9999 30.6687C25.3202 30.6687 29.7655 34.4155 30.8405 39.4139L30.9374 39.9999H27.1874L27.0327 39.4139C26.0499 36.4718 23.2687 34.3452 19.9999 34.3452C16.7312 34.3452 13.9499 36.4718 12.9671 39.4139L12.8125 39.9999H9.05005L9.15935 39.4139Z" fill="#EAF6FF"/>
        <path d="M17.6562 34.3452C14.3874 34.3452 11.6063 36.4718 10.6234 39.4139L10.4687 39.9999H12.8124L12.9671 39.4139C13.83 36.8307 16.0795 34.8766 18.828 34.4383C18.4405 34.3764 18.0486 34.3453 17.6562 34.3452Z" fill="#D8ECFE"/>
        <path d="M30.8405 39.4139C29.7655 34.4155 25.3202 30.6687 19.9999 30.6687C19.6042 30.6687 19.2132 30.6899 18.8281 30.7304C23.6191 31.2337 27.5018 34.7874 28.4968 39.4139L28.5937 39.9999H30.9374L30.8405 39.4139Z" fill="#D8ECFE"/>
        <path d="M30.2483 37.4335L30.2482 37.4336C29.6601 37.6903 28.9738 37.4571 28.6633 36.8954C28.0955 35.8682 27.625 34.7901 27.258 33.6752C27.0577 33.0667 27.355 32.4062 27.9421 32.1499C29.0069 31.6851 30.2503 32.1376 30.7636 33.1799C31.0032 33.6663 31.2201 34.1635 31.4136 34.6699C31.8276 35.7529 31.311 36.9697 30.2483 37.4335Z" fill="#FFDFD0"/>
        <path d="M31.4137 34.6699C31.2201 34.1635 31.0032 33.6663 30.7637 33.1799C30.2503 32.1376 29.0069 31.6851 27.9421 32.1498C27.8407 32.1943 27.7457 32.2521 27.6595 32.3217C27.9857 32.5341 28.2484 32.8306 28.4199 33.1799C28.6594 33.6663 28.8763 34.1635 29.0699 34.6699C29.3682 35.4503 29.1832 36.3 28.659 36.8875L28.6633 36.8954C28.9738 37.457 29.6601 37.6902 30.2482 37.4336L30.2484 37.4335C31.311 36.9697 31.8277 35.7529 31.4137 34.6699Z" fill="#FFCEBF"/>
        <path d="M9.75152 37.4335L9.75168 37.4336C10.3398 37.6903 11.0261 37.4571 11.3366 36.8954C11.9044 35.8682 12.3748 34.7901 12.7418 33.6752C12.9421 33.0667 12.6449 32.4062 12.0578 32.1499C10.9929 31.6851 9.74957 32.1376 9.23621 33.1799C8.99669 33.6663 8.77979 34.1635 8.58622 34.6699C8.17223 35.7529 8.68887 36.9697 9.75152 37.4335Z" fill="#FFDFD0"/>
        <path d="M12.0577 32.1498C11.3625 31.8464 10.5912 31.9342 9.99658 32.3217C10.3901 32.6386 10.563 33.1743 10.3981 33.6751C10.032 34.7872 9.56295 35.8626 8.99713 36.8875C9.20621 37.1219 9.46357 37.3081 9.7515 37.4334L9.75166 37.4335C10.3399 37.6902 11.0261 37.457 11.3367 36.8954C11.9044 35.8681 12.3748 34.79 12.7418 33.6751C12.9421 33.0666 12.6449 32.4061 12.0577 32.1498Z" fill="#FFCEBF"/>
        <path d="M28.4546 11.7948H11.5453V5.44959C11.5453 2.76343 13.7228 0.585935 16.4089 0.585935H23.5909C26.2771 0.585935 28.4546 2.76343 28.4546 5.44959V11.7948Z" fill="#3C6D92"/>
        <path d="M23.5909 0.585935H21.2472C23.9334 0.585935 26.1108 2.76351 26.1108 5.44959V11.7948H28.4546V5.44959C28.4546 2.76351 26.2771 0.585935 23.5909 0.585935Z" fill="#345E80"/>
        <path d="M20 23.0505C18.6196 23.0505 17.3164 22.9996 16.1656 22.4117C13.4233 21.0108 11.5453 18.1541 11.5453 14.8578V10.5227C13.2658 10.5043 15.8504 10.2504 18.6932 9.05381C19.8517 8.56577 20.958 7.9619 21.9952 7.25139C22.0947 7.18337 22.2139 7.15032 22.3342 7.15743C22.4545 7.16454 22.569 7.21142 22.6598 7.29069C23.3372 7.88254 24.0633 8.41611 24.8306 8.88568C25.9658 9.58 27.1832 10.1299 28.4546 10.5227V14.8578C28.4546 18.1395 26.5931 20.9855 23.8706 22.393C22.7109 22.9926 21.3948 23.0505 20 23.0505Z" fill="#FFDFD0"/>
        <path d="M20 23.0505C18.6196 23.0505 17.3164 22.9996 16.1656 22.4117C13.4233 21.0108 11.5453 18.1541 11.5453 14.8578V10.5227C13.2658 10.5043 15.8504 10.2504 18.6932 9.05381C19.8517 8.56577 20.958 7.9619 21.9952 7.25139C22.0947 7.18337 22.2139 7.15032 22.3342 7.15743C22.4545 7.16454 22.569 7.21142 22.6598 7.29069C23.3372 7.88254 24.0633 8.41611 24.8306 8.88568C25.9658 9.58 27.1832 10.1299 28.4546 10.5227V14.8578C28.4546 18.1395 26.5931 20.9855 23.8706 22.393C22.7109 22.9926 21.3948 23.0505 20 23.0505Z" fill="#FFDFD0"/>
        <path d="M28.4546 14.8578V10.5227C27.6511 10.2742 26.8685 9.96283 26.1138 9.59154L26.1109 14.8578C26.1268 15.442 26.1419 18.2423 24.0125 20.4447C22.0539 22.4703 19.0315 23.2143 16.1656 22.4115L16.1661 22.4119C17.3169 22.9997 18.6198 23.3312 20 23.3312C21.3949 23.3312 22.7109 22.9926 23.8706 22.393C26.5931 20.9855 28.4546 18.1395 28.4546 14.8578Z" fill="#FFCEBF"/>
        <path d="M28.7691 14.8948H28.4546V10.5327H28.7691C29.9736 10.5327 30.9501 11.5092 30.9501 12.7138C30.9501 13.9183 29.9736 14.8948 28.7691 14.8948Z" fill="#FFDFD0"/>
        <path d="M11.2308 14.8948H11.5453V10.5327H11.2308C10.0262 10.5327 9.04974 11.5092 9.04974 12.7138C9.04974 13.9183 10.0262 14.8948 11.2308 14.8948Z" fill="#FFCEBF"/>
        </g>
    </symbol>

    <symbol id="unverified-drivers" viewBox="0 0 40 40" xmlns="http://www.w3.org/2000/svg">
        <mask id="mask0_1939_8030" style="mask-type:luminance" maskUnits="userSpaceOnUse" x="0" y="0" width="40" height="40">
        <path d="M0 3.8147e-06H39.9999V39.9999H0V3.8147e-06Z"/>
        </mask>
        <g mask="url(#mask0_1939_8030)">
        <path d="M7.20483 39.4139L8.11069 22.5252C8.25983 19.7444 10.5582 17.566 13.3429 17.566H26.657C29.4418 17.566 31.7402 19.7444 31.8893 22.5252L32.7951 39.4139H7.20483Z" fill="#B2D9FD"/>
        <path d="M31.8892 22.5252C31.7401 19.7443 29.4417 17.566 26.657 17.566H24.3132C27.098 17.566 29.3963 19.7443 29.5455 22.5252L30.4513 39.4139H32.7951L31.8892 22.5252Z" fill="#89C8FD"/>
        <path d="M35.0336 39.2186V32.6971C35.0336 29.8428 33.0999 27.3512 30.3349 26.6427L25.0091 25.2781C24.673 25.192 24.3752 24.9966 24.1625 24.7225C23.9498 24.4485 23.8343 24.1114 23.8343 23.7645V21.4171H16.1656V23.7645C16.1656 24.1114 16.0501 24.4485 15.8374 24.7225C15.6248 24.9966 15.3269 25.192 14.9909 25.2781L9.66497 26.6427C6.90005 27.3512 4.96631 29.8428 4.96631 32.6971V39.2186C4.96631 39.6501 5.31607 39.9999 5.74756 39.9999H34.2524C34.6838 39.9999 35.0336 39.6501 35.0336 39.2186Z" fill="#7CC3B0"/>
        <path d="M30.3349 26.6427L25.0091 25.2781C24.673 25.192 24.3752 24.9966 24.1625 24.7225C23.9498 24.4484 23.8343 24.1114 23.8343 23.7645V21.417H21.4906V24.9363C21.4906 25.2833 21.606 25.6203 21.8187 25.8944C22.0314 26.1684 22.3293 26.3639 22.6654 26.45L27.9911 27.8145C30.7562 28.523 32.6899 31.0147 32.6899 33.869V39.9999H34.2524C34.6839 39.9999 35.0337 39.6501 35.0337 39.2186V32.6971C35.0337 29.8428 33.0999 27.3511 30.3349 26.6427Z" fill="#2F8F76"/>
        <path d="M15.3882 25.1142C16.3981 26.5786 18.0865 27.539 19.9998 27.539C21.9132 27.539 23.6016 26.5786 24.6115 25.1142C24.1398 24.8398 23.8342 24.3312 23.8342 23.7645V21.417H16.1654V23.7645C16.1654 24.3312 15.8599 24.8398 15.3882 25.1142Z" fill="#FFDFD0"/>
        <path d="M22.6654 26.45L23.1433 26.5725C23.7186 26.1812 24.2164 25.6868 24.6116 25.1142C24.1399 24.8398 23.8343 24.3312 23.8343 23.7645V21.4171H21.4906V24.9363C21.4906 25.2833 21.606 25.6203 21.8187 25.8944C22.0314 26.1684 22.3293 26.3639 22.6654 26.45Z" fill="#FFCEBF"/>
        <path d="M24.8055 39.4139C26.1241 37.5448 27.3444 35.6081 28.4611 33.6118C29.5955 31.5836 30.6221 29.497 31.5368 27.3608C31.6907 27.0015 31.5186 26.5861 31.1567 26.4387L28.5376 25.3719C28.3702 25.3036 28.1829 25.3029 28.0149 25.3697C27.847 25.4366 27.7115 25.5659 27.6368 25.7305C26.7458 27.6912 25.772 29.6132 24.718 31.4912C23.1773 34.2362 21.4668 36.8822 19.5964 39.4139L19.1406 39.9999H24.375L24.8055 39.4139Z" fill="#3C6D92"/>
        <path d="M31.1566 26.4387L28.5374 25.3719C28.3701 25.3037 28.1828 25.3029 28.0148 25.3698C27.8469 25.4366 27.7114 25.5659 27.6367 25.7305C27.6076 25.7944 27.5772 25.8593 27.5478 25.9234L28.8128 26.4387C29.1748 26.5861 29.3468 27.0015 29.1928 27.3608C28.2782 29.4971 27.2516 31.5836 26.1173 33.6118C25.0005 35.6081 23.7803 37.5448 22.4616 39.4139L22.0311 39.9999H24.3749L24.8053 39.4139C26.124 37.5448 27.3443 35.6081 28.461 33.6118C29.5954 31.5836 30.622 29.4971 31.5366 27.3608C31.6906 27.0015 31.5185 26.5861 31.1566 26.4387Z" fill="#345E80"/>
        <path d="M9.15935 39.4139C10.2343 34.4155 14.6796 30.6687 19.9999 30.6687C25.3202 30.6687 29.7655 34.4155 30.8405 39.4139L30.9374 39.9999H27.1874L27.0327 39.4139C26.0499 36.4718 23.2687 34.3452 19.9999 34.3452C16.7312 34.3452 13.9499 36.4718 12.9671 39.4139L12.8125 39.9999H9.05005L9.15935 39.4139Z" fill="#EAF6FF"/>
        <path d="M17.6562 34.3452C14.3875 34.3452 11.6063 36.4718 10.6234 39.4139L10.4688 39.9999H12.8125L12.9672 39.4139C13.8301 36.8307 16.0796 34.8766 18.8281 34.4383C18.4405 34.3764 18.0487 34.3453 17.6562 34.3452Z" fill="#D8ECFE"/>
        <path d="M30.8406 39.4139C29.7656 34.4155 25.3203 30.6687 20 30.6687C19.6042 30.6687 19.2133 30.6899 18.8281 30.7304C23.6192 31.2337 27.5018 34.7874 28.4968 39.4139L28.5937 39.9999H30.9375L30.8406 39.4139Z" fill="#D8ECFE"/>
        <path d="M30.2484 37.4335L30.2482 37.4336C29.6601 37.6903 28.9739 37.4571 28.6633 36.8954C28.0956 35.8682 27.6251 34.7901 27.2581 33.6752C27.0578 33.0667 27.355 32.4062 27.9422 32.1499C29.007 31.6851 30.2503 32.1376 30.7637 33.1799C31.0032 33.6663 31.2201 34.1635 31.4137 34.6699C31.8277 35.7529 31.311 36.9697 30.2484 37.4335Z" fill="#FFDFD0"/>
        <path d="M31.4137 34.6699C31.2201 34.1635 31.0032 33.6663 30.7637 33.1799C30.2503 32.1376 29.0069 31.6851 27.9421 32.1498C27.8407 32.1943 27.7457 32.2521 27.6595 32.3217C27.9857 32.5341 28.2484 32.8306 28.4199 33.1799C28.6594 33.6663 28.8763 34.1635 29.0699 34.6699C29.3682 35.4503 29.1832 36.3 28.659 36.8875L28.6633 36.8954C28.9738 37.457 29.6601 37.6902 30.2482 37.4336L30.2484 37.4335C31.311 36.9697 31.8277 35.7529 31.4137 34.6699Z" fill="#FFCEBF"/>
        <path d="M9.75159 37.4335L9.75174 37.4336C10.3399 37.6903 11.0261 37.4571 11.3367 36.8954C11.9044 35.8682 12.3749 34.7901 12.7419 33.6752C12.9422 33.0667 12.6449 32.4062 12.0578 32.1499C10.993 31.6851 9.74963 32.1376 9.23627 33.1799C8.99675 33.6663 8.77986 34.1635 8.58628 34.6699C8.17229 35.7529 8.68893 36.9697 9.75159 37.4335Z" fill="#FFDFD0"/>
        <path d="M12.0578 32.1498C11.3626 31.8464 10.5913 31.9342 9.99664 32.3217C10.3902 32.6386 10.563 33.1743 10.3981 33.6751C10.032 34.7872 9.56301 35.8626 8.99719 36.8875C9.20627 37.1219 9.46363 37.3081 9.75157 37.4334L9.75172 37.4335C10.3399 37.6902 11.0262 37.457 11.3367 36.8954C11.9044 35.8681 12.3748 34.79 12.7419 33.6751C12.9422 33.0666 12.645 32.4061 12.0578 32.1498Z" fill="#FFCEBF"/>
        <path d="M28.4547 11.7948H11.5454V5.44959C11.5454 2.76343 13.7229 0.585935 16.409 0.585935H23.591C26.2772 0.585935 28.4547 2.76343 28.4547 5.44959V11.7948Z" fill="#3C6D92"/>
        <path d="M23.5909 0.585935H21.2472C23.9334 0.585935 26.1108 2.76351 26.1108 5.44959V11.7948H28.4546V5.44959C28.4546 2.76351 26.2771 0.585935 23.5909 0.585935Z" fill="#345E80"/>
        <path d="M20 23.0505C18.6196 23.0505 17.3164 22.9996 16.1656 22.4117C13.4233 21.0108 11.5453 18.1541 11.5453 14.8578V10.5227C13.2658 10.5043 15.8504 10.2504 18.6932 9.05381C19.8517 8.56577 20.958 7.9619 21.9952 7.25139C22.0947 7.18337 22.2139 7.15032 22.3342 7.15743C22.4545 7.16454 22.569 7.21142 22.6598 7.29069C23.3372 7.88254 24.0633 8.41611 24.8306 8.88568C25.9658 9.58 27.1832 10.1299 28.4546 10.5227V14.8578C28.4546 18.1395 26.5931 20.9855 23.8706 22.393C22.7109 22.9926 21.3948 23.0505 20 23.0505Z" fill="#FFDFD0"/>
        <path d="M20 23.0505C18.6196 23.0505 17.3164 22.9996 16.1656 22.4117C13.4233 21.0108 11.5453 18.1541 11.5453 14.8578V10.5227C13.2658 10.5043 15.8504 10.2504 18.6932 9.05381C19.8517 8.56577 20.958 7.9619 21.9952 7.25139C22.0947 7.18337 22.2139 7.15032 22.3342 7.15743C22.4545 7.16454 22.569 7.21142 22.6598 7.29069C23.3372 7.88254 24.0633 8.41611 24.8306 8.88568C25.9658 9.58 27.1832 10.1299 28.4546 10.5227V14.8578C28.4546 18.1395 26.5931 20.9855 23.8706 22.393C22.7109 22.9926 21.3948 23.0505 20 23.0505Z" fill="#FFDFD0"/>
        <path d="M28.4546 14.8578V10.5227C27.6511 10.2742 26.8684 9.96283 26.1138 9.59154L26.1108 14.8578C26.1267 15.442 26.1418 18.2423 24.0125 20.4447C22.0539 22.4703 19.0315 23.2143 16.1655 22.4115L16.166 22.4119C17.3169 22.9997 18.6197 23.3312 19.9999 23.3312C21.3949 23.3312 22.7108 22.9926 23.8706 22.393C26.5931 20.9855 28.4546 18.1395 28.4546 14.8578Z" fill="#FFCEBF"/>
        <path d="M28.7691 14.8948H28.4546V10.5327H28.7691C29.9736 10.5327 30.9501 11.5092 30.9501 12.7138C30.9501 13.9183 29.9736 14.8948 28.7691 14.8948Z" fill="#FFDFD0"/>
        <path d="M11.2307 14.8948H11.5452V10.5327H11.2307C10.0262 10.5327 9.04968 11.5092 9.04968 12.7138C9.04968 13.9183 10.0262 14.8948 11.2307 14.8948Z" fill="#FFCEBF"/>
        </g>
    </symbol>

    <symbol id="total-riders" viewBox="0 0 38 37" xmlns="http://www.w3.org/2000/svg">
        <path d="M6.25 23.75C5.01387 23.75 3.8055 24.1166 2.77769 24.8033C1.74988 25.4901 0.948803 26.4662 0.475756 27.6082C0.00270803 28.7503 -0.121063 30.0069 0.120095 31.2193C0.361252 32.4317 0.956507 33.5453 1.83059 34.4194C2.70466 35.2935 3.81831 35.8888 5.03069 36.1299C6.24307 36.3711 7.49974 36.2473 8.64178 35.7742C9.78381 35.3012 10.7599 34.5001 11.4467 33.4723C12.1334 32.4445 12.5 31.2361 12.5 30C12.4982 28.343 11.8391 26.7543 10.6674 25.5826C9.4957 24.4109 7.90705 23.7518 6.25 23.75ZM6.25 34.375C5.38471 34.375 4.53885 34.1184 3.81938 33.6377C3.09992 33.1569 2.53916 32.4737 2.20803 31.6742C1.8769 30.8748 1.79026 29.9951 1.95907 29.1465C2.12788 28.2978 2.54456 27.5183 3.15641 26.9064C3.76827 26.2946 4.54782 25.8779 5.39648 25.7091C6.24515 25.5403 7.12482 25.6269 7.92424 25.958C8.72367 26.2892 9.40695 26.8499 9.88768 27.5694C10.3684 28.2888 10.625 29.1347 10.625 30C10.6237 31.1599 10.1623 32.2719 9.34213 33.0921C8.52195 33.9123 7.40992 34.3737 6.25 34.375ZM31.25 23.75C30.0139 23.75 28.8055 24.1166 27.7777 24.8033C26.7499 25.4901 25.9488 26.4662 25.4758 27.6082C25.0027 28.7503 24.8789 30.0069 25.1201 31.2193C25.3613 32.4317 25.9565 33.5453 26.8306 34.4194C27.7047 35.2935 28.8183 35.8888 30.0307 36.1299C31.2431 36.3711 32.4997 36.2473 33.6418 35.7742C34.7838 35.3012 35.7599 34.5001 36.4467 33.4723C37.1334 32.4445 37.5 31.2361 37.5 30C37.4982 28.343 36.8391 26.7543 35.6674 25.5826C34.4957 24.4109 32.907 23.7518 31.25 23.75ZM31.25 34.375C30.3847 34.375 29.5388 34.1184 28.8194 33.6377C28.0999 33.1569 27.5392 32.4737 27.208 31.6742C26.8769 30.8748 26.7903 29.9951 26.9591 29.1465C27.1279 28.2978 27.5446 27.5183 28.1564 26.9064C28.7683 26.2946 29.5478 25.8779 30.3965 25.7091C31.2451 25.5403 32.1248 25.6269 32.9242 25.958C33.7237 26.2892 34.4069 26.8499 34.8877 27.5694C35.3684 28.2888 35.625 29.1347 35.625 30C35.6237 31.1599 35.1623 32.2719 34.3421 33.0921C33.5219 33.9123 32.4099 34.3737 31.25 34.375Z" fill="#949391"/>
        <path d="M0.625 20.625H3.125V22.5H0.625V20.625Z" fill="#EA4747"/>
        <path d="M5 21.25C2.21938 21.25 0.209375 23.8875 0.125 24L1.125 24.75C1.14125 24.7281 2.85 22.5 5 22.5H10V21.25H5Z" fill="#FFC200"/>
        <path d="M16.875 20.625L15.625 22.5H10.625L12.1438 20.2312L16.875 20.625Z" fill="#949391"/>
        <path d="M18.125 22.5L17.5 25.625H12.3438L10 22.5H18.125Z" fill="#FFC200"/>
        <path d="M19.375 22.5V27.5H18.2994C17.1075 27.5 16.0819 27.7162 15.8481 28.885L15.625 30H22.5L24.3231 25.625H22.3438L23.125 22.5H19.375Z" fill="#949391"/>
        <path d="M26.1437 22.1562C26.0871 22.0703 26.0101 21.9996 25.9196 21.9505C25.8291 21.9015 25.7279 21.8755 25.625 21.875H9.99997C9.8842 21.8737 9.77044 21.9053 9.67195 21.9661C9.57347 22.027 9.49431 22.1146 9.44372 22.2187C9.39107 22.3225 9.36844 22.4389 9.37838 22.5549C9.38832 22.6708 9.43043 22.7817 9.49997 22.875L15.125 30.375C15.1836 30.4521 15.2592 30.5148 15.3459 30.5581C15.4326 30.6014 15.5281 30.6243 15.625 30.625H22.5C22.6236 30.6255 22.7445 30.5888 22.8471 30.5197C22.9496 30.4506 23.029 30.3523 23.075 30.2375L26.2 22.7375C26.2405 22.6438 26.2566 22.5413 26.2468 22.4396C26.237 22.338 26.2015 22.2405 26.1437 22.1562ZM22.0812 29.375H15.9375L11.25 23.125H24.6875L22.0812 29.375Z" fill="#B3B3B3"/>
        <path d="M23.0494 30.2812C22.9989 30.384 22.9208 30.4707 22.8237 30.5314C22.7266 30.5922 22.6145 30.6246 22.5 30.625H21.4937L21.0375 31.5312C20.9856 31.6356 20.9052 31.7233 20.8057 31.7841C20.7062 31.8449 20.5916 31.8764 20.475 31.875H14.8938C14.8114 31.8758 14.7298 31.8602 14.6536 31.8291C14.5774 31.798 14.5082 31.752 14.45 31.6937L13.3063 30.55C13.0858 30.3212 12.807 30.1569 12.5 30.075C12.3318 30.0243 12.1569 29.999 11.9813 30H10.625V31.25H11.9813C12.113 31.2477 12.242 31.2871 12.35 31.3625C12.375 31.3875 12.4 31.4062 12.425 31.4312L13.5687 32.575C13.7418 32.7504 13.9481 32.8894 14.1757 32.9839C14.4032 33.0783 14.6474 33.1263 14.8938 33.125H20.475C20.8242 33.1263 21.1667 33.0297 21.4638 32.8464C21.761 32.663 22.0008 32.4001 22.1562 32.0875L23.0312 30.325L23.0562 30.2812H23.0494Z" fill="#A4A7A9"/>
        <path d="M30 17.5L28.1819 18.75L28.7013 20.6544L30 20.625H31.875V17.5H30Z" fill="#FFC200"/>
        <path d="M26.0419 23.125L28.7012 20.6544L28.1819 18.75H25.36L26.0419 23.125Z" fill="#8B8E8F"/>
        <path d="M31.25 32.5C32.6307 32.5 33.75 31.3807 33.75 30C33.75 28.6193 32.6307 27.5 31.25 27.5C29.8693 27.5 28.75 28.6193 28.75 30C28.75 31.3807 29.8693 32.5 31.25 32.5Z" fill="#C7C7C5"/>
        <path d="M25.855 21.925C25.986 21.4611 26.0743 20.9862 26.1187 20.5063C26.1196 20.2736 26.0987 20.0413 26.0562 19.8125C25.9397 19.1861 25.588 18.628 25.0732 18.2527C24.5584 17.8773 23.9195 17.7131 23.2874 17.7938L20.625 18.125C19.1258 18.505 17.8023 19.3874 16.875 20.625L16.0437 21.875L25.855 21.925Z" fill="#FFC200"/>
        <path d="M12.1438 20.2312L10.7088 22.5H7.5L9.36875 20H9.375L12.1438 20.2312Z" fill="#C7C7C5"/>
        <path d="M9.36875 20L7.575 22.3875L5 21.875V21.5375C5.00004 21.2691 5.0577 21.0039 5.16907 20.7597C5.28045 20.5155 5.44295 20.2981 5.64559 20.1221C5.84823 19.9461 6.08628 19.8157 6.34367 19.7396C6.60105 19.6636 6.87176 19.6437 7.1375 19.6812L9.36875 20Z" fill="#949391"/>
        <path d="M19.9675 19.4869L15.625 17.5H10.625V19.5119C10.625 19.6512 10.6716 19.7865 10.7573 19.8964C10.843 20.0062 10.963 20.0843 11.0981 20.1181L17.5294 21.7263C17.689 21.7659 17.8265 21.8669 17.9121 22.0073C17.9978 22.1477 18.0246 22.3162 17.9869 22.4763L16.4244 29.2375C16.4037 29.3291 16.404 29.4242 16.4251 29.5156C16.4462 29.6071 16.4877 29.6927 16.5464 29.7659C16.6051 29.8392 16.6796 29.8983 16.7643 29.9388C16.849 29.9793 16.9417 30.0002 17.0356 30H20.625C20.7908 30 20.9497 29.9342 21.0669 29.8169C21.1842 29.6997 21.25 29.5408 21.25 29.375C21.25 29.0435 21.1183 28.7255 20.8839 28.4911C20.6495 28.2567 20.3315 28.125 20 28.125H19.375L21.0056 21.65C21.1127 21.225 21.0675 20.7758 20.8779 20.3806C20.6882 19.9855 20.3661 19.6692 19.9675 19.4869Z" fill="#3D76F8"/>
        <path d="M11.135 21.875L10.0812 23.65L6.79998 29.675L5.34998 29.5937L9.44373 22.2187C9.49432 22.1146 9.57347 22.027 9.67196 21.9661C9.77045 21.9053 9.88421 21.8737 9.99998 21.875H11.135Z" fill="#B3B3B3"/>
        <path d="M5 29.375C4.78146 29.3756 4.56693 29.4337 4.37792 29.5434C4.18891 29.6531 4.03206 29.8106 3.92313 30H2.5V31.25H3.92313C4.03206 31.4395 4.18891 31.5969 4.37792 31.7066C4.56693 31.8163 4.78146 31.8744 5 31.875H11.25C11.4158 31.875 11.5747 31.8092 11.6919 31.6919C11.8092 31.5747 11.875 31.4158 11.875 31.25V30C11.875 29.8342 11.8092 29.6753 11.6919 29.5581C11.5747 29.4409 11.4158 29.375 11.25 29.375H5ZM30.6469 30.1644L26.3806 14.5206L24.3088 14.9375L24.0625 13.7119L26.7069 13.18C26.8624 13.1486 27.024 13.1775 27.1589 13.2608C27.2939 13.3441 27.3922 13.4757 27.4338 13.6288L31.8538 29.8356L30.6469 30.1644Z" fill="#A4A7A9"/>
        <path d="M11.875 5.97687H14.375V9.49249H11.875V5.97687Z" fill="#FEC093"/>
        <path d="M17.6688 4.375L17.8563 5.39813C17.8896 5.57862 17.8828 5.76423 17.8363 5.94178C17.7897 6.11933 17.7047 6.28446 17.5872 6.42543C17.4696 6.56641 17.3225 6.67977 17.1562 6.75747C16.9899 6.83517 16.8086 6.8753 16.625 6.875H11.5807C11.3063 6.87502 11.0396 6.78477 10.8216 6.61817C10.6036 6.45157 10.4464 6.21787 10.3744 5.95312L10.0432 4.735C9.89173 4.17869 9.87061 3.59495 9.98143 3.02915C10.0923 2.46335 10.3321 1.93072 10.6822 1.47266C11.0323 1.0146 11.4834 0.643442 12.0003 0.388032C12.5172 0.132622 13.086 -0.000161311 13.6625 1.47068e-07H14.7875C15.3419 0.00169477 15.8801 0.186425 16.3186 0.525488C16.7571 0.864551 17.0714 1.33896 17.2125 1.875C17.225 1.93125 17.2375 1.9875 17.25 2.05L17.6688 4.375ZM15.625 10.625V17.5H10.625V11.1425C10.625 10.5821 10.7354 10.0271 10.9498 9.50939C11.1643 8.99164 11.4787 8.52122 11.875 8.125H14.375L14.7413 8.49125C15.0215 8.77146 15.2438 9.10412 15.3954 9.47023C15.547 9.83634 15.6251 10.2287 15.625 10.625Z" fill="#EA4747"/>
        <path d="M15.625 13.9937V15.6437L12.9656 13.3244L12.975 11.6812L15.625 13.9937Z" fill="#CC3E3E"/>
        <path d="M17.25 2.05L17.6688 4.375H14.375L13.75 1.875H17.2125C17.225 1.93125 17.2375 1.9875 17.25 2.05Z" fill="#949391"/>
        <path d="M24.4932 15.3894H20.8988V13.5675L24.5544 12.9225C24.7101 12.8948 24.8703 12.9081 25.0193 12.9611C25.1683 13.0141 25.3009 13.105 25.4041 13.2248C25.5073 13.3447 25.5775 13.4893 25.6078 13.6445C25.6381 13.7997 25.6275 13.9602 25.5769 14.11L25.3576 14.7694C25.2966 14.9503 25.1804 15.1075 25.0253 15.2187C24.8702 15.33 24.6841 15.3897 24.4932 15.3894Z" fill="#FEC093"/>
        <path d="M14.6744 10.125L18.125 13.125H22.5V15.625H17.9688C17.6666 15.625 17.3746 15.5156 17.1469 15.3169L12.5988 11.3488L14.6744 10.125Z" fill="#EA4747"/>
    </symbol>

    <symbol id="total-rides" viewBox="0 0 40 40" xmlns="http://www.w3.org/2000/svg">
        <path d="M6.15438 17.1987L7.02938 15.6731C8.1224 13.7604 9.70151 12.1705 11.6068 11.0645C13.512 9.95847 15.6757 9.37563 17.8787 9.375H19.6213C21.8248 9.37508 23.9892 9.95766 25.895 11.0637C27.8009 12.1697 29.3805 13.7599 30.4737 15.6731L31.2862 17.0944C31.4702 17.4164 31.7236 17.6934 32.0279 17.9054C32.3322 18.1174 32.6798 18.259 33.0456 18.32L35.1969 18.6788C36.3644 18.8733 37.425 19.4757 38.19 20.3788C38.9551 21.2819 39.375 22.427 39.375 23.6106V25.625C39.375 26.288 39.1116 26.9239 38.6428 27.3928C38.1739 27.8616 37.538 28.125 36.875 28.125H3.125C2.46196 28.125 1.82607 27.8616 1.35723 27.3928C0.888392 26.9239 0.625 26.288 0.625 25.625V21.3269C0.625084 20.7694 0.811504 20.2279 1.15463 19.7885C1.49776 19.3492 1.9779 19.0371 2.51875 18.9019L4.59 18.3837C4.91721 18.302 5.22448 18.1548 5.49333 17.9512C5.76218 17.7475 5.98704 17.4916 6.15438 17.1987Z" fill="#F8C460"/>
        <path d="M38.75 26.25H9.29813C7.49515 26.25 5.76602 25.5338 4.49112 24.2589C3.21623 22.984 2.5 21.2548 2.5 19.4519C2.50257 19.2622 2.52689 19.0735 2.5725 18.8894L2.51875 18.9025C1.97811 19.0376 1.49812 19.3495 1.15502 19.7887C0.811911 20.2278 0.625363 20.769 0.625 21.3263V25.625C0.625 26.288 0.888392 26.9239 1.35723 27.3928C1.82607 27.8616 2.46196 28.125 3.125 28.125H36.875C37.4404 28.124 37.9887 27.9313 38.4305 27.5785C38.8723 27.2258 39.1814 26.7336 39.3075 26.1825C39.1248 26.226 38.9378 26.2486 38.75 26.25Z" fill="#FAAF42"/>
        <path d="M0.625 21.325V23.125H2.5L3.125 20.625H0.725C0.659884 20.8527 0.626238 21.0882 0.625 21.325Z" fill="#A7D0E1"/>
        <path d="M2.86937 21.6475C2.75553 21.3141 2.66818 20.9722 2.60812 20.625H0.733125C0.715512 20.6838 0.700085 20.7432 0.686875 20.8031C0.676875 20.8481 0.665 20.8931 0.6575 20.9387C0.63688 21.0669 0.626015 21.1964 0.625 21.3263V23.125H2.5L2.86937 21.6475Z" fill="#80BBCE"/>
        <path d="M35.625 20.625C35.6246 20.9534 35.689 21.2787 35.8145 21.5822C35.94 21.8857 36.1241 22.1615 36.3563 22.3937C36.5885 22.6259 36.8643 22.81 37.1678 22.9355C37.4713 23.061 37.7966 23.1254 38.125 23.125H39.35C39.2653 22.2169 38.9275 21.3507 38.375 20.625H35.625Z" fill="#A7D0E1"/>
        <path d="M33.1251 27.5C33.1281 26.9793 33.0226 26.4636 32.8154 25.9859C32.6081 25.5082 32.3037 25.0789 31.9214 24.7253C31.5391 24.3717 31.0874 24.1016 30.595 23.9322C30.1026 23.7628 29.5803 23.6979 29.0614 23.7414C28.5425 23.785 28.0383 23.9362 27.581 24.1853C27.1238 24.4344 26.7234 24.7761 26.4054 25.1884C26.0875 25.6008 25.8589 26.0749 25.7342 26.5805C25.6095 27.0861 25.5915 27.6121 25.6813 28.125H33.0688C33.105 27.9186 33.1238 27.7095 33.1251 27.5Z" fill="#FAAF42"/>
        <path d="M30.625 30.625C32.6961 30.625 34.375 28.9461 34.375 26.875C34.375 24.8039 32.6961 23.125 30.625 23.125C28.5539 23.125 26.875 24.8039 26.875 26.875C26.875 28.9461 28.5539 30.625 30.625 30.625Z" fill="#7A838B"/>
        <path d="M30.625 28.125C31.3154 28.125 31.875 27.5654 31.875 26.875C31.875 26.1846 31.3154 25.625 30.625 25.625C29.9346 25.625 29.375 26.1846 29.375 26.875C29.375 27.5654 29.9346 28.125 30.625 28.125Z" fill="#A7D0E1"/>
        <path d="M9.375 30.625C11.4461 30.625 13.125 28.9461 13.125 26.875C13.125 24.8039 11.4461 23.125 9.375 23.125C7.30393 23.125 5.625 24.8039 5.625 26.875C5.625 28.9461 7.30393 30.625 9.375 30.625Z" fill="#7A838B"/>
        <path d="M11.2501 28.75C10.6234 28.7507 10.0065 28.5942 9.45597 28.2948C8.90544 27.9953 8.43884 27.5625 8.09892 27.0361C7.75899 26.5096 7.5566 25.9062 7.51028 25.2812C7.46397 24.6562 7.57521 24.0296 7.83381 23.4588C7.27985 23.7077 6.79463 24.0874 6.41987 24.5653C6.04511 25.0432 5.79202 25.6049 5.68236 26.2022C5.57271 26.7996 5.60977 27.4146 5.79035 27.9944C5.97094 28.5743 6.28965 29.1016 6.71908 29.531C7.14851 29.9604 7.67581 30.2791 8.25565 30.4597C8.83549 30.6403 9.45051 30.6774 10.0478 30.5677C10.6452 30.458 11.2069 30.205 11.6848 29.8302C12.1627 29.4554 12.5424 28.9702 12.7913 28.4163C12.3072 28.636 11.7817 28.7498 11.2501 28.75ZM32.5001 28.75C31.8734 28.7507 31.2565 28.5942 30.706 28.2948C30.1554 27.9953 29.6888 27.5625 29.3489 27.0361C29.009 26.5096 28.8066 25.9062 28.7603 25.2812C28.714 24.6562 28.8252 24.0296 29.0838 23.4588C28.5299 23.7077 28.0446 24.0874 27.6699 24.5653C27.2951 25.0432 27.042 25.6049 26.9324 26.2022C26.8227 26.7996 26.8598 27.4146 27.0403 27.9944C27.2209 28.5743 27.5396 29.1016 27.9691 29.531C28.3985 29.9604 28.9258 30.2791 29.5056 30.4597C30.0855 30.6403 30.7005 30.6774 31.2978 30.5677C31.8952 30.458 32.4569 30.205 32.9348 29.8302C33.4127 29.4554 33.7924 28.9702 34.0413 28.4163C33.5572 28.636 33.0317 28.7498 32.5001 28.75Z" fill="#5D6972"/>
        <path d="M9.375 28.125C10.0654 28.125 10.625 27.5654 10.625 26.875C10.625 26.1846 10.0654 25.625 9.375 25.625C8.68464 25.625 8.125 26.1846 8.125 26.875C8.125 27.5654 8.68464 28.125 9.375 28.125Z" fill="#A7D0E1"/>
        <path d="M17.175 11.25H17.5V17.5H8.75L9.05 16.75C9.70015 15.1266 10.8215 13.7352 12.2697 12.7549C13.7178 11.7746 15.4263 11.2505 17.175 11.25Z" fill="#A7D0E1"/>
        <path d="M11.25 15.625L11.55 14.875C11.9495 13.8798 12.5285 12.9665 13.2581 12.1806C11.344 13.1381 9.84695 14.7636 9.05 16.75L8.75 17.5H17.5V15.625H11.25Z" fill="#80BBCE"/>
        <path d="M28.75 17.5H20V11.25H20.325C22.0737 11.2505 23.7822 11.7746 25.2303 12.7549C26.6785 13.7352 27.7999 15.1266 28.45 16.75L28.75 17.5Z" fill="#A7D0E1"/>
        <path d="M24.375 14.305C24.2557 14.3052 24.139 14.2709 24.0388 14.2063C23.8513 14.0881 23.6638 13.9775 23.4656 13.8775C23.318 13.8021 23.2064 13.6711 23.1554 13.5134C23.1043 13.3557 23.118 13.1842 23.1934 13.0366C23.2689 12.889 23.3998 12.7774 23.5575 12.7263C23.7152 12.6753 23.8868 12.689 24.0344 12.7644C24.2669 12.8831 24.4927 13.0127 24.7119 13.1531C24.8259 13.2259 24.9133 13.3337 24.9608 13.4603C25.0084 13.587 25.0135 13.7256 24.9756 13.8554C24.9376 13.9853 24.8585 14.0993 24.7502 14.1803C24.6419 14.2614 24.5103 14.3052 24.375 14.305Z" fill="white"/>
        <path d="M27.9 15.625H24.375C23.712 15.625 23.0761 15.3616 22.6072 14.8928C22.1384 14.4239 21.875 13.788 21.875 13.125V11.3937C21.3636 11.2997 20.8449 11.2516 20.325 11.25H20V17.5H28.75L28.45 16.75C28.2936 16.3624 28.1098 15.9865 27.9 15.625Z" fill="#80BBCE"/>
        <path d="M21.25 18.75H20C19.8342 18.75 19.6753 18.8158 19.5581 18.9331C19.4408 19.0503 19.375 19.2092 19.375 19.375C19.375 19.5408 19.4408 19.6997 19.5581 19.8169C19.6753 19.9342 19.8342 20 20 20H21.25C21.4158 20 21.5747 19.9342 21.6919 19.8169C21.8092 19.6997 21.875 19.5408 21.875 19.375C21.875 19.2092 21.8092 19.0503 21.6919 18.9331C21.5747 18.8158 21.4158 18.75 21.25 18.75ZM9.375 18.75H8.125C7.95924 18.75 7.80027 18.8158 7.68306 18.9331C7.56585 19.0503 7.5 19.2092 7.5 19.375C7.5 19.5408 7.56585 19.6997 7.68306 19.8169C7.80027 19.9342 7.95924 20 8.125 20H9.375C9.54076 20 9.69973 19.9342 9.81694 19.8169C9.93415 19.6997 10 19.5408 10 19.375C10 19.2092 9.93415 19.0503 9.81694 18.9331C9.69973 18.8158 9.54076 18.75 9.375 18.75Z" fill="#7A838B"/>
    </symbol>

    <symbol id="total-revenue" viewBox="0 0 40 36" xmlns="http://www.w3.org/2000/svg">
        <path d="M37.9625 0V17.3188L35.1976 17.418L32.4297 17.5219V0H37.9625ZM20.532 0V23.6758L15 21.4008V0H20.532ZM29.2469 7.57578V27.5391L27.7141 28.957L26.2758 30.2914L23.7148 27.7141V7.57578H29.2469ZM11.8133 7.57578V22.3414L6.28436 20.9469V7.57578H11.8133Z" fill="#3791F4"/>
        <path d="M37.9625 0V17.3188L35.1976 17.418V0H37.9625ZM20.532 0V22.5406L17.764 21.4008V0H20.532ZM29.2469 7.57578V27.5391L27.714 28.957L26.4789 27.7141V7.57578H29.2469ZM11.8133 7.57578V21.6438L9.04919 20.9469V7.57578H11.8133Z" fill="#54A0FF"/>
        <path d="M39.0102 23.2375L38.8586 24.5078L37.9625 23.5797L36.2656 21.8234L32.4297 25.7305L29.2469 28.9773L28.0719 30.1758L26.0805 32.2031L24.0336 30.1758L23.7149 29.8609L20.5282 26.7109L16.7524 22.9703L14.2313 25.4875L13.6891 24.6516L16.7524 21.5922L20.5282 25.3328L23.7149 28.4828L24.0336 28.7977L26.0805 30.825L28.0719 28.7977L29.2469 27.5984L32.4297 24.3523L36.2656 20.4453L37.9625 22.2016L39.0102 23.2375Z" fill="#FF9F22"/>
        <path d="M39.8304 16.3383L38.8586 24.5078L36.2656 21.8234L35.6437 21.0781L32.4297 24.3523L29.2469 27.5984L28.0719 28.7977L26.0804 30.825L24.0336 28.7977L23.7148 28.4828L20.5281 25.3328L16.7523 21.5922L13.689 24.6516L12.7172 23.1461L16.7523 19.1149L20.5281 22.8547L23.7148 26.0055L26.0804 28.3477L29.2469 25.1211L32.4297 21.875L34.3101 19.9594L31.6609 17.3102L32.4297 17.2188L32.8922 17.1633L37.9625 16.5617L39.8304 16.3383Z" fill="#FFC14F"/>
        <path d="M14.7648 28.2523C14.7648 31.7492 12.3391 34.6773 9.07734 35.4422V35.4461C8.65547 35.5453 8.225 35.6055 7.78281 35.6297C7.775 35.6336 7.76328 35.6336 7.75078 35.6297C7.62734 35.6375 7.50781 35.6414 7.38438 35.6414C6.32891 35.6414 5.32109 35.418 4.41328 35.0164C1.81641 33.8734 0 31.2766 0 28.2531C0 24.1742 3.30625 20.8648 7.38438 20.8648C7.50781 20.8648 7.63125 20.8687 7.75078 20.8727C9.17266 20.9445 10.4914 21.4141 11.5906 22.1828C12.893 23.0867 13.893 24.4016 14.3984 25.9391C14.6375 26.6664 14.7648 27.4437 14.7648 28.2523Z" fill="#F7D33E"/>
        <path d="M14.7648 28.2523C14.7648 31.7492 12.339 34.6773 9.07732 35.4422V35.4461C8.65544 35.5453 8.22498 35.6055 7.78279 35.6297C7.77498 35.6336 7.76326 35.6336 7.75076 35.6297C6.83826 35.582 5.97419 35.3672 5.17732 35.0164C2.57654 33.8734 0.760132 31.2766 0.760132 28.2531C0.760132 24.3055 3.85935 21.0797 7.75076 20.8727C9.17263 20.9445 10.4914 21.4141 11.5906 22.1828C12.8929 23.0867 13.8929 24.4016 14.3984 25.9391C14.6375 26.6664 14.7648 27.4437 14.7648 28.2523Z" fill="#FFDE50"/>
        <path d="M13.1836 28.2523C13.1836 31.2914 10.8492 33.7891 7.87811 34.0359C7.71483 34.0516 7.55155 34.0602 7.38436 34.0602C6.87421 34.0602 6.38436 33.9922 5.91874 33.8727C3.42108 33.2234 1.58124 30.9531 1.58124 28.2523C1.58124 25.0461 4.17811 22.4453 7.38436 22.4453C7.55155 22.4453 7.71874 22.4531 7.88202 22.4695C10.8492 22.7195 13.1836 25.2133 13.1836 28.2523Z" fill="#F4AF03"/>
        <path d="M13.1836 28.2523C13.1836 31.2914 10.8492 33.7891 7.8781 34.0359C7.54373 34.0078 7.22107 33.9523 6.91013 33.8727C4.41248 33.2234 2.57263 30.9531 2.57263 28.2523C2.57263 25.2133 4.90701 22.7156 7.88201 22.4688C10.8492 22.7195 13.1836 25.2133 13.1836 28.2523Z" fill="#FFBD00"/>
        <path d="M7.38202 27.7359C6.92343 27.7359 6.55077 27.3625 6.55077 26.9039C6.55077 26.4453 6.92343 26.0719 7.38202 26.0719C7.84061 26.0719 8.21327 26.4453 8.21327 26.9039C8.21327 27.1773 8.43436 27.3984 8.7078 27.3984C8.98124 27.3984 9.20233 27.1773 9.20233 26.9039C9.20233 26.0734 8.64296 25.3719 7.88124 25.1547V24.7476C7.88124 24.4742 7.66014 24.2531 7.38671 24.2531C7.11327 24.2531 6.89218 24.4742 6.89218 24.7476V25.1523C6.12577 25.3672 5.56171 26.0703 5.56171 26.9047C5.56171 27.9086 6.37811 28.7258 7.38202 28.7258C7.84061 28.7258 8.21327 29.0992 8.21327 29.5578C8.21327 30.0164 7.84061 30.3898 7.38202 30.3898C6.92343 30.3898 6.55077 30.0164 6.55077 29.5578C6.55077 29.2844 6.32968 29.0633 6.05624 29.0633C5.7828 29.0633 5.56171 29.2844 5.56171 29.5578C5.56171 30.3922 6.12577 31.0953 6.89218 31.3101V31.7578C6.89218 32.0312 7.11327 32.2523 7.38671 32.2523C7.66014 32.2523 7.88124 32.0312 7.88124 31.7578V31.3078C8.64296 31.0898 9.20233 30.3891 9.20233 29.5586C9.20233 28.5523 8.38593 27.7359 7.38202 27.7359Z" fill="white"/>
    </symbol>

    <symbol id="offline-payment" viewBox="0 0 40 35" xmlns="http://www.w3.org/2000/svg">
        <path d="M39.8665 11.0684L21.4865 29.4485C21.401 29.5339 21.285 29.582 21.1641 29.582C21.0432 29.582 20.9272 29.5339 20.8417 29.4485L10.5516 19.1584C10.4661 19.0729 10.4181 18.9569 10.4181 18.836C10.4181 18.7151 10.4661 18.5991 10.5516 18.5136L28.9316 0.133527C29.0171 0.0480307 29.1331 0 29.254 0C29.3749 0 29.4909 0.0480307 29.5764 0.133527L39.8665 10.4236C39.9088 10.4659 39.9424 10.5162 39.9653 10.5715C39.9883 10.6268 40.0001 10.6861 40.0001 10.746C40.0001 10.8058 39.9883 10.8651 39.9654 10.9205C39.9425 10.9758 39.9089 11.026 39.8665 11.0684Z" fill="#5CC45C"/>
        <path d="M39.8665 10.4236L37.0947 7.65173L18.0698 26.6766L20.8417 29.4485C20.9272 29.534 21.0432 29.582 21.1641 29.582C21.285 29.582 21.401 29.534 21.4865 29.4485L39.8665 11.0684C39.952 10.9829 40.0001 10.8669 40.0001 10.746C40.0001 10.6251 39.952 10.5091 39.8665 10.4236Z" fill="#4EAD4E"/>
        <path d="M14.5013 20.0294C14.9024 19.2874 14.9024 18.3846 14.5013 17.6426C14.4475 17.543 14.4631 17.4204 14.5431 17.3403L27.7584 4.12508C27.8384 4.045 27.961 4.02946 28.0606 4.08336C28.8024 4.48438 29.7053 4.48438 30.4474 4.08328C30.547 4.02946 30.6696 4.045 30.7497 4.125L35.8749 9.25024C35.955 9.33031 35.9706 9.45289 35.9167 9.5525C35.5156 10.2945 35.5156 11.1973 35.9167 11.9393C35.9705 12.0389 35.9549 12.1615 35.8749 12.2416L22.6596 25.4569C22.5795 25.537 22.457 25.5525 22.3574 25.4987C21.6153 25.0977 20.7125 25.0977 19.9706 25.4987C19.871 25.5525 19.7484 25.537 19.6684 25.4569L14.5431 20.3316C14.4631 20.2516 14.4475 20.1289 14.5013 20.0294Z" fill="#A0E557"/>
        <path d="M35.9166 11.9393C35.5155 11.1973 35.5155 10.2946 35.9166 9.55252C35.9704 9.45291 35.9549 9.33034 35.8749 9.25026L32.9238 6.29916C32.3936 7.12252 32.3936 8.1901 32.9238 9.01346L19.4314 22.5058C18.608 21.9757 17.5404 21.9758 16.7172 22.5058L19.6683 25.4569C19.7483 25.537 19.8709 25.5524 19.9705 25.4986C20.7124 25.0977 21.6152 25.0976 22.3572 25.4987C22.4569 25.5525 22.5794 25.537 22.6595 25.4569L35.8748 12.2416C35.9549 12.1616 35.9704 12.0389 35.9166 11.9393Z" fill="#93CC4A"/>
        <path d="M27.8596 17.4413C29.3235 15.9774 29.3234 13.604 27.8595 12.1402C26.3957 10.6763 24.0223 10.6764 22.5585 12.1403C21.0946 13.6042 21.0947 15.9775 22.5586 17.4414C24.0224 18.9052 26.3958 18.9052 27.8596 17.4413Z" fill="#F3E8D7"/>
        <path d="M20.764 23.692L26.4193 18.0366C27.0711 17.3849 27.3482 16.6054 26.6965 15.9537C25.6693 14.6781 21.9197 15.701 20.141 17.4797C19.347 18.2736 18.5532 19.0676 17.7595 19.8617C17.4954 20.1259 17.1374 20.2744 16.7592 20.2744H16.7397C16.1158 20.2744 15.3849 19.6702 15.224 19.0673L15.2236 13.8415L16.1568 12.9083L17.1821 11.883L21.2543 7.81079C19.579 7.62306 17.913 7.52149 17.2668 7.44407C16.5483 7.35798 15.9355 7.67993 15.3779 8.14118L10.1647 12.254C9.42915 12.8627 8.89847 13.6829 8.64459 14.6033C8.07544 16.6649 6.87662 20.3115 6.11576 21.7616L2.31482 25.5626L8.89529 32.1431L10.7254 30.3129C11.0694 29.9689 11.4947 29.7175 11.9619 29.582L15.7842 28.295C16.9849 27.883 18.042 27.1346 18.8294 26.1388L20.764 23.692Z" fill="#FCD7C3"/>
        <path d="M18.8294 26.1388L20.764 23.6921L26.4194 18.0367C27.0712 17.385 27.3483 16.6055 26.6965 15.9537C26.319 15.4848 25.5735 15.3266 24.6933 15.4023C23.404 15.5132 22.2026 16.1026 21.2876 17.0176L17.6886 20.6166L15.754 23.0634C14.9666 24.0591 13.9096 24.8076 12.7088 25.2195L8.88654 26.5066C8.41933 26.642 7.99396 26.8934 7.64998 27.2374L5.81982 29.0676L8.89529 32.143L10.7254 30.3129C11.0694 29.9689 11.4947 29.7175 11.9619 29.582L15.7842 28.295C16.985 27.883 18.042 27.1346 18.8294 26.1388Z" fill="#FFCDAC"/>
        <path d="M7.82797 34.2487L0.211721 26.6324C0.144598 26.5653 0.0913525 26.4856 0.055025 26.3979C0.0186976 26.3102 0 26.2162 0 26.1213C0 26.0264 0.0186976 25.9324 0.055025 25.8447C0.0913525 25.757 0.144598 25.6774 0.211721 25.6103L1.55203 24.2699C1.61914 24.2028 1.69881 24.1496 1.7865 24.1133C1.87419 24.0769 1.96817 24.0582 2.06309 24.0582C2.158 24.0582 2.25199 24.0769 2.33968 24.1133C2.42736 24.1496 2.50704 24.2028 2.57414 24.2699L10.1905 31.8863C10.2576 31.9534 10.3108 32.0331 10.3472 32.1207C10.3835 32.2084 10.4022 32.3024 10.4022 32.3973C10.4022 32.4922 10.3835 32.5862 10.3472 32.6739C10.3108 32.7616 10.2576 32.8413 10.1905 32.9084L8.85016 34.2486C8.78305 34.3157 8.70337 34.369 8.61568 34.4053C8.52799 34.4417 8.434 34.4604 8.33908 34.4604C8.24416 34.4604 8.15017 34.4417 8.06247 34.4054C7.97477 34.3691 7.89509 34.3158 7.82797 34.2487Z" fill="#464C50"/>
        <path d="M10.1904 31.8863L7.60717 29.3031L5.24475 31.6655L7.82795 34.2487C7.89506 34.3158 7.97473 34.3691 8.06242 34.4054C8.15011 34.4417 8.24409 34.4604 8.33901 34.4604C8.43392 34.4604 8.52791 34.4417 8.6156 34.4054C8.70328 34.3691 8.78296 34.3158 8.85006 34.2487L10.1903 32.9085C10.2574 32.8414 10.3107 32.7617 10.347 32.674C10.3834 32.5863 10.4021 32.4923 10.4021 32.3974C10.4021 32.3025 10.3834 32.2085 10.3471 32.1208C10.3107 32.0331 10.2575 31.9534 10.1904 31.8863Z" fill="#33393A"/>
        <path d="M26.1959 17.8605C25.4453 17.11 24.2284 17.11 23.4778 17.8605L22.6239 18.7145C22.2375 19.1009 22.2375 19.7273 22.6239 20.1137L23.4831 20.9729L26.3956 18.0604L26.1959 17.8605Z" fill="#EFEFEF"/>
    </symbol>

    <symbol id="online-payment" viewBox="0 0 37 40" xmlns="http://www.w3.org/2000/svg">
        <path d="M20.4427 40H3.2193C1.44133 40 0 38.5587 0 36.7807V3.2193C0 1.44133 1.44133 0 3.2193 0H20.4427C22.2206 0 23.662 1.44133 23.662 3.2193V36.7807C23.662 38.5587 22.2206 40 20.4427 40Z" fill="#7B727B"/>
        <path d="M20.4427 0H18.0282C19.8062 0 21.2475 1.44133 21.2475 3.2193V36.7807C21.2475 38.5587 19.8062 40 18.0282 40H20.4427C22.2206 40 23.6619 38.5587 23.6619 36.7807V3.2193C23.6619 1.44133 22.2206 0 20.4427 0Z" fill="#686169"/>
        <path d="M21.5695 3.2193V36.7807C21.5695 37.403 21.065 37.9075 20.4427 37.9075H3.21933C2.59706 37.9075 2.09253 37.403 2.09253 36.7807V3.2193C2.09253 2.59703 2.59698 2.0925 3.21933 2.0925H6.44698C6.5385 2.09249 6.62775 2.12106 6.70225 2.17421C6.77676 2.22736 6.83282 2.30244 6.86261 2.38898L7.28792 3.62461C7.31771 3.71115 7.37376 3.78623 7.44827 3.83938C7.52278 3.89253 7.61202 3.9211 7.70354 3.92109H15.9585C16.0501 3.9211 16.1393 3.89253 16.2138 3.83938C16.2883 3.78623 16.3444 3.71115 16.3742 3.62461L16.7995 2.38898C16.8293 2.30244 16.8853 2.22736 16.9598 2.17421C17.0343 2.12106 17.1236 2.09249 17.2151 2.0925H20.4428C21.065 2.09258 21.5695 2.59703 21.5695 3.2193Z" fill="#D6FAEC"/>
        <path d="M20.4427 2.09259H18.0282C18.6505 2.09259 19.155 2.59704 19.155 3.21939V36.7808C19.155 37.4031 18.6505 37.9076 18.0282 37.9076H20.4427C21.0649 37.9076 21.5694 37.4031 21.5694 36.7808V3.21931C21.5694 2.59704 21.0649 2.09259 20.4427 2.09259Z" fill="#CCFAE8"/>
        <path d="M14.9698 32.7163H8.69215C7.75872 32.7163 7.002 31.9596 7.002 31.0262C7.002 30.0927 7.75872 29.336 8.69215 29.336H14.9698C15.9032 29.336 16.66 30.0927 16.66 31.0262C16.66 31.9596 15.9032 32.7163 14.9698 32.7163ZM34.7983 25.7143H7.0527C6.18012 25.7143 5.47278 25.0069 5.47278 24.1344V7.97827C5.47278 7.10569 6.18012 6.39835 7.0527 6.39835H34.7982C35.6708 6.39835 36.3782 7.10569 36.3782 7.97827V24.1344C36.3782 25.0069 35.6709 25.7143 34.7983 25.7143Z" fill="#2FD9E7"/>
        <path d="M34.7984 6.39835H32.3839C33.2565 6.39835 33.9638 7.10569 33.9638 7.97827V24.1344C33.9638 25.0069 33.2565 25.7143 32.3839 25.7143H34.7984C35.6709 25.7143 36.3783 25.0069 36.3783 24.1344V7.97827C36.3783 7.10577 35.6709 6.39835 34.7984 6.39835Z" fill="#00D0E4"/>
        <path d="M28.2338 18.1608C28.1841 18.0299 28.0956 17.9173 27.9803 17.8379C27.8649 17.7585 27.7281 17.7162 27.5881 17.7165H27.5878C27.4505 17.7162 27.3164 17.7569 27.2024 17.8334C27.0885 17.9099 26.9999 18.0186 26.9482 18.1457C26.9464 18.1502 26.9445 18.1548 26.9428 18.1594L25.1948 22.749C25.1672 22.8209 25.154 22.8976 25.1561 22.9747C25.1582 23.0517 25.1755 23.1276 25.2069 23.1979C25.2384 23.2683 25.2834 23.3318 25.3394 23.3847C25.3954 23.4377 25.4613 23.479 25.5333 23.5064C25.6054 23.5339 25.6821 23.5468 25.7591 23.5446C25.8362 23.5423 25.912 23.5248 25.9823 23.4932C26.0526 23.4616 26.1159 23.4164 26.1687 23.3603C26.2215 23.3041 26.2627 23.2381 26.29 23.166L26.5815 22.4004H28.5811L28.8695 23.1644C28.8967 23.2364 28.9377 23.3023 28.9904 23.3584C29.043 23.4145 29.1062 23.4597 29.1763 23.4914C29.2465 23.5231 29.3221 23.5406 29.399 23.5431C29.4759 23.5455 29.5526 23.5328 29.6246 23.5056C29.6966 23.4784 29.7625 23.4374 29.8186 23.3847C29.8747 23.3321 29.9199 23.2689 29.9516 23.1988C29.9833 23.1286 30.0008 23.053 30.0033 22.9761C30.0057 22.8992 29.993 22.8225 29.9658 22.7505L28.2338 18.1608ZM27.0279 21.2285L27.586 19.7632L28.139 21.2285H27.0279ZM33.438 17.8231C33.3078 17.7383 33.1492 17.7088 32.9972 17.7409C32.8451 17.773 32.7121 17.8642 32.6273 17.9944L31.6428 19.5067L30.6472 17.9819C30.6052 17.9175 30.5508 17.862 30.4873 17.8186C30.4238 17.7751 30.3523 17.7447 30.277 17.7288C30.1249 17.6969 29.9664 17.7267 29.8362 17.8117C29.7061 17.8966 29.6151 18.0298 29.5831 18.1819C29.5512 18.334 29.581 18.4925 29.666 18.6226L31.0572 20.7532L31.0518 22.9559C31.0516 23.0329 31.0665 23.1091 31.0958 23.1803C31.125 23.2514 31.168 23.3161 31.2223 23.3707C31.2766 23.4252 31.3411 23.4686 31.4121 23.4982C31.4831 23.5278 31.5593 23.5432 31.6362 23.5433H31.6377C31.7928 23.5433 31.9416 23.4818 32.0515 23.3723C32.1613 23.2627 32.2232 23.114 32.2236 22.9589L32.2291 20.7541L33.6093 18.6338C33.6941 18.5036 33.7237 18.345 33.6916 18.193C33.6594 18.0409 33.5682 17.9079 33.438 17.8231ZM23.6641 17.7165H22.3679C22.2908 17.7165 22.2145 17.7317 22.1433 17.7613C22.072 17.7908 22.0074 17.8341 21.9529 17.8888C21.8985 17.9434 21.8554 18.0082 21.826 18.0795C21.7967 18.1508 21.7817 18.2272 21.782 18.3043V22.9575C21.782 23.2812 22.0443 23.5434 22.3679 23.5434C22.6916 23.5434 22.9539 23.2812 22.9539 22.9575V21.5183C23.2135 21.5169 23.4989 21.5157 23.6641 21.5157C24.7257 21.5157 25.5895 20.6635 25.5895 19.6161C25.5895 18.5687 24.7257 17.7165 23.6641 17.7165ZM23.6641 20.3437C23.5 20.3437 23.2182 20.345 22.9597 20.3462C22.9583 20.0787 22.9571 19.7847 22.9571 19.6159C22.9571 19.4729 22.9564 19.1683 22.9556 18.8883H23.664C24.0725 18.8883 24.4175 19.2215 24.4175 19.6159C24.4176 20.0105 24.0725 20.3437 23.6641 20.3437Z" fill="#F8F7F7"/>
        <path d="M14.5674 13.7223H9.5775C9.51408 13.7223 9.45128 13.7099 9.39269 13.6856C9.3341 13.6613 9.28086 13.6258 9.23602 13.5809C9.19118 13.5361 9.15561 13.4828 9.13134 13.4243C9.10708 13.3657 9.09459 13.3029 9.0946 13.2394V10.0202C9.09459 9.95673 9.10708 9.89394 9.13134 9.83535C9.15561 9.77675 9.19118 9.72352 9.23602 9.67867C9.28086 9.63383 9.3341 9.59826 9.39269 9.574C9.45128 9.54973 9.51408 9.53725 9.5775 9.53726H14.5674C14.6308 9.53725 14.6936 9.54973 14.7522 9.574C14.8108 9.59826 14.8641 9.63383 14.9089 9.67867C14.9537 9.72352 14.9893 9.77675 15.0136 9.83535C15.0378 9.89394 15.0503 9.95673 15.0503 10.0202V13.2394C15.0503 13.3029 15.0378 13.3657 15.0136 13.4243C14.9893 13.4828 14.9537 13.5361 14.9089 13.5809C14.8641 13.6258 14.8108 13.6613 14.7522 13.6856C14.6936 13.7099 14.6308 13.7223 14.5674 13.7223Z" fill="#FFE589"/>
        <path d="M12.5553 22.7224H5.47278V18.5374H12.5553C13.711 18.5374 14.6479 19.4742 14.6479 20.6299C14.6479 21.7856 13.711 22.7224 12.5553 22.7224Z" fill="#FF6167"/>
        <path d="M20.2338 10.4055C20.1568 10.4055 20.0806 10.4207 20.0095 10.4501C19.9384 10.4796 19.8738 10.5227 19.8194 10.5771C19.765 10.6316 19.7219 10.6962 19.6924 10.7672C19.663 10.8383 19.6478 10.9145 19.6478 10.9915V11.9573C19.6478 12.2809 19.9101 12.5432 20.2338 12.5432C20.5574 12.5432 20.8197 12.2809 20.8197 11.9573V10.9915C20.8197 10.8361 20.758 10.687 20.6481 10.5772C20.5382 10.4673 20.3892 10.4055 20.2338 10.4055ZM30.1896 10.4055C30.1127 10.4055 30.0365 10.4207 29.9654 10.4501C29.8943 10.4796 29.8297 10.5227 29.7753 10.5771C29.7209 10.6316 29.6777 10.6962 29.6483 10.7672C29.6188 10.8383 29.6037 10.9145 29.6037 10.9915V11.9573C29.6037 12.2809 29.866 12.5432 30.1896 12.5432C30.5133 12.5432 30.7756 12.2809 30.7756 11.9573V10.9915C30.7756 10.8361 30.7138 10.687 30.6039 10.5772C30.4941 10.4673 30.345 10.4055 30.1896 10.4055ZM32.3413 10.4055C32.2644 10.4055 32.1882 10.4207 32.1171 10.4501C32.046 10.4796 31.9814 10.5227 31.927 10.5771C31.8726 10.6316 31.8294 10.6962 31.8 10.7672C31.7705 10.8383 31.7554 10.9145 31.7554 10.9915V11.9573C31.7554 12.2809 32.0177 12.5432 32.3413 12.5432C32.665 12.5432 32.9273 12.2809 32.9273 11.9573V10.9915C32.9273 10.8361 32.8655 10.687 32.7557 10.5772C32.6458 10.4673 32.4967 10.4055 32.3413 10.4055ZM23.358 10.4055C23.281 10.4055 23.2048 10.4207 23.1337 10.4501C23.0626 10.4796 22.9981 10.5227 22.9436 10.5771C22.8892 10.6316 22.8461 10.6962 22.8166 10.7672C22.7872 10.8383 22.772 10.9145 22.772 10.9915V11.9573C22.772 12.2809 23.0343 12.5432 23.358 12.5432C23.6817 12.5432 23.9439 12.2809 23.9439 11.9573V10.9915C23.9439 10.8361 23.8822 10.687 23.7723 10.5772C23.6624 10.4673 23.5134 10.4055 23.358 10.4055ZM25.6386 10.4055C25.5617 10.4055 25.4855 10.4207 25.4144 10.4501C25.3433 10.4796 25.2787 10.5227 25.2243 10.5771C25.1699 10.6316 25.1267 10.6962 25.0973 10.7672C25.0678 10.8383 25.0527 10.9145 25.0527 10.9915V11.9573C25.0527 12.2809 25.3149 12.5432 25.6386 12.5432C25.9623 12.5432 26.2245 12.2809 26.2245 11.9573V10.9915C26.2245 10.8361 26.1628 10.687 26.0529 10.5772C25.943 10.4673 25.794 10.4055 25.6386 10.4055Z" fill="#F8F7F7"/>
    </symbol>

    <symbol id="withdraw-request" viewBox="0 0 35 37" xmlns="http://www.w3.org/2000/svg">
        <path d="M28.125 0.625C28.6223 0.625 29.0992 0.822544 29.4508 1.17417C29.8025 1.52581 30 2.00272 30 2.5C30 2.99728 29.8025 3.47419 29.4508 3.82583C29.0992 4.17746 28.6223 4.375 28.125 4.375H8.125C7.62772 4.375 7.15081 4.17746 6.79917 3.82583C6.44754 3.47419 6.25 2.99728 6.25 2.5C6.25 2.00272 6.44754 1.52581 6.79917 1.17417C7.15081 0.822544 7.62772 0.625 8.125 0.625H28.125Z" fill="#898890"/>
        <path d="M15.625 21.875H10V16.25C11.4918 16.25 12.9226 16.8426 13.9775 17.8975C15.0324 18.9524 15.625 20.3832 15.625 21.875ZM26.25 16.25V21.875H20.625C20.625 20.3832 21.2176 18.9524 22.2725 17.8975C23.3274 16.8426 24.7582 16.25 26.25 16.25Z" fill="#93CC4A"/>
        <path d="M26.25 0.625V16.25C24.7582 16.25 23.3274 16.8426 22.2725 17.8975C21.2176 18.9524 20.625 20.3832 20.625 21.875H15.625C15.625 20.3832 15.0324 18.9524 13.9775 17.8975C12.9226 16.8426 11.4918 16.25 10 16.25V0.625H26.25Z" fill="#5CC45C"/>
        <path d="M16.875 31.875V36.875H5.625V31.875H15.625H16.875Z" fill="#3D9AE2"/>
        <path d="M12.5001 21.875V16.875C12.5001 16.3777 12.6976 15.9008 13.0492 15.5492C13.4009 15.1975 13.8778 15 14.3751 15C14.8723 15 15.3492 15.1975 15.7009 15.5492C16.0525 15.9008 16.2501 16.3777 16.2501 16.875V21.25L16.5001 21.875L17.0501 23.2562C17.3491 23.9948 17.5019 24.7844 17.5001 25.5812V26.3937C17.5005 27.528 17.1915 28.6409 16.6063 29.6125L15.6251 31.25V31.875H6.87505V29.375L5.98755 21.3875C5.75107 19.2674 6.2001 17.1274 7.2688 15.2812L10.0001 10.55V21.875H12.5001Z" fill="#FFC477"/>
        <path d="M6.25 11.875L3.125 15.625L0 11.875H1.875V0H4.375V11.875H6.25ZM35 20.625L31.875 24.375L28.75 20.625H30.625V8.75H33.125V20.625H35Z" fill="#FFA733"/>
        <path d="M18.125 10.625C20.1961 10.625 21.875 8.94607 21.875 6.875C21.875 4.80393 20.1961 3.125 18.125 3.125C16.0539 3.125 14.375 4.80393 14.375 6.875C14.375 8.94607 16.0539 10.625 18.125 10.625Z" fill="#A0E557"/>
        <path d="M10 0.625H26.25V1.875H10V0.625Z" fill="#93CC4A"/>
        <path d="M12.5 22.5C12.5 22.1548 12.2202 21.875 11.875 21.875C11.5298 21.875 11.25 22.1548 11.25 22.5V23.125C11.25 23.4702 11.5298 23.75 11.875 23.75C12.2202 23.75 12.5 23.4702 12.5 23.125V22.5Z" fill="#FFB655"/>
    </symbol>

    <symbol id="fleet-manager" viewBox="0 0 34 40" xmlns="http://www.w3.org/2000/svg">
        <path d="M23.5359 37.8262V23.6581L21.2378 22.5815L20.6141 19.2687H12.4859L11.8622 22.5815L9.63812 23.6234V37.8262H23.5359Z" fill="#E2B48A"/>
        <path d="M33.1 39.375L32.5062 31.7856C32.4096 30.5486 31.9868 29.3594 31.2808 28.3391C30.5748 27.3188 29.611 26.5039 28.4875 25.9775L22.1094 22.9893V24.835H21.3825V25.8037H10.6828V23.134L4.6125 25.9775C3.48883 26.5038 2.5248 27.3186 1.81866 28.3389C1.11253 29.3593 0.689541 30.5485 0.592813 31.7856L0 39.375H33.1Z" fill="#BAC2D3"/>
        <path d="M17.4991 25.825H14.4441L13.8622 27.1815L15.6156 29.4131L14.5962 34.3062L16.5484 38.5359L18.7356 33.9865L17.8194 29.3218L19.2078 27.039L17.4991 25.825Z" fill="#DA2A47"/>
        <path d="M32.5066 31.7856C32.4099 30.5486 31.987 29.3594 31.281 28.3391C30.575 27.3188 29.6111 26.5039 28.4875 25.9775L22.675 23.2537C22.2009 25.9531 21.0753 28.4268 19.8522 30.8631C19.2863 31.9857 18.7531 33.1244 18.2531 34.2778C17.9741 34.92 16.55 38.6722 16.55 38.6722C16.55 38.6722 14.2412 32.9253 13.8209 31.8359C13.2512 30.3584 12.8128 28.8209 12.0578 27.4231C11.9277 27.1836 11.7923 26.9471 11.6516 26.7137C10.3672 26.2093 9.70687 25.12 9.73125 23.579L4.6125 25.9775C3.48883 26.5038 2.5248 27.3186 1.81866 28.3389C1.11253 29.3593 0.689541 30.5485 0.592813 31.7856L0 39.375H33.1L32.5066 31.7856Z" fill="#707583"/>
        <path d="M32.5066 31.7856C32.4099 30.5486 31.987 29.3594 31.281 28.3391C30.575 27.3188 29.6111 26.5039 28.4875 25.9775L22.675 23.2537C22.2009 25.9531 21.0753 28.4268 19.8522 30.8631C19.2863 31.9857 18.7531 33.1244 18.2531 34.2778C17.9741 34.92 16.55 38.6722 16.55 38.6722C16.55 38.6722 14.2412 32.9253 13.8209 31.8359C13.2512 30.3584 12.8128 28.8209 12.0578 27.4231C11.9277 27.1836 11.7923 26.9471 11.6516 26.7137C10.3672 26.2093 9.70687 25.12 9.73125 23.579L4.6125 25.9775C3.48883 26.5038 2.5248 27.3186 1.81866 28.3389C1.11253 29.3593 0.689541 30.5485 0.592813 31.7856L0 39.375H33.1L32.5066 31.7856Z" fill="#384868"/>
        <path d="M33.1 39.375H28.6188L28.025 31.7843C27.9274 30.5475 27.5038 29.3586 26.7973 28.3387C26.0908 27.3188 25.1267 26.5043 24.0031 25.9781L22.2313 25.1468C22.4119 24.5239 22.559 23.8918 22.6719 23.2531L28.4875 25.9781C29.6107 26.5044 30.5743 27.3191 31.2803 28.339C31.9862 29.3589 32.4092 30.5477 32.5063 31.7843L33.1 39.375Z" fill="#2F3A5A"/>
        <path d="M25.3996 14.9848C25.7311 13.5681 25.3573 12.2693 24.5646 12.0838C23.7719 11.8983 22.8605 12.8964 22.5291 14.3131C22.1976 15.7297 22.5714 17.0285 23.3641 17.214C24.1568 17.3995 25.0681 16.4014 25.3996 14.9848Z" fill="#E2B48A"/>
        <path d="M9.67502 17.2253C10.4677 17.0397 10.8413 15.7409 10.5096 14.3243C10.1778 12.9077 9.26634 11.9098 8.47369 12.0954C7.68103 12.281 7.30738 13.5799 7.63912 14.9965C7.97086 16.4131 8.88236 17.411 9.67502 17.2253Z" fill="#E2B48A"/>
        <path d="M16.5197 22.1065C20.6323 22.1065 23.9662 17.5114 23.9662 11.8431C23.9662 6.17475 20.6323 1.57965 16.5197 1.57965C12.4071 1.57965 9.07312 6.17475 9.07312 11.8431C9.07312 17.5114 12.4071 22.1065 16.5197 22.1065Z" fill="#F0C191"/>
        <path d="M23.4991 15.3837C23.4991 15.3837 26.1287 10.6853 25.5591 6.95903C24.9894 3.23278 22.4791 2.05653 20.9875 2.05653C20.9875 2.05653 18.9744 -0.924411 13.9997 0.291527C9.02499 1.50746 7.02468 6.97028 7.96593 10.4165C8.90718 13.8628 9.53468 15.4459 9.53468 15.4459C9.53468 15.4459 8.90718 11.0397 9.61311 8.60684C10.3191 6.17403 12.4372 4.25309 13.2609 4.91934C14.0847 5.58559 19.3403 5.36465 20.2031 3.88809C21.3366 4.71871 22.0953 5.96421 22.3134 7.35246C22.5947 9.58809 23.8506 10.9609 23.7331 12.5687C23.6156 14.1765 23.4991 15.3837 23.4991 15.3837Z" fill="#2F3A5A"/>
        <path d="M21.0234 21.4322L16.55 25.8034L20.5431 28.5475L22.4119 23.1253L21.0234 21.4322ZM10.6881 23.1253L12.7125 28.4209L16.55 25.8034L12.0765 21.4322L10.6881 23.1253Z" fill="#D9E2E9"/>
        <path d="M23.5762 23.6768L21.0234 21.4322L21.0181 21.4268C21.0181 21.4268 20.9716 28.1331 16.5494 38.5359C12.1262 28.1331 12.0806 21.4268 12.0806 21.4268L12.0753 21.4322L9.52281 23.6768L9.07312 27.4715L11.1897 27.1331L9.6025 29.5393C10.5228 31.7812 16.55 38.7812 16.55 38.7812C17.4984 37.734 22.7194 31.6897 23.5322 29.7084L21.9087 27.1331L24.2778 27.2006L23.5762 23.6768Z" fill="#43567C"/>
    </symbol>

    <symbol id="fleet-vehicles" viewBox="0 0 39 22" xmlns="http://www.w3.org/2000/svg">
        <path d="M5.52938 7.82375L6.40438 6.29812C7.4974 4.38539 9.07651 2.79549 10.9818 1.68948C12.887 0.583471 15.0507 0.000631922 17.2537 0H18.9963C21.1998 8.11376e-05 23.3642 0.58266 25.27 1.6887C27.1759 2.79474 28.7555 4.38493 29.8487 6.29812L30.6612 7.71937C30.8452 8.04137 31.0986 8.3184 31.4029 8.53038C31.7072 8.74237 32.0548 8.88399 32.4206 8.945L34.5719 9.30375C35.7394 9.4983 36.8 10.1007 37.565 11.0038C38.3301 11.9069 38.75 13.052 38.75 14.2356V16.25C38.75 16.913 38.4866 17.5489 38.0178 18.0178C37.5489 18.4866 36.913 18.75 36.25 18.75H2.5C1.83696 18.75 1.20107 18.4866 0.732233 18.0178C0.263392 17.5489 0 16.913 0 16.25V11.9519C8.44086e-05 11.3944 0.186504 10.8529 0.529631 10.4135C0.872758 9.97415 1.3529 9.66207 1.89375 9.52687L3.965 9.00875C4.29221 8.92697 4.59948 8.77982 4.86833 8.57617C5.13718 8.37252 5.36204 8.11658 5.52938 7.82375Z" fill="#D7554B"/>
        <path d="M38.125 16.875H8.67313C6.87015 16.875 5.14102 16.1588 3.86612 14.8839C2.59123 13.609 1.875 11.8798 1.875 10.0769C1.87757 9.88722 1.90189 9.69848 1.9475 9.51437L1.89375 9.5275C1.35311 9.66264 0.87312 9.97454 0.530016 10.4137C0.186911 10.8528 0.000363041 11.394 0 11.9513V16.25C0 16.913 0.263392 17.5489 0.732233 18.0178C1.20107 18.4866 1.83696 18.75 2.5 18.75H36.25C36.8154 18.749 37.3637 18.5563 37.8055 18.2035C38.2473 17.8508 38.5564 17.3586 38.6825 16.8075C38.4998 16.851 38.3128 16.8736 38.125 16.875Z" fill="#FC776D"/>
        <path d="M0 11.95V13.75H1.875L2.5 11.25H0.1C0.0348836 11.4777 0.001238 11.7132 0 11.95Z" fill="#A7D0E1"/>
        <path d="M2.24437 12.2725C2.13053 11.9391 2.04318 11.5972 1.98312 11.25H0.108125C0.0905121 11.3088 0.0750848 11.3682 0.061875 11.4281C0.051875 11.4731 0.04 11.5181 0.0325 11.5637C0.0118796 11.6919 0.00101503 11.8214 0 11.9513V13.75H1.875L2.24437 12.2725Z" fill="#80BBCE"/>
        <path d="M35 11.25C34.9996 11.5784 35.064 11.9037 35.1895 12.2072C35.315 12.5107 35.4991 12.7865 35.7313 13.0187C35.9635 13.2509 36.2393 13.435 36.5428 13.5605C36.8463 13.686 37.1716 13.7504 37.5 13.75H38.725C38.6403 12.8419 38.3025 11.9757 37.75 11.25H35Z" fill="#A7D0E1"/>
        <path d="M32.5001 18.125C32.5031 17.6043 32.3976 17.0886 32.1904 16.6109C31.9831 16.1332 31.6787 15.7039 31.2964 15.3503C30.9141 14.9967 30.4624 14.7266 29.97 14.5572C29.4776 14.3878 28.9553 14.3229 28.4364 14.3664C27.9175 14.41 27.4133 14.5612 26.956 14.8103C26.4988 15.0594 26.0984 15.401 25.7804 15.8134C25.4625 16.2258 25.2339 16.6999 25.1092 17.2055C24.9845 17.7111 24.9665 18.2371 25.0563 18.75H32.4438C32.48 18.5436 32.4988 18.3345 32.5001 18.125Z" fill="#FC776D"/>
        <path d="M30 21.25C32.0711 21.25 33.75 19.5711 33.75 17.5C33.75 15.4289 32.0711 13.75 30 13.75C27.9289 13.75 26.25 15.4289 26.25 17.5C26.25 19.5711 27.9289 21.25 30 21.25Z" fill="#7A838B"/>
        <path d="M30 18.75C30.6904 18.75 31.25 18.1904 31.25 17.5C31.25 16.8096 30.6904 16.25 30 16.25C29.3096 16.25 28.75 16.8096 28.75 17.5C28.75 18.1904 29.3096 18.75 30 18.75Z" fill="#A7D0E1"/>
        <path d="M8.75 21.25C10.8211 21.25 12.5 19.5711 12.5 17.5C12.5 15.4289 10.8211 13.75 8.75 13.75C6.67893 13.75 5 15.4289 5 17.5C5 19.5711 6.67893 21.25 8.75 21.25Z" fill="#7A838B"/>
        <path d="M10.6251 19.375C9.99836 19.3757 9.3815 19.2192 8.83097 18.9198C8.28044 18.6203 7.81384 18.1875 7.47392 17.661C7.13399 17.1345 6.9316 16.5312 6.88528 15.9062C6.83897 15.2812 6.95021 14.6546 7.20881 14.0837C6.65485 14.3326 6.16963 14.7124 5.79487 15.1902C5.42011 15.6681 5.16702 16.2299 5.05736 16.8272C4.94771 17.4245 4.98477 18.0396 5.16535 18.6194C5.34594 19.1992 5.66465 19.7265 6.09408 20.156C6.52351 20.5854 7.05081 20.9041 7.63065 21.0847C8.21049 21.2653 8.82551 21.3023 9.42283 21.1927C10.0202 21.083 10.5819 20.8299 11.0598 20.4552C11.5377 20.0804 11.9174 19.5952 12.1663 19.0412C11.6822 19.261 11.1567 19.3747 10.6251 19.375ZM31.8751 19.375C31.2484 19.3757 30.6315 19.2192 30.081 18.9198C29.5304 18.6203 29.0638 18.1875 28.7239 17.661C28.384 17.1345 28.1816 16.5312 28.1353 15.9062C28.089 15.2812 28.2002 14.6546 28.4588 14.0837C27.9049 14.3326 27.4196 14.7124 27.0449 15.1902C26.6701 15.6681 26.417 16.2299 26.3074 16.8272C26.1977 17.4245 26.2348 18.0396 26.4153 18.6194C26.5959 19.1992 26.9146 19.7265 27.3441 20.156C27.7735 20.5854 28.3008 20.9041 28.8806 21.0847C29.4605 21.2653 30.0755 21.3023 30.6728 21.1927C31.2702 21.083 31.8319 20.8299 32.3098 20.4552C32.7877 20.0804 33.1674 19.5952 33.4163 19.0412C32.9322 19.261 32.4067 19.3747 31.8751 19.375Z" fill="#5D6972"/>
        <path d="M8.75 18.75C9.44036 18.75 10 18.1904 10 17.5C10 16.8096 9.44036 16.25 8.75 16.25C8.05964 16.25 7.5 16.8096 7.5 17.5C7.5 18.1904 8.05964 18.75 8.75 18.75Z" fill="#A7D0E1"/>
        <path d="M16.55 1.875H16.875V8.125H8.125L8.425 7.375C9.07515 5.75164 10.1965 4.36017 11.6447 3.3799C13.0928 2.39963 14.8013 1.87548 16.55 1.875Z" fill="#A7D0E1"/>
        <path d="M10.625 6.25001L10.925 5.50001C11.3245 4.5048 11.9035 3.5915 12.6331 2.80563C10.719 3.76311 9.22195 5.38866 8.425 7.37501L8.125 8.12501H16.875V6.25001H10.625Z" fill="#80BBCE"/>
        <path d="M28.125 8.125H19.375V1.875H19.7C21.4487 1.87548 23.1572 2.39963 24.6053 3.3799C26.0535 4.36017 27.1749 5.75164 27.825 7.375L28.125 8.125Z" fill="#A7D0E1"/>
        <path d="M23.75 4.92999C23.6307 4.93017 23.514 4.89587 23.4138 4.83124C23.2263 4.71312 23.0388 4.60249 22.8406 4.50249C22.693 4.42707 22.5814 4.2961 22.5304 4.13839C22.4793 3.98069 22.493 3.80916 22.5684 3.66155C22.6439 3.51394 22.7748 3.40234 22.9325 3.3513C23.0902 3.30025 23.2618 3.31395 23.4094 3.38937C23.6419 3.50812 23.8677 3.6377 24.0869 3.77812C24.2009 3.85088 24.2883 3.95868 24.3358 4.08531C24.3834 4.21195 24.3885 4.3506 24.3506 4.48043C24.3126 4.61026 24.2335 4.72427 24.1252 4.80533C24.0169 4.8864 23.8853 4.93014 23.75 4.92999Z" fill="white"/>
        <path d="M27.275 6.25H23.75C23.087 6.25 22.4511 5.98661 21.9822 5.51777C21.5134 5.04893 21.25 4.41304 21.25 3.75V2.01875C20.7386 1.92474 20.2199 1.87664 19.7 1.875H19.375V8.125H28.125L27.825 7.375C27.6686 6.98742 27.4848 6.61146 27.275 6.25Z" fill="#80BBCE"/>
        <path d="M20.625 9.375H19.375C19.2092 9.375 19.0503 9.44085 18.9331 9.55806C18.8158 9.67527 18.75 9.83424 18.75 10C18.75 10.1658 18.8158 10.3247 18.9331 10.4419C19.0503 10.5592 19.2092 10.625 19.375 10.625H20.625C20.7908 10.625 20.9497 10.5592 21.0669 10.4419C21.1842 10.3247 21.25 10.1658 21.25 10C21.25 9.83424 21.1842 9.67527 21.0669 9.55806C20.9497 9.44085 20.7908 9.375 20.625 9.375ZM8.75 9.375H7.5C7.33424 9.375 7.17527 9.44085 7.05806 9.55806C6.94085 9.67527 6.875 9.83424 6.875 10C6.875 10.1658 6.94085 10.3247 7.05806 10.4419C7.17527 10.5592 7.33424 10.625 7.5 10.625H8.75C8.91576 10.625 9.07473 10.5592 9.19194 10.4419C9.30915 10.3247 9.375 10.1658 9.375 10C9.375 9.83424 9.30915 9.67527 9.19194 9.55806C9.07473 9.44085 8.91576 9.375 8.75 9.375Z" fill="#7A838B"/>
    </symbol>

    <symbol id="dispatcher" viewBox="0 0 26 39" xmlns="http://www.w3.org/2000/svg">
        <path d="M22.0729 19.8438C22.0191 18.4688 22.2794 14.3419 22.2794 14.3419C22.3701 14.0044 22.4669 13.6 22.5354 13.275C24.6104 3.79062 18.2541 0 12.9479 0C11.5322 0 9.8385 0.515625 9.03537 1.50312C8.88076 1.70454 8.65696 1.84149 8.40725 1.8875C4.82912 2.4625 2.47912 7.11562 3.32912 12.85C3.401 13.3375 3.49787 13.8344 3.61662 14.3375V14.3406C3.84568 15.6009 3.906 18.4694 3.82287 19.8438C3.48381 25.4459 -2.64275 30.4094 1.34162 34.3531C11.8541 36.8219 14.0938 37.0312 24.5541 34.3531C28.5385 30.4094 22.2916 25.4519 22.0729 19.8438Z" fill="#9B4E4E"/>
        <path d="M23.7916 17.7772C23.5712 17.4397 23.3014 17.1372 22.9913 16.8797C22.9587 16.854 22.9212 16.835 22.8812 16.824C22.8411 16.8129 22.7993 16.81 22.7581 16.8153C22.7168 16.8206 22.6771 16.8341 22.6412 16.8549C22.6052 16.8758 22.5738 16.9036 22.5487 16.9367C22.5237 16.9699 22.5055 17.0077 22.4952 17.048C22.4849 17.0882 22.4828 17.1301 22.4889 17.1712C22.495 17.2123 22.5093 17.2518 22.5308 17.2873C22.5524 17.3229 22.5808 17.3537 22.6145 17.3781C22.8697 17.5951 23.0924 17.8477 23.2757 18.1281C23.5029 18.3946 23.6455 18.7229 23.6852 19.0708C23.7249 19.4188 23.6599 19.7707 23.4985 20.0816C22.9173 21.1959 21.1992 22.1178 18.9807 22.6344C19.0963 22.819 19.2063 23.0072 19.3107 23.1991C21.6232 22.6272 23.4045 21.615 24.0526 20.3703C24.2685 19.9602 24.3589 19.4956 24.3125 19.0345C24.2661 18.5733 24.0849 18.1361 23.7916 17.7772Z" fill="#473049"/>
        <path d="M16.1292 27.5594C15.6917 28.0719 13.5167 33.2531 12.9604 34.1719C12.401 33.2531 10.2135 28.0594 9.77917 27.5469C10.2188 27.0988 10.525 26.5372 10.6635 25.925C10.7429 25.5885 10.791 25.2454 10.8073 24.9C11.2636 25.0719 14.6354 25.0688 15.0917 24.8969V24.9C15.1064 25.2328 15.1524 25.5634 15.2292 25.8875C15.3636 26.5192 15.6759 27.0993 16.1292 27.5594Z" fill="#FF977B"/>
        <path d="M15.2291 25.8875C14.5513 26.3297 13.761 26.5682 12.9518 26.5749C12.1425 26.5815 11.3484 26.356 10.6635 25.925C10.7428 25.5885 10.7909 25.2454 10.8072 24.9C11.2635 25.0719 14.6353 25.0688 15.0916 24.8969V24.9C15.1063 25.2328 15.1523 25.5634 15.2291 25.8875Z" fill="#FF7364"/>
        <path d="M24.5541 34.3531C24.7447 35.1781 24.1009 35.7063 23.2041 36.1938C22.0572 36.8188 18.5572 38.1313 12.9478 38.1313C7.33844 38.1313 3.83844 36.8188 2.69157 36.1938C1.79469 35.7063 1.15094 35.1781 1.34157 34.3531C1.40059 34.1195 1.49886 33.8976 1.63219 33.6969C2.30094 32.6469 3.59157 30.95 6.88219 29.2C7.16032 29.0531 7.45094 28.9188 7.74782 28.7875C7.84157 30.0531 11.4791 29.05 11.4791 29.05C11.6834 29.1402 11.8584 29.2857 11.9843 29.4702C12.1102 29.6546 12.182 29.8706 12.1916 30.0938C12.2384 31.2031 12.4009 33.2531 12.9603 34.1719C13.5166 33.2531 13.6791 31.2031 13.7259 30.0938C13.7355 29.8706 13.8073 29.6546 13.9332 29.4702C14.0591 29.2857 14.2341 29.1402 14.4384 29.05C14.4384 29.05 18.0728 30.0625 18.1697 28.7969C18.4572 28.925 18.7416 29.0563 19.0134 29.2C22.3041 30.95 23.5947 32.6469 24.2634 33.6969C24.3968 33.8976 24.495 34.1195 24.5541 34.3531Z" fill="#F9E0B4"/>
        <path d="M20.8448 14.0906C21.2929 14.0837 21.7389 14.1534 22.1636 14.2969C23.1448 14.65 23.8261 15.5 23.6636 17.1719C23.5323 18.5469 22.8542 19.3625 22.0167 19.7094C21.4408 19.9439 20.8035 19.9813 20.2042 19.8156C20.5511 18.6031 20.8979 14.9656 20.8448 14.0906ZM5.68855 19.8156C5.09046 19.9808 4.45463 19.9445 3.87918 19.7125C3.03855 19.3625 2.36043 18.55 2.22605 17.1719C2.07293 15.5625 2.6948 14.7156 3.61668 14.3406C4.07288 14.1647 4.5591 14.0798 5.04793 14.0906C4.9948 14.9656 5.34168 18.6031 5.68855 19.8156Z" fill="#4B3956"/>
        <path d="M20.8453 14.0894C20.8966 14.9644 20.5513 18.6022 20.2038 19.8153C19.8475 21.06 18.2891 24.2928 13.5985 25.3372C13.1687 25.4325 12.7232 25.4325 12.2935 25.3372C7.60283 24.2928 6.04346 21.06 5.68815 19.8153C5.34065 18.6022 4.99533 14.9644 5.04658 14.0894C6.57002 13.2541 5.88127 10.3959 6.9969 7.76937C7.69127 6.13468 8.62783 5.71343 9.14971 5.61062C9.41552 5.55445 9.65211 5.4042 9.81596 5.18749C11.816 2.61812 15.8078 3.99999 17.2735 6.71874C18.606 9.18968 18.8047 12.8659 20.8453 14.0894Z" fill="#FFB497"/>
        <path d="M18.1103 27.9594C18.1925 28.2306 18.2128 28.5168 18.1697 28.7969C18.0728 30.0625 17.5197 32.2156 16.6353 31.975C15.3635 31.6281 14.4385 29.05 14.4385 29.05C15.0853 28.7625 15.6916 28.0719 16.1291 27.5594C16.1853 27.4875 16.2416 27.4219 16.2947 27.3594C16.3843 27.2428 16.5149 27.1647 16.66 27.1409C16.8051 27.1171 16.9538 27.1494 17.076 27.2312C17.4447 27.4219 17.9291 27.6625 18.1103 27.9594ZM11.4791 29.05C11.4791 29.05 10.5541 31.6281 9.28222 31.975C8.39472 32.2156 7.84159 30.0531 7.74784 28.7875C7.70478 28.5105 7.72508 28.2274 7.80722 27.9594C7.98847 27.6625 8.47284 27.4219 8.84159 27.2312C8.96375 27.1494 9.11245 27.1171 9.25753 27.1409C9.40261 27.1647 9.53321 27.2428 9.62284 27.3594C9.67284 27.4187 9.72597 27.4812 9.77909 27.5469C10.2135 28.0594 10.826 28.7625 11.4791 29.05Z" fill="#F7F0DF"/>
        <path d="M11.6229 19.0844C11.5638 19.0837 11.5054 19.0966 11.4522 19.1222C11.3989 19.1478 11.3523 19.1854 11.316 19.232C11.2797 19.2786 11.2547 19.3329 11.2429 19.3908C11.231 19.4487 11.2328 19.5085 11.2479 19.5656C11.3529 19.9355 11.5757 20.2611 11.8825 20.4929C12.1893 20.7247 12.5634 20.8502 12.9479 20.8502C13.3324 20.8502 13.7065 20.7247 14.0133 20.4929C14.3201 20.2611 14.5429 19.9355 14.6479 19.5656C14.663 19.5085 14.6648 19.4487 14.6529 19.3908C14.6411 19.3329 14.6161 19.2786 14.5798 19.232C14.5435 19.1854 14.4969 19.1478 14.4436 19.1222C14.3904 19.0966 14.332 19.0837 14.2729 19.0844H11.6229Z" fill="white"/>
        <path d="M8.91816 13.4275H8.8566C8.38992 13.4275 8.0116 13.8058 8.0116 14.2725V14.9491C8.0116 15.4157 8.38992 15.7941 8.8566 15.7941H8.91816C9.38484 15.7941 9.76316 15.4157 9.76316 14.9491V14.2725C9.76316 13.8058 9.38484 13.4275 8.91816 13.4275Z" fill="#9B4E4E"/>
        <path d="M16.9776 15.7944H17.0392C17.5058 15.7944 17.8842 15.4161 17.8842 14.9494V14.2728C17.8842 13.8061 17.5058 13.4278 17.0392 13.4278H16.9776C16.5109 13.4278 16.1326 13.8061 16.1326 14.2728V14.9494C16.1326 15.4161 16.5109 15.7944 16.9776 15.7944Z" fill="#9B4E4E"/>
        <path d="M12.9695 35.4594H12.9267C12.6012 35.4594 12.3373 35.7233 12.3373 36.0488V36.0916C12.3373 36.4171 12.6012 36.6809 12.9267 36.6809H12.9695C13.295 36.6809 13.5588 36.4171 13.5588 36.0916V36.0488C13.5588 35.7233 13.295 35.4594 12.9695 35.4594Z" fill="white"/>
        <path d="M12.951 18.0625C12.9423 18.0625 12.0885 18.0488 12.0885 17.5594C12.0886 17.4928 12.1099 17.4279 12.1494 17.3743C12.189 17.3207 12.2446 17.2811 12.3082 17.2613C12.3718 17.2415 12.4401 17.2426 12.503 17.2643C12.566 17.2861 12.6204 17.3274 12.6582 17.3822C12.7527 17.4142 12.8513 17.4328 12.951 17.4375C13.0485 17.4326 13.1449 17.4141 13.2373 17.3825C13.275 17.3276 13.3294 17.2862 13.3924 17.2643C13.4554 17.2425 13.5237 17.2414 13.5874 17.2611C13.651 17.2809 13.7067 17.3205 13.7463 17.3741C13.7859 17.4278 13.8072 17.4927 13.8073 17.5594C13.8073 18.0488 12.9594 18.0625 12.951 18.0625Z" fill="#FF7364"/>
        <path d="M7.36324 14.1813C7.31005 14.1814 7.25769 14.168 7.21114 14.1423C7.16458 14.1165 7.12537 14.0793 7.0972 14.0342C7.06904 13.9891 7.05286 13.9375 7.0502 13.8844C7.04753 13.8313 7.05848 13.7784 7.08199 13.7306C7.26107 13.4477 7.50762 13.2137 7.79948 13.0497C8.09135 12.8856 8.41941 12.7966 8.75418 12.7906C9.24891 12.7703 9.73173 12.9458 10.0979 13.2791C10.1598 13.3342 10.1973 13.4116 10.2021 13.4944C10.2069 13.5771 10.1787 13.6584 10.1236 13.7203C10.0963 13.751 10.0632 13.776 10.0263 13.7938C9.98931 13.8117 9.94921 13.8221 9.90823 13.8245C9.82548 13.8293 9.74421 13.8011 9.6823 13.7459C9.55794 13.631 9.41158 13.5425 9.25206 13.4858C9.09254 13.429 8.92317 13.4051 8.75418 13.4156C8.53616 13.4223 8.32262 13.4791 8.13007 13.5816C7.93753 13.684 7.77117 13.8295 7.64386 14.0066C7.6181 14.059 7.57814 14.1032 7.52854 14.1341C7.47894 14.1649 7.42167 14.1813 7.36324 14.1813ZM6.79793 12.0375C6.7356 12.0378 6.67462 12.0194 6.62283 11.9847C6.57104 11.95 6.5308 11.9006 6.50729 11.8429C6.48377 11.7852 6.47805 11.7218 6.49086 11.6608C6.50367 11.5998 6.53442 11.544 6.57917 11.5006C7.33699 10.7656 9.86886 10.3897 10.6223 10.9006C10.6909 10.9472 10.7382 11.0191 10.7538 11.1006C10.7694 11.1821 10.752 11.2664 10.7054 11.335C10.6588 11.4036 10.5869 11.4509 10.5055 11.4665C10.424 11.4821 10.3397 11.4647 10.271 11.4181C9.80793 11.1028 7.58574 11.3947 7.01449 11.9494C6.95642 12.0057 6.8788 12.0373 6.79793 12.0375ZM18.5326 14.1813C18.4741 14.1814 18.4167 14.1651 18.367 14.1342C18.3172 14.1033 18.2772 14.0591 18.2514 14.0066C18.1241 13.8295 17.9579 13.6842 17.7654 13.5817C17.573 13.4792 17.3596 13.4224 17.1417 13.4156C16.9729 13.4053 16.8039 13.4293 16.6446 13.4861C16.4854 13.5428 16.3393 13.6312 16.2151 13.7459C16.1532 13.8011 16.0719 13.8293 15.9892 13.8245C15.9064 13.8197 15.829 13.7822 15.7739 13.7203C15.7187 13.6584 15.6905 13.5771 15.6953 13.4944C15.7001 13.4116 15.7376 13.3342 15.7995 13.2791C16.1657 12.9458 16.6485 12.7703 17.1432 12.7906C17.4778 12.7967 17.8057 12.8858 18.0974 13.0499C18.3891 13.2139 18.6355 13.4479 18.8145 13.7306C18.838 13.7784 18.8489 13.8313 18.8463 13.8844C18.8436 13.9375 18.8274 13.9891 18.7993 14.0342C18.7711 14.0793 18.7319 14.1165 18.6853 14.1423C18.6388 14.168 18.5864 14.1814 18.5332 14.1813H18.5326ZM19.0979 12.0375C19.0163 12.0377 18.9377 12.006 18.8792 11.9491C18.3079 11.395 16.0857 11.1034 15.6226 11.4178C15.554 11.4644 15.4697 11.4818 15.3882 11.4662C15.3067 11.4506 15.2348 11.4033 15.1882 11.3347C15.1417 11.2661 15.1243 11.1818 15.1398 11.1003C15.1554 11.0188 15.2027 10.9469 15.2714 10.9003C16.0251 10.39 18.5567 10.7647 19.3145 11.5003C19.3592 11.5437 19.39 11.5995 19.4028 11.6605C19.4156 11.7215 19.4099 11.7849 19.3864 11.8426C19.3629 11.9003 19.3226 11.9497 19.2708 11.9844C19.219 12.0191 19.1581 12.0374 19.0957 12.0372L19.0979 12.0375ZM22.4854 13.5063C22.3167 12.5313 21.8698 10.2031 19.9792 6.45626C19.9042 6.30001 19.8636 6.13439 19.9854 6.01251C20.0456 5.95546 20.1257 5.92419 20.2086 5.92536C20.2915 5.92652 20.3706 5.96004 20.4292 6.01876C21.4229 7.04064 22.5167 9.62189 22.8042 11.725L22.4854 13.5063ZM5.65105 6.95314C5.6323 6.98439 3.7448 10.6094 3.36355 13.0656C3.35105 12.9938 3.33855 12.9219 3.32918 12.85C3.24632 12.3022 3.19311 11.7504 3.1698 11.1969C3.62292 8.98751 5.03855 6.76251 5.11042 6.64064C5.15165 6.56916 5.21947 6.51688 5.29909 6.49522C5.37871 6.47356 5.46367 6.48427 5.53542 6.52501C5.60712 6.56683 5.65945 6.63521 5.6811 6.71535C5.70274 6.79548 5.69194 6.88091 5.65105 6.95314Z" fill="#844040"/>
        <path d="M22.0603 21.4587C20.3797 22.4756 17.6131 23.1228 14.6769 23.0837C14.5945 23.0841 14.5154 23.1164 14.4563 23.1739C14.3972 23.2313 14.3627 23.3095 14.36 23.3919C14.3588 23.4747 14.3906 23.5546 14.4483 23.614C14.5061 23.6734 14.585 23.7075 14.6678 23.7087C14.7641 23.7087 14.8594 23.7109 14.955 23.7109C18.1072 23.7109 20.9941 22.9581 22.705 21.7825C22.4892 21.6775 22.2743 21.5696 22.0603 21.4587Z" fill="#473049"/>
        <path d="M13.1204 24.5875C13.9774 24.5875 14.6722 24.0546 14.6722 23.3972C14.6722 22.7398 13.9774 22.2069 13.1204 22.2069C12.2633 22.2069 11.5685 22.7398 11.5685 23.3972C11.5685 24.0546 12.2633 24.5875 13.1204 24.5875Z" fill="#4B3956"/>
    </symbol>

    <symbol id="peak-zone" viewBox="0 0 38 30" xmlns="http://www.w3.org/2000/svg">
        <path fill-rule="evenodd" clip-rule="evenodd" d="M18.7494 8.16071L36.1626 17.8472L24.2925 24.4511L19.3761 19.4528L29.0095 13.8677L36.1626 17.8472L18.7494 27.5338L1.3363 17.8472L6.38107 20.6553L18.1493 13.8366L14.276 10.6477L18.7494 8.16071Z" fill="#E6E6E6"/>
        <path fill-rule="evenodd" clip-rule="evenodd" d="M6.38107 20.6553L1.3363 17.8472L14.276 10.6476L18.1493 13.8366L6.38107 20.6553Z" fill="#81D672"/>
        <path fill-rule="evenodd" clip-rule="evenodd" d="M29.0095 13.8676L36.1625 17.8472L24.2924 24.4511L19.3761 19.4528L29.0095 13.8676Z" fill="#73BFFF"/>
        <path fill-rule="evenodd" clip-rule="evenodd" d="M16.7519 13.5819L13.1665 11.5113C13.6006 10.909 14.0612 10.2579 14.4953 9.59796L21.3959 13.5819L7.78959 21.437L5.42444 20.1216L16.7519 13.5819ZM20.1955 20.2633L25.9003 23.5563L23.5351 24.8718L15.5516 20.2633L24.5848 15.048C25.0676 15.7345 25.5437 16.3812 25.949 16.9414L20.1955 20.2633Z" fill="white"/>
        <path fill-rule="evenodd" clip-rule="evenodd" d="M11.5588 0C10.3098 0 9.05853 0.473907 8.11072 1.42398C6.95025 2.58445 6.49853 4.19664 6.7576 5.70695C7.18057 8.17836 10.5113 12.1203 11.5588 13.7768C12.6063 12.1203 15.937 8.17836 16.3621 5.70695C16.6213 4.19656 16.1695 2.58438 15.009 1.42398C14.0612 0.473907 12.8099 0 11.5587 0H11.5588ZM11.5588 2.45148C10.2278 2.45148 9.13822 3.54102 9.13822 4.87195C9.13822 6.20516 10.2278 7.29469 11.5588 7.29469C12.892 7.29469 13.9815 6.20516 13.9815 4.87195C13.9815 3.54102 12.892 2.45148 11.5588 2.45148ZM26.7353 4.3007C25.484 4.3007 24.235 4.77461 23.2849 5.72242C22.1245 6.88289 21.6749 8.49508 21.9341 10.0054C22.357 12.4769 25.6878 16.4188 26.7353 18.0753C27.7828 16.4188 31.1135 12.4769 31.5364 10.0054C31.7956 8.49508 31.346 6.88289 30.1856 5.72242C29.2355 4.77461 27.9865 4.3007 26.7353 4.3007ZM26.7353 6.75C25.4021 6.75 24.3125 7.83953 24.3125 9.17273C24.3125 10.5037 25.4021 11.5955 26.7353 11.5955C28.0662 11.5955 29.158 10.5037 29.158 9.17273C29.158 7.83961 28.0662 6.75 26.7353 6.75Z" fill="#FF637B"/>
        <path d="M0 20.2469L1.33648 17.8434L18.7519 27.5274L17.4154 29.9309L0 20.2469Z" fill="#73BFFF"/>
        <path d="M18.7477 27.5395L36.1631 17.8555L37.499 20.258L20.0837 29.9421L18.7477 27.5395Z" fill="#81D672"/>
    </symbol>

    <symbol id="arrow-right" viewBox="0 0 12 12" xmlns="http://www.w3.org/2000/svg">
        <path d="M4.49999 2.03999L7.75999 5.29999C8.14499 5.68499 8.14499 6.31499 7.75999 6.69999L4.49999 9.95999" stroke-width="1.5" stroke-miterlimit="10" stroke-linecap="round" stroke-linejoin="round"/>
    </symbol>

    <symbol id="decrease" viewBox="0 0 7 8" xmlns="http://www.w3.org/2000/svg">
        <path d="M0.163782 4.26525L2.97478 7.089C3.18628 7.30125 3.56053 7.30125 3.77278 7.089L6.58378 4.26525C6.80278 4.04475 6.80203 3.6885 6.58153 3.4695C6.36103 3.2505 6.00553 3.2505 5.78578 3.471L3.93553 5.32875V0.5625C3.93553 0.25125 3.68353 0 3.37303 0C3.06253 0 2.81053 0.25125 2.81053 0.5625V5.32875L0.961032 3.471C0.850782 3.36075 0.706782 3.306 0.562032 3.306C0.418782 3.306 0.274782 3.36075 0.165282 3.4695C-0.0544677 3.6885 -0.0552177 4.04475 0.163782 4.26525"/>
    </symbol>

    <symbol id="increase" viewBox="0 0 7 8" xmlns="http://www.w3.org/2000/svg">
        <path d="M0.163782 2.98295L2.97478 0.1592C3.18628 -0.0530503 3.56053 -0.0530503 3.77278 0.1592L6.58378 2.98295C6.80278 3.20345 6.80203 3.5597 6.58153 3.7787C6.36103 3.9977 6.00553 3.9977 5.78578 3.7772L3.93553 1.91945V6.6857C3.93553 6.99695 3.68353 7.2482 3.37303 7.2482C3.06253 7.2482 2.81053 6.99695 2.81053 6.6857V1.91945L0.961032 3.7772C0.850782 3.88745 0.706782 3.9422 0.562032 3.9422C0.418782 3.9422 0.274782 3.88745 0.165282 3.7787C-0.0544677 3.5597 -0.0552177 3.20345 0.163782 2.98295"/>
    </symbol>

    <symbol id="star" viewBox="0 0 15 15" xmlns="http://www.w3.org/2000/svg">
        <path d="M8.22415 0.450328L9.91595 3.87836C10.0336 4.11679 10.2611 4.28199 10.5242 4.32017L14.3074 4.86992C14.9701 4.96629 15.2345 5.78043 14.7551 6.24757L12.0176 8.91591C11.8274 9.10145 11.7404 9.36898 11.7855 9.63087L12.4316 13.3987C12.5449 14.0586 11.8521 14.5617 11.2595 14.2504L7.8759 12.4716C7.64061 12.348 7.35932 12.348 7.12403 12.4716L3.74042 14.2504C3.14781 14.562 2.45507 14.0586 2.56833 13.3987L3.21445 9.63087C3.25951 9.36898 3.17252 9.10145 2.98229 8.91591L0.244803 6.24757C-0.234546 5.78012 0.0298469 4.96597 0.69255 4.86992L4.47572 4.32017C4.73886 4.28199 4.96633 4.11679 5.08398 3.87836L6.77578 0.450328C7.07177 -0.15011 7.92784 -0.15011 8.22415 0.450328Z" fill="#FFCA20"/>
    </symbol>

</svg>